<svg width="1920" height="216" fill="none" xmlns="http://www.w3.org/2000/svg"><path d="M-73.672 7.4v75.168h-120.96V7.4h-58.752V209h58.752v-78.048h120.96V209h58.752V7.4h-58.752zm234.486 208.224c79.776 0 131.616-39.168 131.616-107.424S240.59.776 160.814.776C81.038.776 29.486 39.944 29.486 108.2s51.552 107.424 131.328 107.424zm0-47.808c-44.352 0-71.712-21.6-71.712-59.616s27.648-59.616 71.712-59.616c44.352 0 71.712 21.6 71.712 59.616s-27.36 59.616-71.712 59.616zM553.09 7.4l-76.32 96.768L401.026 7.4h-64.224V209h56.736V80.264l80.352 98.496h2.88l80.352-98.496V209h58.464V7.4H553.09zm176.209 156.672V128.36h127.008V85.448H729.299v-33.12h154.08V7.4H671.411V209h215.136v-44.928H729.299zM1154.35 7.4h-139.97V209h58.75v-60.48h81.22c55 0 91.58-23.616 91.58-70.56 0-46.368-36.58-70.56-91.58-70.56zm-4.9 98.496h-76.32V52.04h76.32c21.89 0 36.86 6.624 36.86 27.072 0 20.16-14.97 26.784-36.86 26.784zM1448.96 209h62.5L1407.2 7.4h-64.22L1238.72 209h61.63l19.01-38.592h110.59L1448.96 209zm-109.44-80.352l35.14-71.424 34.84 71.424h-69.98zm427.83-36.288H1646.1v41.184h66.82v18.144c-14.11 12.96-33.7 17.856-58.46 17.856-48.96 0-76.61-21.6-76.61-61.344 0-39.456 26.78-61.056 75.74-61.056 27.07 0 45.22 6.912 62.5 22.464l42.91-31.68C1737.98 18.344 1701.98.776 1652.15.776c-82.65 0-133.92 39.168-133.92 107.424s51.27 107.424 133.92 107.424c53.86 0 93.6-17.856 115.2-44.64V92.36zm103.99 71.712V128.36h127.01V85.448h-127.01v-33.12h154.08V7.4h-211.97V209h215.14v-44.928h-157.25z" fill="#000"/></svg>