<svg width="23" height="15" fill="none" xmlns="http://www.w3.org/2000/svg"><path d="M1.384 2.552v4.95H7.9v1.152H1.384V14H.052V1.4h8.64v1.152H1.384zM17.491 4.46c.888 0 1.692.204 2.412.612.72.396 1.284.96 1.692 1.692.408.732.612 1.566.612 2.502 0 .936-.204 1.77-.612 2.502a4.374 4.374 0 01-1.692 1.71c-.72.408-1.524.612-2.412.612-.792 0-1.506-.168-2.142-.504a3.915 3.915 0 01-1.512-1.458V14h-1.224V.644h1.278v5.688c.396-.612.9-1.074 1.512-1.386.624-.324 1.32-.486 2.088-.486zm-.09 8.496c.66 0 1.26-.15 1.8-.45.54-.312.96-.75 1.26-1.314.312-.564.468-1.206.468-1.926s-.156-1.362-.468-1.926c-.3-.564-.72-.996-1.26-1.296a3.533 3.533 0 00-1.8-.468c-.672 0-1.278.156-1.818.468-.528.3-.948.732-1.26 1.296-.3.564-.45 1.206-.45 1.926s.15 1.362.45 1.926a3.406 3.406 0 001.26 1.314c.54.3 1.146.45 1.818.45z" fill="#6FCBFF"/></svg>