<svg width="14" height="141" fill="none" xmlns="http://www.w3.org/2000/svg"><path d="M.4 128.652h5.49v10.368H.4v1.512H13v-1.512H7.33v-10.368H13v-1.512H.4v1.512zm12.978-12.953c0-4.788-2.574-7.668-6.678-7.668s-6.678 2.88-6.678 7.668 2.574 7.668 6.678 7.668 6.678-2.88 6.678-7.668zm-1.404 0c0 3.708-1.89 6.12-5.274 6.12-3.384 0-5.274-2.412-5.274-6.12s1.89-6.12 5.274-6.12c3.384 0 5.274 2.412 5.274 6.12zM.4 89.951l7.704 6.318L.4 102.587v1.656H13v-1.476H2.524l7.758-6.408v-.108l-7.758-6.408H13v-1.512H.4v1.62zm11.196-7.852H7.294v-8.892H5.89V82.1H1.804V71.605H.4v12.006H13V71.425h-1.404V82.1zM.4 53.05v8.424H13V59.96H8.392v-6.912c0-2.898-1.476-4.824-3.996-4.824S.4 50.15.4 53.049zm6.588.108v6.804H1.804v-6.804c0-2.052.828-3.384 2.592-3.384 1.764 0 2.592 1.332 2.592 3.384zM13 34.143v-1.71L.4 39.362v1.691l12.6 6.93V46.31l-3.384-1.836V35.98L13 34.141zm-4.752 9.593l-6.462-3.51 6.462-3.51v7.02zm-1.8-27.42v7.235h1.404v-5.724H9.49c1.746.936 2.484 2.988 2.484 5.49 0 3.852-1.782 6.264-5.274 6.264s-5.274-2.394-5.274-6.156c0-2.286.72-3.96 2.142-5.094l-.918-1.314c-1.476 1.26-2.628 3.33-2.628 6.408 0 4.824 2.574 7.704 6.678 7.704s6.678-2.88 6.678-7.758c0-3.492-1.476-6.012-3.438-7.056H6.448zm5.148-5.243H7.294V2.181H5.89v8.892H1.804V.579H.4v12.006H13V.399h-1.404v10.674z" fill="#6FCBFF"/></svg>