<svg width="14" height="14" fill="none" xmlns="http://www.w3.org/2000/svg"><path d="M9.267 8.417h0l.071.071a1.14 1.14 0 01.809-.337c.29 0 .561.11.763.312l-1.643-.046zm0 0a1.24 1.24 0 01.88-.366c.316 0 .612.12.833.34h0l1.805 1.806h0c.467.468.452 1.237-.024 1.714h0c-.326.319-.612.584-.946.784-.337.201-.717.333-1.23.394h0a2.267 2.267 0 01-.248.011h0c-.394 0-1.21-.066-2.297-.5-1.335-.533-2.65-1.445-3.91-2.705C1.631 7.397.687 5.522.94 3.441c.117-1.038.57-1.564 1.176-2.173h0A1.24 1.24 0 012.996.9c.317 0 .614.121.834.342 0 0 0 0 0 0l1.805 1.804h0c.467.469.452 1.237-.024 1.714h0l-.517.515s0 0 0 0a.452.452 0 00-.07.549c.408.695.776 1.239 1.358 1.821.512.513 1.038.907 1.82 1.362h0a.451.451 0 00.546-.071h0l.52-.519zM1.485 3.505h0c-.226 1.869.633 3.602 3.033 6.002 2.831 2.831 5.183 3.044 5.82 3.044h0c.11 0 .175-.006.185-.008.418-.05.719-.149.994-.31.277-.164.532-.394.857-.712.266-.266.27-.687.023-.936L1.485 3.505zm0 0c.045-.404.138-.7.298-.977.16-.278.392-.54.722-.873a.691.691 0 01.492-.206c.171 0 .329.065.445.181h0l1.804 1.804s0 0 0 0c.249.25.244.67-.024.937l-.516.516a1.001 1.001 0 00-.155 1.215l.086-.05-.086.05c.426.726.818 1.306 1.442 1.932h0c.682.682 1.362 1.115 1.933 1.447h0M1.485 3.505L7.926 9.48m0 0a1 1 0 00.503.136l-.503-.136zm2.667-.7l1.803 1.804-3.967-.968a.995.995 0 00.707-.292s0 0 0 0l.52-.52h0a.69.69 0 01.49-.205c.172 0 .33.065.446.18 0 0 0 0 0 0z" fill="#fff" stroke="#fff" stroke-width=".2"/></svg>