<svg width="13" height="12" fill="none" xmlns="http://www.w3.org/2000/svg"><path d="M9.337 12c-.383 0-1.186-.064-2.26-.493-1.32-.527-2.624-1.43-3.877-2.683C.709 6.334-.207 4.487.038 2.453.152 1.449.586.943 1.188.338 1.405.12 1.692 0 1.996 0c.29 0 .561.111.763.312l1.804 1.805c.426.427.415 1.133-.024 1.572l-.516.515a.552.552 0 00-.086.67c.41.7.783 1.251 1.373 1.842.52.52 1.053.919 1.84 1.377a.551.551 0 00.668-.086l.52-.519c.217-.217.504-.337.808-.337.29 0 .561.11.763.312l1.804 1.804c.426.427.415 1.133-.024 1.573-.65.637-1.116 1.03-2.116 1.15a2.4 2.4 0 01-.237.01zM1.997.35c-.21 0-.41.083-.562.235-.663.667-.956 1.08-1.05 1.908-.231 1.916.656 3.679 3.062 6.084 2.852 2.852 5.23 3.074 5.89 3.074.117 0 .185-.007.198-.008.858-.102 1.258-.414 1.91-1.05.302-.303.312-.788.022-1.079L9.663 7.71a.725.725 0 00-.516-.21.79.79 0 00-.562.235l-.52.519a.895.895 0 01-1.089.141c-.567-.33-1.239-.759-1.912-1.432-.616-.617-1.003-1.19-1.427-1.912a.901.901 0 01.14-1.094l.516-.515c.303-.303.314-.787.024-1.078L2.513.559a.723.723 0 00-.516-.21z" fill="#414141"/></svg>