<svg width="14" height="14" fill="none" xmlns="http://www.w3.org/2000/svg"><path d="M2.435 1.585c-.663.667-.956 1.08-1.05 1.908-.231 1.916.656 3.679 3.062 6.084 2.852 2.852 5.23 3.074 5.89 3.074h0c.117 0 .185-.007.198-.008l-8.1-11.058zm0 0l.017.017a.766.766 0 01.545-.228c.19 0 .367.072.498.203h0m-1.06.008l1.06-.008m6.108 7.176h0l-.52.518a.92.92 0 01-1.12.146c-.568-.331-1.241-.76-1.917-1.436h0c-.618-.62-1.006-1.194-1.43-1.917a.926.926 0 01.143-1.124l.516-.516 4.328 4.329zm0 0a.766.766 0 01.544-.228.7.7 0 01.498.202l-1.042.026zM3.495 1.577L5.3 3.381M3.495 1.577L5.3 3.381m0 0c.28.281.27.749-.024 1.043L5.3 3.381zm-3.13-2.06h0c-.602.605-1.04 1.116-1.155 2.129-.247 2.046.676 3.9 3.168 6.392 1.255 1.255 2.563 2.16 3.886 2.688 1.077.43 1.883.495 2.269.495h0c.129 0 .209-.007.24-.01h0c.503-.06.873-.19 1.199-.384.326-.195.607-.455.932-.773h0c.448-.45.46-1.17.024-1.608h0l-1.804-1.805h0a1.097 1.097 0 00-.781-.32c-.31 0-.604.123-.827.345 0 0 0 0 0 0l-.519.519h0a.523.523 0 01-.637.082l-.012.022.012-.021c-.786-.458-1.317-.856-1.835-1.374-.588-.588-.96-1.138-1.37-1.836a.527.527 0 01.082-.64l.517-.515h0c.448-.449.46-1.17.024-1.608h0L3.777 1.295a1.095 1.095 0 00-.78-.32c-.31 0-.604.123-.827.346zm10.28 9.21c.28.281.27.75-.022 1.043l-1.781-2.847 1.804 1.805z" fill="#fff" stroke="#414141" stroke-width=".06"/></svg>