<svg width="1920" height="216" viewBox="0 0 1920 216" fill="none" xmlns="http://www.w3.org/2000/svg">
<path d="M-73.672 7.39999V82.568H-194.632V7.39999H-253.384V209H-194.632V130.952H-73.672V209H-14.92V7.39999H-73.672ZM160.814 215.624C240.59 215.624 292.43 176.456 292.43 108.2C292.43 39.944 240.59 0.775986 160.814 0.775986C81.038 0.775986 29.486 39.944 29.486 108.2C29.486 176.456 81.038 215.624 160.814 215.624ZM160.814 167.816C116.462 167.816 89.102 146.216 89.102 108.2C89.102 70.184 116.75 48.584 160.814 48.584C205.166 48.584 232.526 70.184 232.526 108.2C232.526 146.216 205.166 167.816 160.814 167.816ZM553.09 7.39999L476.77 104.168L401.026 7.39999H336.802V209H393.538V80.264L473.89 178.76H476.77L557.122 80.264V209H615.586V7.39999H553.09ZM729.299 164.072V128.36H856.307V85.448H729.299V52.328H883.379V7.39999H671.411V209H886.547V164.072H729.299ZM1154.35 7.39999H1014.38V209H1073.13V148.52H1154.35C1209.35 148.52 1245.93 124.904 1245.93 77.96C1245.93 31.592 1209.35 7.39999 1154.35 7.39999ZM1149.45 105.896H1073.13V52.04H1149.45C1171.34 52.04 1186.31 58.664 1186.31 79.112C1186.31 99.272 1171.34 105.896 1149.45 105.896ZM1448.96 209H1511.46L1407.2 7.39999H1342.98L1238.72 209H1300.35L1319.36 170.408H1429.95L1448.96 209ZM1339.52 128.648L1374.66 57.224L1409.5 128.648H1339.52ZM1767.35 92.36H1646.1V133.544H1712.92V151.688C1698.81 164.648 1679.22 169.544 1654.46 169.544C1605.5 169.544 1577.85 147.944 1577.85 108.2C1577.85 68.744 1604.63 47.144 1653.59 47.144C1680.66 47.144 1698.81 54.056 1716.09 69.608L1759 37.928C1737.98 18.344 1701.98 0.775986 1652.15 0.775986C1569.5 0.775986 1518.23 39.944 1518.23 108.2C1518.23 176.456 1569.5 215.624 1652.15 215.624C1706.01 215.624 1745.75 197.768 1767.35 170.984V92.36ZM1871.34 164.072V128.36H1998.35V85.448H1871.34V52.328H2025.42V7.39999H1813.45V209H2028.59V164.072H1871.34Z" fill="#000"/>
</svg>
