<svg width="23" height="15" viewBox="0 0 23 15" fill="none" xmlns="http://www.w3.org/2000/svg">
<path d="M1.384 2.552V7.502H7.9V8.654H1.384V14H0.0520001V1.4H8.692V2.552H1.384ZM17.4906 4.46C18.3786 4.46 19.1826 4.664 19.9026 5.072C20.6226 5.468 21.1866 6.032 21.5946 6.764C22.0026 7.496 22.2066 8.33 22.2066 9.266C22.2066 10.202 22.0026 11.036 21.5946 11.768C21.1866 12.5 20.6226 13.07 19.9026 13.478C19.1826 13.886 18.3786 14.09 17.4906 14.09C16.6986 14.09 15.9846 13.922 15.3486 13.586C14.7246 13.25 14.2206 12.764 13.8366 12.128V14H12.6126V0.643999H13.8906V6.332C14.2866 5.72 14.7906 5.258 15.4026 4.946C16.0266 4.622 16.7226 4.46 17.4906 4.46ZM17.4006 12.956C18.0606 12.956 18.6606 12.806 19.2006 12.506C19.7406 12.194 20.1606 11.756 20.4606 11.192C20.7726 10.628 20.9286 9.986 20.9286 9.266C20.9286 8.546 20.7726 7.904 20.4606 7.34C20.1606 6.776 19.7406 6.344 19.2006 6.044C18.6606 5.732 18.0606 5.576 17.4006 5.576C16.7286 5.576 16.1226 5.732 15.5826 6.044C15.0546 6.344 14.6346 6.776 14.3226 7.34C14.0226 7.904 13.8726 8.546 13.8726 9.266C13.8726 9.986 14.0226 10.628 14.3226 11.192C14.6346 11.756 15.0546 12.194 15.5826 12.506C16.1226 12.806 16.7286 12.956 17.4006 12.956Z" fill="#6FCBFF"/>
</svg>
