<svg width="14" height="141" viewBox="0 0 14 141" fill="none" xmlns="http://www.w3.org/2000/svg">
<path d="M0.399999 128.652L5.89 128.652L5.89 139.02L0.399999 139.02L0.399999 140.532L13 140.532L13 139.02L7.33 139.02L7.33 128.652L13 128.652L13 127.14L0.399998 127.14L0.399999 128.652ZM13.378 115.699C13.378 110.911 10.804 108.031 6.7 108.031C2.596 108.031 0.0219983 110.911 0.0219985 115.699C0.0219987 120.487 2.596 123.367 6.7 123.367C10.804 123.367 13.378 120.487 13.378 115.699ZM11.974 115.699C11.974 119.407 10.084 121.819 6.7 121.819C3.316 121.819 1.426 119.407 1.426 115.699C1.426 111.991 3.316 109.579 6.7 109.579C10.084 109.579 11.974 111.991 11.974 115.699ZM0.399997 89.951L8.104 96.269L0.399997 102.587L0.399997 104.243L13 104.243L13 102.767L2.524 102.767L10.282 96.359L10.282 96.251L2.524 89.843L13 89.843L13 88.331L0.399997 88.331L0.399997 89.951ZM11.596 82.0992L7.294 82.0992L7.294 73.2072L5.89 73.2072L5.89 82.0992L1.804 82.0992L1.804 71.6052L0.399996 71.6052L0.399997 83.6112L13 83.6112L13 71.4252L11.596 71.4252L11.596 82.0992ZM0.399995 53.0486L0.399996 61.4726L13 61.4726L13 59.9606L8.392 59.9606L8.392 53.0486C8.392 50.1506 6.916 48.2246 4.396 48.2246C1.876 48.2246 0.399995 50.1506 0.399995 53.0486ZM6.988 53.1566L6.988 59.9606L1.804 59.9606L1.804 53.1566C1.804 51.1046 2.632 49.7726 4.396 49.7726C6.16 49.7726 6.988 51.1046 6.988 53.1566ZM13 34.1425L13 32.4325L0.399995 39.3625L0.399995 41.0545L13 47.9845L13 46.3105L9.616 44.4745L9.616 35.9785L13 34.1425ZM8.248 43.7365L1.786 40.2265L8.248 36.7165L8.248 43.7365ZM6.44799 16.3154L6.44799 23.5514L7.85199 23.5514L7.85199 17.8274L9.48999 17.8274C11.236 18.7634 11.974 20.8154 11.974 23.3174C11.974 27.1694 10.192 29.5814 6.69999 29.5814C3.20799 29.5814 1.42599 27.1874 1.42599 23.4254C1.42599 21.1394 2.14599 19.4654 3.56799 18.3314L2.64999 17.0174C1.17399 18.2774 0.0219944 20.3474 0.0219945 23.4254C0.0219947 28.2494 2.59599 31.1294 6.69999 31.1294C10.804 31.1294 13.378 28.2494 13.378 23.3714C13.378 19.8794 11.902 17.3594 9.93999 16.3154L6.44799 16.3154ZM11.596 11.073L7.29399 11.073L7.29399 2.181L5.88999 2.181L5.88999 11.073L1.80399 11.073L1.80399 0.579003L0.399993 0.579003L0.399993 12.585L13 12.585L13 0.399003L11.596 0.399003L11.596 11.073Z" fill="#6FCBFF"/>
</svg>
