<svg width="16" height="13" viewBox="0 0 16 13" fill="none" xmlns="http://www.w3.org/2000/svg">
<path d="M0.0520001 0.399999H1.384V13H0.0520001V0.399999ZM11.4776 3.46C12.6656 3.46 13.6076 3.808 14.3036 4.504C15.0116 5.188 15.3656 6.19 15.3656 7.51V13H14.0876V7.636C14.0876 6.652 13.8416 5.902 13.3496 5.386C12.8576 4.87 12.1556 4.612 11.2436 4.612C10.2236 4.612 9.41364 4.918 8.81364 5.53C8.22564 6.13 7.93164 6.964 7.93164 8.032V13H6.65364V3.532H7.87764V5.278C8.22564 4.702 8.70564 4.258 9.31764 3.946C9.94164 3.622 10.6616 3.46 11.4776 3.46Z" fill="#6FCBFF"/>
</svg>
