<svg width="117" height="75" viewBox="0 0 117 75" fill="none" xmlns="http://www.w3.org/2000/svg">
<path d="M26.818 72.0519H23.7642V72.3627H25.1169V74.9144H25.4612V72.3627H26.818V72.0519Z" fill="#00A3FF"/>
<path d="M31.4062 74.5954V73.6181H33.4312V73.2992H31.4062V72.3709H33.796V72.0519H31.0619V74.9144H33.837V74.5954H31.4062Z" fill="#00A3FF"/>
<path d="M39.8143 74.681C38.9821 74.681 38.4328 74.2721 38.4328 73.4829C38.4328 72.6936 38.9821 72.2847 39.8143 72.2847C40.3143 72.2847 40.7243 72.4524 40.9497 72.8327L41.2776 72.6691C41.0071 72.2438 40.507 71.9658 39.8184 71.9658C38.7362 71.9658 38.0803 72.5546 38.0803 73.4829C38.0803 74.4111 38.7362 75 39.8061 75C40.507 75 41.0071 74.726 41.2776 74.2966L40.9497 74.133C40.7284 74.5174 40.3143 74.681 39.8143 74.681Z" fill="#00A3FF"/>
<path d="M48.2269 72.0519V73.2992H45.8658V72.0519H45.5215V74.9144H45.8658V73.6263H48.2269V74.9144H48.5712V72.0519H48.2269Z" fill="#00A3FF"/>
<path d="M55.5287 72.0519V74.4114L53.1881 72.0519H52.8151V74.9144H53.1512V72.4895L55.5615 74.9144H55.8648V72.0519H55.5287Z" fill="#00A3FF"/>
<path d="M61.8549 75C62.9452 75 63.6011 74.4152 63.6011 73.4829C63.6011 72.5505 62.9452 71.9658 61.8549 71.9658C60.7645 71.9658 60.1086 72.5505 60.1086 73.4829C60.1086 74.4152 60.7645 75 61.8549 75ZM61.8549 74.681C61.0105 74.681 60.4612 74.2516 60.4612 73.4829C60.4612 72.7141 61.0105 72.2847 61.8549 72.2847C62.6993 72.2847 63.2486 72.7141 63.2486 73.4829C63.2486 74.2516 62.6993 74.681 61.8549 74.681Z" fill="#00A3FF"/>
<path d="M68.1892 74.5954V72.0519H67.8448V74.9144H70.3863V74.5954H68.1892Z" fill="#00A3FF"/>
<path d="M76.3759 75C77.4662 75 78.1221 74.4152 78.1221 73.4829C78.1221 72.5505 77.4662 71.9658 76.3759 71.9658C75.2855 71.9658 74.6296 72.5505 74.6296 73.4829C74.6296 74.4152 75.2855 75 76.3759 75ZM76.3759 74.681C75.5314 74.681 74.9822 74.2516 74.9822 73.4829C74.9822 72.7141 75.5314 72.2847 76.3759 72.2847C77.2203 72.2847 77.7696 72.7141 77.7696 73.4829C77.7696 74.2516 77.2203 74.681 76.3759 74.681Z" fill="#00A3FF"/>
<path d="M85.7394 73.4256H84.0916V73.7446H85.3951V74.1167C85.1819 74.5133 84.7146 74.681 84.1449 74.681C83.2677 74.681 82.7184 74.2762 82.7184 73.4829C82.7184 72.6896 83.2636 72.2847 84.1203 72.2847C84.6409 72.2847 85.0221 72.4483 85.2803 72.7713L85.5796 72.5628C85.2926 72.2275 84.8212 71.9658 84.1203 71.9658C83.0217 71.9658 82.3658 72.5505 82.3658 73.4829C82.3658 74.4152 83.0217 75 84.1326 75C84.9278 75 85.5017 74.6646 85.7394 74.2189V73.4256Z" fill="#00A3FF"/>
<path d="M89.9827 72.0519L91.4256 73.9125V74.9144H91.7699V73.9125L93.2087 72.0519H92.7988L91.6018 73.6018L90.3967 72.0519H89.9827Z" fill="#00A3FF"/>
<path d="M15.9693 64.6033H17.1507L9.16607 50.3794H7.98467L0 64.6033H1.18141L3.52385 60.3971H13.6065L15.9693 64.6033ZM4.05344 59.4217L8.555 51.3548L13.0769 59.4217H4.05344Z" fill="#414141"/>
<path d="M36.8382 50.3794V57.8368C36.8382 61.6163 34.5365 64.0343 30.5849 64.0343C26.613 64.0343 24.3113 61.6163 24.3113 57.8368V50.3794H23.2521V57.8977C23.2521 61.982 25.7778 65.03 30.5849 65.03C35.3717 65.03 37.8974 61.982 37.8974 57.8977V50.3794H36.8382Z" fill="#414141"/>
<path d="M61.8801 64.6033L56.8082 58.8731C59.5987 58.6699 61.432 57.1256 61.432 54.6263C61.432 51.9644 59.3136 50.3794 56.136 50.3794H46.7866V64.6033H47.8662V58.8934H55.5046L60.495 64.6033H61.8801ZM47.8458 57.9181V51.3548H56.0749C58.7025 51.3548 60.3524 52.513 60.3524 54.6263C60.3524 56.7598 58.7025 57.9181 56.0749 57.9181H47.8458Z" fill="#414141"/>
<path d="M70.6774 64.6033V50.3794H69.6182V64.6033H70.6774Z" fill="#414141"/>
<path d="M93.1396 50.3794V57.8368C93.1396 61.6163 90.8379 64.0343 86.8863 64.0343C82.9143 64.0343 80.6126 61.6163 80.6126 57.8368V50.3794H79.5534V57.8977C79.5534 61.982 82.0792 65.03 86.8863 65.03C91.673 65.03 94.1988 61.982 94.1988 57.8977V50.3794H93.1396Z" fill="#414141"/>
<path d="M109.81 56.8005C106.245 56.4754 103.271 55.947 103.271 53.976C103.271 51.8831 106.551 50.928 109.301 50.9484C111.826 50.9687 113.985 51.6189 115.411 53.1429L116.246 52.452C114.759 50.9484 112.356 49.9527 109.26 49.9527C105.593 49.9527 102.171 51.3954 102.171 53.9963C102.171 56.6786 105.756 57.4507 109.443 57.7961C113.537 58.1822 115.92 58.7309 115.92 60.7019C115.92 62.6323 113.741 64.0343 109.81 64.0343C106.775 64.0343 104.188 63.1606 102.436 61.2302L101.662 61.982C103.516 63.9937 106.469 65.03 109.769 65.03C114.433 65.03 117 63.1199 117 60.6409C117 57.979 114.067 57.1662 109.81 56.8005Z" fill="#414141"/>
<path d="M53.7517 0H63.3704L68.7431 12.0594L63.6946 23.7905L58.5611 11.6113L53.4273 23.7909L48.3788 12.0598L53.7517 0Z" fill="#6FCBFF"/>
<path d="M44.9946 19.6559L35.6459 40.6396H46.3255L50.6396 30.4046L44.9946 19.6559Z" fill="#6FCBFF"/>
<path d="M66.4824 30.4043L70.7966 40.6396H81.4762L72.1274 19.6556L66.4824 30.4043Z" fill="#6FCBFF"/>
</svg>
