<svg width="13" height="12" viewBox="0 0 13 12" fill="none" xmlns="http://www.w3.org/2000/svg">
<path d="M9.3371 12C8.95385 12 8.15059 11.936 7.07717 11.5072C5.75761 10.9801 4.45315 10.0774 3.20004 8.8243C0.708837 6.33307 -0.207159 4.48711 0.038482 2.45274C0.152211 1.4485 0.58641 0.94285 1.18735 0.338247C1.40561 0.120013 1.69297 0 1.99692 0C2.28727 0 2.55817 0.110965 2.75967 0.312499L4.56406 2.11688C4.99014 2.54447 4.97923 3.24957 4.53997 3.68883L4.02375 4.20432C3.84607 4.38176 3.81093 4.65728 3.93827 4.87435C4.34841 5.57328 4.72113 6.12516 5.31102 6.71603C5.83084 7.23588 6.36422 7.63488 7.15188 8.09311C7.23596 8.14205 7.33177 8.16785 7.42888 8.16785C7.57625 8.16785 7.71473 8.1106 7.81883 8.00661L8.33816 7.48807C8.55567 7.27056 8.84294 7.15076 9.14697 7.15076C9.4371 7.15076 9.70799 7.26149 9.90982 7.46256L11.7144 9.26726C12.1401 9.69444 12.1293 10.4 11.6905 10.8402C11.04 11.4767 10.5738 11.8709 9.57387 11.9897C9.54384 11.993 9.46477 12 9.3371 12ZM1.99692 0.349128C1.78625 0.349128 1.58655 0.432803 1.43459 0.584761C0.771564 1.2518 0.479082 1.66453 0.385224 2.49333C0.153898 4.40923 1.041 6.17154 3.44693 8.57744C6.2987 11.4292 8.67629 11.6509 9.33707 11.6509C9.45391 11.6509 9.52214 11.6442 9.53462 11.6429C10.3926 11.5409 10.7935 11.2295 11.4448 10.5923C11.7466 10.2895 11.7574 9.80503 11.4673 9.51398L9.66313 7.70974C9.52744 7.57457 9.34406 7.5 9.14694 7.5C8.93616 7.5 8.73657 7.5835 8.58491 7.73517L8.06552 8.25377C7.89549 8.42356 7.6694 8.5171 7.42886 8.5171C7.27015 8.51713 7.11365 8.47491 6.9763 8.39502C6.4085 8.06469 5.73733 7.63625 5.06401 6.9629C4.4478 6.34567 4.06119 5.77379 3.63712 5.05113C3.42927 4.69691 3.48682 4.24714 3.777 3.95737L4.29313 3.44197C4.59644 3.13866 4.60714 2.65489 4.31693 2.36363L2.51275 0.559478C2.3772 0.423783 2.194 0.349128 1.99692 0.349128Z" fill="#414141"/>
</svg>
