<svg width="14" height="14" viewBox="0 0 14 14" fill="none" xmlns="http://www.w3.org/2000/svg">
<path d="M9.26745 8.41736L9.2675 8.41731L9.33816 8.48807C9.55567 8.27056 9.84294 8.15076 10.147 8.15076C10.4371 8.15076 10.708 8.26149 10.9098 8.46256L9.26745 8.41736ZM9.26745 8.41736C9.50346 8.18135 9.81607 8.05076 10.147 8.05076C10.463 8.05076 10.7594 8.17159 10.9804 8.39171L10.9805 8.39185L12.7851 10.1965L12.7852 10.1967C13.2518 10.6649 13.237 11.4336 12.7613 11.9108L12.7605 11.9117C12.4351 12.23 12.1486 12.4953 11.8145 12.6949C11.4782 12.896 11.0979 13.0282 10.5857 13.089L10.5846 13.0892C10.5511 13.0928 10.4685 13.1 10.3371 13.1H10.3371H10.3371H10.3371H10.3371H10.3371H10.3371H10.337C9.9425 13.1 9.12655 13.034 8.04007 12.6C6.70522 12.0668 5.38973 11.1554 4.12933 9.89501C1.6317 7.39735 0.688022 5.52215 0.939159 3.44112C1.0568 2.40316 1.51052 1.87735 2.11642 1.26775L2.11664 1.26753C2.35334 1.03086 2.66601 0.9 2.99692 0.9C3.31323 0.9 3.60973 1.0211 3.83038 1.24179C3.83039 1.24179 3.83039 1.24179 3.83039 1.24179L5.63477 3.04617L5.63489 3.04629C6.10182 3.51488 6.087 4.28322 5.61068 4.75954L5.61063 4.75959L5.09442 5.27507C5.09441 5.27508 5.09441 5.27508 5.09441 5.27508C4.94907 5.42024 4.92015 5.64584 5.02453 5.82375C5.43245 6.5189 5.80023 7.06285 6.38179 7.64538C6.89424 8.15785 7.42029 8.55181 8.20217 9.00667L8.20218 9.00668C8.27098 9.04672 8.34943 9.06785 8.42888 9.06785C8.54979 9.06785 8.66285 9.02108 8.74816 8.93586L8.74817 8.93585L9.26745 8.41736ZM1.48459 3.50458L1.48451 3.50531C1.2589 5.37381 2.11754 7.10665 4.51764 9.50673C7.34931 12.3384 9.70084 12.5509 10.3371 12.5509H10.3371H10.3371H10.3371H10.3371H10.3371H10.3371H10.3371C10.4482 12.5509 10.5125 12.5447 10.5234 12.5435C10.9409 12.4938 11.2417 12.3941 11.5165 12.2321C11.7938 12.0687 12.0493 11.8394 12.3744 11.5213C12.6397 11.2546 12.6447 10.8338 12.3966 10.5847L1.48459 3.50458ZM1.48459 3.50458C1.53029 3.10103 1.62349 2.80444 1.78304 2.52843C1.94393 2.25011 2.175 1.98778 2.5054 1.65537C2.63901 1.52181 2.8134 1.44913 2.99692 1.44913C3.16831 1.44913 3.3258 1.51382 3.442 1.63015L3.44204 1.63019L5.24609 3.43421C5.24611 3.43423 5.24614 3.43425 5.24616 3.43427C5.49459 3.68367 5.48955 4.10413 5.22242 4.37126L4.70634 4.88661C4.38387 5.20863 4.32002 5.70831 4.55087 6.10174L4.63712 6.05113L4.55087 6.10174C4.97721 6.82826 5.36875 7.40803 5.99324 8.03355L5.9933 8.0336C6.67539 8.71573 7.35493 9.14921 7.92601 9.48146L7.92602 9.48146M1.48459 3.50458L7.92602 9.48146M7.92602 9.48146C8.07862 9.57022 8.25246 9.61713 8.42886 9.6171L7.92602 9.48146ZM10.5926 8.78059L12.3965 10.5846L8.42887 9.6171C8.69589 9.61709 8.94739 9.51306 9.13618 9.32453C9.13618 9.32453 9.13618 9.32453 9.13618 9.32453L9.65556 8.80593L9.65562 8.80588C9.7889 8.6726 9.96319 8.6 10.1469 8.6C10.3184 8.6 10.4761 8.66462 10.5924 8.78047C10.5925 8.78051 10.5925 8.78055 10.5926 8.78059Z" fill="white" stroke="white" stroke-width="0.2"/>
</svg>
