<svg width="24" height="25" viewBox="0 0 24 25" fill="none" xmlns="http://www.w3.org/2000/svg">
<path d="M19.9745 8.1088C20.8141 8.1121 21.6336 7.85172 22.3173 7.36438C23.0011 6.87704 23.5146 6.18733 23.7855 5.39251C24.0565 4.5977 24.0711 3.73789 23.8273 2.93433C23.5835 2.13078 23.0937 1.42403 22.4269 0.913745C21.7601 0.403465 20.9499 0.115405 20.1106 0.0901882C19.2714 0.0649719 18.4454 0.303872 17.7492 0.773197C17.0529 1.24252 16.5215 1.91859 16.23 2.70606C15.9384 3.49353 15.9014 4.35267 16.1241 5.16232L7.14701 9.65138C6.63611 8.99422 5.93268 8.51311 5.13504 8.27529C4.33739 8.03747 3.48538 8.05482 2.69808 8.32491C1.91077 8.595 1.22751 9.10435 0.743774 9.78176C0.260038 10.4592 0 11.2708 0 12.1032C0 12.9357 0.260038 13.7473 0.743774 14.4247C1.22751 15.1021 1.91077 15.6115 2.69808 15.8816C3.48538 16.1517 4.33739 16.169 5.13504 15.9312C5.93268 15.6934 6.63611 15.2123 7.14701 14.5551L16.1241 19.0442C15.8641 20.0084 15.9757 21.0352 16.4368 21.9211C16.8979 22.8069 17.6749 23.4873 18.6139 23.8273C19.5528 24.1673 20.5852 24.1422 21.5065 23.757C22.4279 23.3718 23.1709 22.6545 23.5885 21.7473C24.006 20.8401 24.0676 19.8091 23.7611 18.8586C23.4545 17.9081 22.8022 17.1074 21.9333 16.6152C21.0644 16.1229 20.0424 15.975 19.0696 16.2008C18.0969 16.4266 17.2444 17.0095 16.681 17.8341L7.77939 13.3828C8.0636 12.5534 8.0636 11.6531 7.77939 10.8237L16.681 6.37237C17.0474 6.90787 17.5388 7.34591 18.1128 7.64849C18.6867 7.95108 19.3257 8.10909 19.9745 8.1088Z" fill="#6ECBFF"/>
</svg>
