<svg width="14" height="14" viewBox="0 0 14 14" fill="none" xmlns="http://www.w3.org/2000/svg">
<path d="M2.43459 1.58476C1.77156 2.2518 1.47908 2.66453 1.38522 3.49333C1.1539 5.40923 2.041 7.17154 4.44693 9.57744C7.2987 12.4292 9.67629 12.6509 10.3371 12.6509H10.3371C10.454 12.6509 10.5221 12.6442 10.5346 12.6429L2.43459 1.58476ZM2.43459 1.58476L2.45226 1.60244C2.59964 1.45506 2.79302 1.37413 2.99692 1.37413C3.18758 1.37413 3.36435 1.44629 3.49507 1.57715L3.49508 1.57716M2.43459 1.58476L3.49508 1.57716M9.60258 8.75284L9.60257 8.75286L9.08318 9.27146C8.90847 9.44593 8.67602 9.5421 8.42886 9.5421C8.26573 9.54213 8.1049 9.49874 7.96373 9.41663C7.39511 9.08582 6.72184 8.65612 6.04633 7.98057L6.04632 7.98056C5.42804 7.36126 5.0402 6.78741 4.61556 6.06378C4.40196 5.69976 4.46108 5.23752 4.75934 4.93968L5.27545 4.42429L9.60258 8.75284ZM9.60258 8.75284C9.74965 8.60577 9.94292 8.525 10.1469 8.525C10.3376 8.525 10.5146 8.59708 10.6455 8.72742L9.60258 8.75284ZM3.49508 1.57716L5.29922 3.38127M3.49508 1.57716L5.29922 3.38127M5.29922 3.38127C5.579 3.66206 5.56972 4.13001 5.27547 4.42428L5.29922 3.38127ZM2.16967 1.32057L2.16962 1.32062C1.56744 1.92647 1.12836 2.43717 1.01365 3.44984C0.766637 5.49587 1.68955 7.34914 4.18236 9.84198C5.43729 11.0969 6.74451 12.0017 8.06789 12.5304C9.14458 12.9605 9.95097 13.025 10.337 13.025H10.3371H10.3371H10.3371H10.3371H10.3371H10.3371H10.3371C10.4657 13.025 10.5457 13.0179 10.5765 13.0146L10.5768 13.0146C11.0798 12.9548 11.4498 12.8255 11.776 12.6306C12.1017 12.4359 12.3827 12.1764 12.708 11.8581L12.7082 11.8579C13.1562 11.4084 13.168 10.6871 12.7321 10.2496L12.7321 10.2496L10.9275 8.44488L10.9275 8.44484C10.7209 8.23901 10.4436 8.12576 10.147 8.12576C9.83623 8.12576 9.54263 8.24826 9.3205 8.47038C9.32049 8.47038 9.32049 8.47039 9.32048 8.47039L8.80117 8.98892L8.80116 8.98893C8.70176 9.08822 8.56963 9.14285 8.42888 9.14285C8.33618 9.14285 8.24472 9.11821 8.16446 9.0715L8.15188 9.09311L8.16445 9.0715C7.37824 8.61411 6.84669 8.21638 6.32871 7.69837C5.74091 7.10958 5.36942 6.55968 4.95984 5.8617C4.83823 5.65442 4.87182 5.39138 5.04142 5.22201L5.55763 4.70652L5.55764 4.70651C6.00617 4.25798 6.01806 3.53708 5.58176 3.09923L5.58173 3.0992L3.77735 1.29482C3.57106 1.0885 3.29376 0.975 2.99692 0.975C2.68623 0.975 2.39254 1.09772 2.16967 1.32057ZM12.4496 10.5316C12.7292 10.8122 12.7199 11.2807 12.4272 11.5745L10.6455 8.72745L12.4496 10.5316Z" fill="#ffffff" stroke="#414141" stroke-width="0.06"/>
</svg>
