<?xml version="1.0" standalone="no"?>
<!DOCTYPE svg PUBLIC "-//W3C//DTD SVG 1.1//EN" "http://www.w3.org/Graphics/SVG/1.1/DTD/svg11.dtd" >
<svg xmlns="http://www.w3.org/2000/svg" xmlns:xlink="http://www.w3.org/1999/xlink" version="1.1">
<metadata></metadata>
<defs>
<font id="terminabold" horiz-adv-x="1505" >
<font-face units-per-em="2048" ascent="1638" descent="-410" />
<missing-glyph horiz-adv-x="534" />
<glyph unicode="&#xfb01;" horiz-adv-x="1798" d="M39 850v285h201q2 140 67 237.5t171.5 142t246.5 44.5q92 0 192.5 -18t169.5 -50l-57 -227q-103 47 -201 47q-96 0 -147 -37.5t-51 -106.5v-32h444v-285h-432v-850h-403v850h-201zM1219 1440q0 86 65 138t168 52q102 0 166.5 -52t64.5 -138t-64.5 -138.5t-166.5 -52.5 q-103 0 -168 52.5t-65 138.5zM1251 0v1135h406v-1135h-406z" />
<glyph unicode="&#xfb02;" horiz-adv-x="1802" d="M39 850v285h201q2 140 67 237.5t171.5 142t246.5 44.5q92 0 192.5 -18t169.5 -50l-57 -227q-103 47 -201 47q-96 0 -147 -37.5t-51 -106.5v-32h444v-285h-432v-850h-403v850h-201zM1251 0v1516h406v-1516h-406z" />
<glyph horiz-adv-x="0" />
<glyph horiz-adv-x="682" />
<glyph unicode=" "  horiz-adv-x="534" />
<glyph unicode="&#x09;" horiz-adv-x="534" />
<glyph unicode="&#xa0;" horiz-adv-x="534" />
<glyph unicode="!" horiz-adv-x="735" d="M127 1434h481l-65 -922h-350zM131 176q0 87 66.5 146t169.5 59q102 0 167.5 -59t65.5 -146q0 -88 -65.5 -145.5t-167.5 -57.5q-104 0 -170 57.5t-66 145.5z" />
<glyph unicode="&#x22;" horiz-adv-x="1153" d="M137 864v652h342v-652h-342zM674 864v652h342v-652h-342z" />
<glyph unicode="#" horiz-adv-x="1974" d="M80 346v246h344l78 276h-350v246h419l93 320h329l-90 -320h389l92 320h330l-92 -320h272v-246h-342l-77 -276h346v-246h-418l-98 -346h-330l98 346h-389l-100 -346h-330l98 346h-272zM754 592h389l80 276h-392z" />
<glyph unicode="$" horiz-adv-x="1847" d="M66 274l217 246q229 -182 563 -211v260q-126 13 -225 31t-195.5 50.5t-160 77t-102 112t-38.5 153.5q0 105 55 188t153 136.5t227.5 84t285.5 36.5v188h196v-190q395 -25 654 -209l-205 -248q-182 125 -449 147v-229q115 -10 202 -23t173 -34t146 -52t107 -74t70 -103 t23 -136q0 -214 -187 -340.5t-534 -138.5v-209h-196v211q-471 30 -780 276zM539 1022q0 -53 73.5 -75t233.5 -34v220q-307 -8 -307 -111zM1042 303q158 5 233 33.5t75 89.5q0 60 -67 85.5t-241 41.5v-250z" />
<glyph unicode="%" horiz-adv-x="1880" d="M49 1116q0 150 112.5 251t284.5 101t284 -101t112 -251t-112 -251t-284 -101t-284.5 101t-112.5 251zM244 0l1118 1434h274l-1116 -1434h-276zM283 1116q0 -72 44.5 -110.5t118.5 -38.5t119 38.5t45 110.5q0 70 -45 109t-119 39t-118.5 -39t-44.5 -109zM1038 317 q0 152 112 252.5t284 100.5t283.5 -100.5t111.5 -252.5q0 -150 -111.5 -251t-283.5 -101t-284 101t-112 251zM1270 317q0 -70 45.5 -108.5t118.5 -38.5q74 0 118.5 38.5t44.5 108.5q0 72 -44.5 111t-118.5 39q-73 0 -118.5 -39.5t-45.5 -110.5z" />
<glyph unicode="&#x26;" horiz-adv-x="1896" d="M92 446q0 120 76.5 213.5t218.5 149.5q-127 124 -127 260q0 176 158.5 291t433.5 115q490 0 723 -379l-336 -129q-81 127 -174 179t-201 52q-97 0 -156 -34.5t-59 -96.5q0 -51 42 -96t163 -140l479 -376q58 96 70 235h352q-15 -254 -168 -436l322 -254h-477l-84 63 q-200 -104 -486 -104q-164 0 -307 37t-244.5 101.5t-160 155t-58.5 193.5zM500 485q0 -115 106.5 -181t276.5 -66q104 0 202 28l-507 391q-78 -75 -78 -172z" />
<glyph unicode="'" horiz-adv-x="616" d="M137 864v652h342v-652h-342z" />
<glyph unicode="(" horiz-adv-x="958" d="M82 594q0 169 54 321.5t146.5 266t217.5 191.5t266 108l115 -258q-200 -62 -322.5 -223.5t-122.5 -405.5q0 -242 122.5 -405t322.5 -224l-115 -258q-141 30 -266 108t-217.5 191.5t-146.5 266t-54 321.5z" />
<glyph unicode=")" horiz-adv-x="958" d="M78 -35q200 61 322 223.5t122 405.5q0 244 -122 406t-322 223l115 258q141 -30 265.5 -108t216.5 -192t145.5 -266t53.5 -321t-53.5 -321t-145.5 -266t-216.5 -192t-265.5 -108z" />
<glyph unicode="*" horiz-adv-x="1288" d="M113 772v332l385 -76l-265 289l289 166l121 -383l123 383l287 -166l-262 -289l385 76v-332l-385 78l262 -291l-287 -166l-123 383l-121 -383l-289 166l265 291z" />
<glyph unicode="+" d="M133 469v305h461v391h319v-391h459v-305h-459v-393h-319v393h-461z" />
<glyph unicode="," horiz-adv-x="661" d="M94 178q0 86 65.5 144.5t164.5 58.5q111 0 178 -75t67 -183q0 -80 -33 -167.5t-107.5 -178t-178.5 -150.5l-82 115q82 61 131 119t68 127q-12 -15 -58 -15q-90 0 -152.5 58.5t-62.5 146.5z" />
<glyph unicode="-" horiz-adv-x="1245" d="M133 463v317h979v-317h-979z" />
<glyph unicode="." horiz-adv-x="653" d="M92 176q0 87 66.5 146t169.5 59q102 0 167.5 -59t65.5 -146q0 -88 -65.5 -145.5t-167.5 -57.5q-104 0 -170 57.5t-66 145.5z" />
<glyph unicode="/" horiz-adv-x="1576" d="M47 -205l1049 1802h434l-1049 -1802h-434z" />
<glyph unicode="0" horiz-adv-x="1959" d="M86 717q0 239 108.5 412t309.5 262.5t475 89.5q416 0 655.5 -202t239.5 -562t-239.5 -562t-655.5 -202q-274 0 -475 89.5t-309.5 262.5t-108.5 412zM510 717q0 -204 124 -314t347 -110q222 0 345.5 110t123.5 314t-123.5 314t-345.5 110q-223 0 -347 -110t-124 -314z" />
<glyph unicode="1" horiz-adv-x="1062" d="M49 854v332q138 20 283 88.5t248 159.5h315v-1434h-418v1001q-152 -100 -428 -147z" />
<glyph unicode="2" horiz-adv-x="1705" d="M74 0v180q28 209 214 376t503 261q201 64 255 89q110 56 115 118q0 68 -92 106.5t-219 38.5q-294 0 -528 -231l-228 219q115 142 321 231t453 89q134 0 258.5 -27t228 -79t166 -140t62.5 -199q0 -90 -39.5 -165t-115 -133.5t-170 -102.5t-218.5 -82 q-186 -58 -313.5 -119.5t-161.5 -114.5h1047v-315h-1538z" />
<glyph unicode="3" horiz-adv-x="1716" d="M47 287l285 186q179 -207 495 -207q70 0 131.5 9t114.5 28.5t84 55t31 83.5q0 49 -29 81.5t-84.5 48.5t-116.5 22t-145 6h-227v279h227q68 0 125 7.5t105.5 23t76 44.5t27.5 68q0 40 -28.5 70t-77.5 45.5t-104 22.5t-118 7q-306 0 -477 -202l-270 192 q118 149 316.5 234.5t445.5 85.5q117 0 223.5 -14.5t201 -46.5t164 -78.5t110 -114t40.5 -148.5q0 -127 -93.5 -220t-244.5 -112q80 -13 147.5 -38.5t124.5 -66t89 -102t32 -137.5q0 -139 -105.5 -241t-281 -151.5t-397.5 -49.5q-256 0 -463.5 88t-333.5 242z" />
<glyph unicode="4" horiz-adv-x="1826" d="M33 279v233l1089 922h373v-856h277v-299h-277v-279h-405v279h-1057zM545 578h547v464z" />
<glyph unicode="5" horiz-adv-x="1736" d="M59 229l222 246q95 -78 253.5 -136t344.5 -58q366 0 366 180q0 190 -381 190q-235 0 -440 -88l-299 113l123 758h1274v-310h-961l-49 -309q219 133 508 133q100 0 193 -18t177 -57.5t146 -96t98.5 -139t36.5 -180.5q0 -83 -28 -156.5t-90 -137.5t-153 -110.5t-224.5 -73 t-296.5 -26.5q-497 0 -820 276z" />
<glyph unicode="6" horiz-adv-x="1843" d="M86 717q0 353 238.5 558.5t650.5 205.5q244 0 433.5 -64t317.5 -178l-225 -227q-192 168 -481 168q-480 0 -510 -404q106 85 258 128.5t311 43.5q95 0 187.5 -15t184 -51t160 -89t111.5 -135.5t43 -184.5q0 -112 -52.5 -207t-151 -165t-249 -109t-337.5 -39 q-412 0 -650.5 205.5t-238.5 558.5zM530 530q79 -276 445 -276q172 0 271.5 54t99.5 161q0 203 -355 203q-121 0 -244.5 -37t-216.5 -105z" />
<glyph unicode="7" horiz-adv-x="1587" d="M41 1106v328h1513v-254l-778 -1180h-471l748 1106h-1012z" />
<glyph unicode="8" horiz-adv-x="1837" d="M88 399q0 100 58 176t144 116.5t195 58.5q-155 17 -248.5 106t-93.5 217q0 100 61.5 179t169 128.5t246 75t298.5 25.5t299 -25.5t246 -75t169 -128.5t62 -179q0 -127 -94 -216.5t-246 -106.5q79 -13 147 -40t125 -69t90 -104.5t33 -137.5q0 -139 -106 -240.5 t-293 -153.5t-432 -52q-244 0 -430.5 52t-293 153.5t-106.5 240.5zM522 428q0 -63 54.5 -107t141.5 -63.5t200 -19.5q85 0 155.5 11t125.5 33t85.5 59.5t30.5 86.5q0 64 -54.5 107.5t-141 62t-201.5 18.5q-114 0 -200.5 -18.5t-141 -62t-54.5 -107.5zM563 1032q0 -55 51 -93 t129 -54.5t175 -16.5q99 0 177 16.5t128.5 54.5t50.5 93t-50.5 93t-128.5 54.5t-177 16.5q-97 0 -175 -16.5t-129 -54.5t-51 -93z" />
<glyph unicode="9" horiz-adv-x="1843" d="M78 961q0 112 52.5 207t151 165t249 109t337.5 39q412 0 650.5 -205.5t238.5 -558.5t-238.5 -558.5t-650.5 -205.5q-244 0 -433.5 64t-317.5 178l225 227q95 -83 219.5 -125.5t261.5 -42.5q108 0 193.5 20.5t155 65.5t111 125t50.5 192q-106 -84 -258.5 -128t-310.5 -44 q-95 0 -187.5 15.5t-184 51.5t-160 89t-111.5 135.5t-43 184.5zM498 965q0 -203 354 -203q122 0 245 36t216 103q-79 279 -445 279q-172 0 -271 -54t-99 -161z" />
<glyph unicode=":" horiz-adv-x="653" d="M92 176q0 87 66.5 146t169.5 59q102 0 167.5 -59t65.5 -146q0 -88 -65.5 -145.5t-167.5 -57.5q-104 0 -170 57.5t-66 145.5zM92 958q0 87 66.5 146t169.5 59q102 0 167.5 -59t65.5 -146q0 -88 -65.5 -146t-167.5 -58q-104 0 -170 58t-66 146z" />
<glyph unicode=";" horiz-adv-x="661" d="M92 958q0 87 66.5 146t169.5 59q102 0 167.5 -59t65.5 -146q0 -88 -65.5 -146t-167.5 -58q-104 0 -170 58t-66 146zM94 178q0 86 65.5 144.5t164.5 58.5q111 0 178 -75t67 -183q0 -80 -33 -167.5t-107.5 -178t-178.5 -150.5l-82 115q82 61 131 119t68 127 q-12 -15 -58 -15q-90 0 -152.5 58.5t-62.5 146.5z" />
<glyph unicode="&#x3c;" d="M158 442l1140 -395v324l-806 237l806 238v323l-1140 -393v-334z" />
<glyph unicode="=" d="M133 219v307h1239v-307h-1239zM133 756v307h1239v-307h-1239z" />
<glyph unicode="&#x3e;" d="M207 47l1141 395v334l-1141 393v-323l807 -238l-807 -237v-324z" />
<glyph unicode="?" horiz-adv-x="1564" d="M51 1182q295 295 729 295q105 0 204 -16t190 -50.5t159.5 -84.5t109 -123.5t40.5 -162.5q0 -177 -150.5 -277t-398.5 -116v-164h-320v351q230 26 336.5 69.5t106.5 126.5q0 41 -24.5 70t-67 44.5t-91 22.5t-106.5 7q-298 0 -502 -216zM537 176q0 87 66 146t169 59 q102 0 168 -59t66 -146q0 -88 -66 -145.5t-168 -57.5q-104 0 -169.5 57.5t-65.5 145.5z" />
<glyph unicode="@" horiz-adv-x="2308" d="M86 567q0 186 74.5 344t210.5 270.5t336 176t442 63.5q241 0 440.5 -63.5t335.5 -176t210.5 -270.5t74.5 -344q0 -136 -26.5 -233.5t-77 -155.5t-119 -85t-158.5 -27q-133 0 -236 55t-153 149q-73 -103 -196 -159t-261 -56q-152 0 -276 63t-196.5 181t-72.5 270 q0 153 72.5 270.5t196 179.5t276.5 62q136 0 252 -55t190 -160l68 178h264v-608q0 -126 38 -179.5t97 -53.5q80 0 128 98t48 266q0 145 -47.5 265t-131.5 204t-200 142.5t-251.5 86t-288.5 27.5t-288.5 -27.5t-252 -86t-200.5 -142.5t-131.5 -204t-47.5 -265t47.5 -265.5 t131.5 -204.5t200.5 -142t252 -85.5t288.5 -27.5q389 0 602 144l68 -107q-207 -166 -670 -166q-242 0 -442 63.5t-336 176t-210.5 270.5t-74.5 344zM780 565q0 -121 83.5 -193.5t223.5 -72.5q221 0 328 184v166q-107 182 -328 182q-141 0 -224 -72t-83 -194z" />
<glyph unicode="A" horiz-adv-x="1921" d="M-8 0l741 1434h457l741 -1434h-444l-135 274h-787l-135 -274h-438zM709 571h497l-248 508z" />
<glyph unicode="B" horiz-adv-x="1929" d="M168 0v1434h1026q265 0 420 -100t155 -271q0 -128 -86 -217t-241 -98q178 -11 293.5 -103.5t115.5 -251.5q0 -185 -154.5 -289t-420.5 -104h-1108zM582 291h606q117 0 176 33.5t59 117.5t-58.5 117t-176.5 33h-606v-301zM582 862h542q113 0 172.5 31.5t59.5 110.5 q0 77 -59.5 108t-172.5 31h-542v-281z" />
<glyph unicode="C" horiz-adv-x="1839" d="M86 717q0 238 114.5 411.5t322 263t485.5 89.5q267 0 475.5 -105.5t310.5 -267.5l-360 -184q-139 217 -433 217q-225 0 -358 -111t-133 -313t133 -313t358 -111q299 0 441 219l358 -184q-105 -166 -317.5 -270.5t-491.5 -104.5q-271 0 -474.5 89.5t-317 263t-113.5 411.5 z" />
<glyph unicode="D" horiz-adv-x="1955" d="M168 0v1434h801q416 0 658.5 -190.5t242.5 -526.5t-242.5 -526.5t-658.5 -190.5h-801zM586 332h350q236 0 372 99t136 286t-136 286t-372 99h-350v-770z" />
<glyph unicode="E" horiz-adv-x="1781" d="M168 0v1434h1507v-320h-1095v-235h903v-306h-903v-254h1118v-319h-1530z" />
<glyph unicode="F" horiz-adv-x="1718" d="M168 0v1434h1501v-330h-1083v-273h905v-325h-905v-506h-418z" />
<glyph unicode="G" horiz-adv-x="1955" d="M86 717q0 361 254 562.5t698 201.5q248 0 441.5 -74t318.5 -190l-305 -226q-93 84 -197 122t-247 38q-261 0 -400 -111.5t-139 -322.5t141.5 -323.5t403.5 -112.5q277 0 415 127v129h-475v292h863v-559q-119 -147 -330 -232t-490 -85q-444 0 -698 201.5t-254 562.5z" />
<glyph unicode="H" horiz-adv-x="2031" d="M168 0v1434h418v-535h860v535h418v-1434h-418v555h-860v-555h-418z" />
<glyph unicode="I" horiz-adv-x="755" d="M168 0v1434h418v-1434h-418z" />
<glyph unicode="J" horiz-adv-x="1517" d="M-12 217l280 244q67 -85 148.5 -124.5t199.5 -39.5q342 0 342 367v770h418v-803q0 -150 -48.5 -273.5t-141 -214t-237 -140.5t-328.5 -50q-415 0 -633 264z" />
<glyph unicode="K" horiz-adv-x="1857" d="M168 0v1434h418v-664l733 664h520l-637 -572l674 -862h-492l-481 616l-317 -282v-334h-418z" />
<glyph unicode="L" horiz-adv-x="1585" d="M168 0v1434h418v-1098h964v-336h-1382z" />
<glyph unicode="M" horiz-adv-x="2318" d="M168 0v1434h457l538 -689l543 689h444v-1434h-415v915l-572 -700h-20l-572 700v-915h-403z" />
<glyph unicode="N" horiz-adv-x="2031" d="M168 0v1434h442l850 -877v877h404v-1434h-367l-926 942v-942h-403z" />
<glyph unicode="O" horiz-adv-x="2041" d="M86 717q0 239 115.5 412.5t325.5 262.5t493 89q284 0 494 -89t326 -262.5t116 -412.5t-116 -412.5t-326 -262.5t-494 -89q-283 0 -493 89t-325.5 262.5t-115.5 412.5zM510 717q0 -201 136 -312.5t374 -111.5t374 111.5t136 312.5t-136 312.5t-374 111.5 q-237 0 -373.5 -111.5t-136.5 -312.5z" />
<glyph unicode="P" horiz-adv-x="1865" d="M168 0v1434h995q300 0 476 -130t176 -372q0 -164 -82 -278t-227 -169t-343 -55h-577v-430h-418zM586 733h542q263 0 263 191q0 103 -68.5 147.5t-194.5 44.5h-542v-383z" />
<glyph unicode="Q" horiz-adv-x="2041" d="M86 717q0 239 115.5 412.5t325.5 262.5t493 89q284 0 494 -89t326 -262.5t116 -412.5q0 -370 -270 -576l178 -190l-199 -168l-219 233q-192 -63 -426 -63q-283 0 -493 89t-325.5 262.5t-115.5 412.5zM510 717q0 -201 136 -312.5t374 -111.5q88 0 154 14l-175 187l201 170 l219 -236q111 108 111 289q0 201 -136 312.5t-374 111.5q-237 0 -373.5 -111.5t-136.5 -312.5z" />
<glyph unicode="R" horiz-adv-x="1925" d="M168 0v1434h1006q139 0 256.5 -31t206 -90.5t138.5 -154t50 -214.5q0 -174 -100.5 -289.5t-276.5 -167.5l422 -487h-486l-378 453h-422v-453h-416zM582 756h561q123 0 190.5 41t67.5 139t-67.5 139t-190.5 41h-561v-360z" />
<glyph unicode="S" horiz-adv-x="1814" d="M51 233l219 259q266 -224 693 -224q368 0 368 140q0 67 -89.5 97.5t-319.5 49.5q-114 10 -208.5 24.5t-190.5 38t-168 57.5t-129 80t-87 109.5t-30 141.5q0 150 102 258.5t278 162.5t406 54q232 0 435.5 -54.5t350.5 -158.5l-211 -260q-221 156 -575 159q-69 0 -130 -6 t-117.5 -20t-90 -40.5t-33.5 -62.5q0 -35 25.5 -57.5t94 -36t124.5 -19.5t178 -16q106 -9 192.5 -20.5t171 -30t149 -43t120.5 -59.5t92 -78.5t56 -101t20 -127.5q0 -227 -206 -361.5t-587 -134.5q-553 0 -903 280z" />
<glyph unicode="T" horiz-adv-x="1669" d="M33 1100v334h1605v-334h-596v-1100h-417v1100h-592z" />
<glyph unicode="U" horiz-adv-x="1951" d="M143 676v758h418v-725q0 -192 106.5 -302t309.5 -110t308.5 110t105.5 302v725h417v-758q0 -332 -218 -527.5t-613 -195.5q-198 0 -355.5 51.5t-262.5 146.5t-160.5 228.5t-55.5 296.5z" />
<glyph unicode="V" horiz-adv-x="1822" d="M-8 1434h450l473 -1033l471 1033h447l-703 -1434h-438z" />
<glyph unicode="W" horiz-adv-x="2580" d="M18 1434h428l314 -985l342 985h385l342 -985l313 985h420l-522 -1434h-416l-334 997l-336 -997h-411z" />
<glyph unicode="X" horiz-adv-x="1765" d="M-8 0l649 727l-635 707h502l389 -439l387 439h477l-637 -701l652 -733h-502l-404 457l-403 -457h-475z" />
<glyph unicode="Y" horiz-adv-x="1748" d="M-8 1434h467l418 -619l415 619h465l-674 -951v-483h-417v483z" />
<glyph unicode="Z" horiz-adv-x="1787" d="M78 0v262l987 850h-950v322h1558v-263l-985 -849h1018v-322h-1628z" />
<glyph unicode="[" horiz-adv-x="950" d="M168 -246v1680h704v-277h-368v-1126h368v-277h-704z" />
<glyph unicode="\" horiz-adv-x="1576" d="M47 1597h434l1047 -1802h-432z" />
<glyph unicode="]" horiz-adv-x="950" d="M78 31h368v1126h-368v277h704v-1680h-704v277z" />
<glyph unicode="^" d="M152 532h331l269 596l266 -596h334l-447 902h-309z" />
<glyph unicode="_" horiz-adv-x="1374" d="M2 -88h1368v-283h-1368v283z" />
<glyph unicode="`" horiz-adv-x="1226" d="M205 1942h502l280 -345h-297z" />
<glyph unicode="a" horiz-adv-x="1581" d="M57 344q0 84 34 151.5t88.5 110t127.5 71.5t146 40.5t149 11.5q145 0 261 -44.5t184 -117.5v74q0 254 -375 254q-233 0 -408 -88l-92 256q113 54 273 85.5t311 31.5q326 0 508 -141t182 -402v-422q0 -123 49 -215h-410q-38 58 -38 117v2q-68 -71 -184.5 -115.5 t-260.5 -44.5q-76 0 -149 11.5t-146 40.5t-127.5 71.5t-88.5 110t-34 151.5zM449 344q0 -43 25 -74t67 -46.5t85 -22t91 -6.5q240 0 338 139v22q-99 138 -338 138q-48 0 -91 -7t-85 -22.5t-67 -46.5t-25 -74z" />
<glyph unicode="b" horiz-adv-x="1693" d="M143 0v1516h404v-547q77 98 196 152.5t271 54.5q270 0 436 -165t166 -444t-166 -444.5t-436 -165.5q-151 0 -270.5 55.5t-196.5 153.5v-166h-404zM549 430q125 -162 352 -162q159 0 245.5 78t86.5 221q0 142 -86.5 220.5t-245.5 78.5q-228 0 -352 -161v-275z" />
<glyph unicode="c" horiz-adv-x="1499" d="M76 567q0 284 197.5 449.5t537.5 165.5q242 0 406 -91t239 -235l-346 -139q-80 155 -295 155q-160 0 -256 -79t-96 -226q0 -146 96.5 -225.5t255.5 -79.5q217 0 303 162l346 -141q-76 -146 -242.5 -238t-410.5 -92q-339 0 -537 165.5t-198 448.5z" />
<glyph unicode="d" horiz-adv-x="1693" d="M78 567q0 279 166 444t436 165q152 0 271 -54.5t196 -152.5v547h403v-1516h-403v166q-77 -98 -196.5 -153.5t-270.5 -55.5q-270 0 -436 165.5t-166 444.5zM461 567q0 -143 86.5 -221t245.5 -78q230 0 352 162v275q-121 161 -352 161q-159 0 -245.5 -78.5t-86.5 -220.5z " />
<glyph unicode="e" horiz-adv-x="1574" d="M76 567q0 286 195 450.5t536 164.5q208 0 363.5 -67t246 -205.5t90.5 -334.5q0 -65 -10 -94h-1036q24 -126 123.5 -183.5t275.5 -57.5q130 0 222 31t180 98l204 -215q-228 -201 -628 -201q-359 0 -560.5 163.5t-201.5 450.5zM471 698l664 4q-64 197 -324 197 q-274 0 -340 -201z" />
<glyph unicode="f" horiz-adv-x="1105" d="M39 850v285h201q2 140 67 237.5t171.5 142t246.5 44.5q92 0 192.5 -18t169.5 -50l-57 -227q-103 47 -201 47q-96 0 -147 -37.5t-51 -106.5v-32h444v-285h-432v-850h-403v850h-201z" />
<glyph unicode="g" horiz-adv-x="1693" d="M76 592q0 271 163 427.5t437 156.5q149 0 270 -52t199 -155v166h405v-934q0 -144 -45 -258.5t-118 -187t-173 -120t-203.5 -67t-215.5 -19.5q-159 0 -331.5 36.5t-277.5 95.5l107 268q76 -47 199.5 -78t255.5 -31q200 0 298.5 74.5t98.5 212.5v90q-77 -102 -201 -154.5 t-268 -52.5q-274 0 -437 156t-163 426zM463 592q0 -134 85.5 -211.5t242.5 -77.5q219 0 356 182v213q-133 183 -356 183q-158 0 -243 -77t-85 -212z" />
<glyph unicode="h" horiz-adv-x="1650" d="M143 0v1135v381h404v-406v-156q72 106 193.5 164t273.5 58q242 0 375 -139.5t133 -368.5v-668h-404v641q0 111 -61 172t-176 61q-209 0 -334 -202v-672h-404z" />
<glyph unicode="i" horiz-adv-x="690" d="M113 1440q0 86 65 138t168 52q102 0 167 -52.5t65 -137.5q0 -86 -65 -138.5t-167 -52.5q-103 0 -168 52.5t-65 138.5zM145 0v1135h406v-1135h-406z" />
<glyph unicode="j" horiz-adv-x="690" d="M-190 -403l63 258q67 -23 121 -23q66 0 106.5 40.5t40.5 113.5v1149h406v-1137q0 -209 -124 -330t-333 -121q-138 0 -280 50zM113 1440q0 86 65 138t168 52q102 0 167 -52.5t65 -137.5q0 -86 -65 -138.5t-167 -52.5q-103 0 -168 52.5t-65 138.5z" />
<glyph unicode="k" horiz-adv-x="1533" d="M143 0v1516h404v-879l520 498h453l-473 -459l501 -676h-434l-342 459l-225 -201v-258h-404z" />
<glyph unicode="l" horiz-adv-x="696" d="M145 0v1516h406v-1516h-406z" />
<glyph unicode="m" horiz-adv-x="2529" d="M143 0v1135h404v-185q69 109 182.5 167.5t259.5 58.5q173 0 286.5 -77t162.5 -212q59 131 183.5 210t295.5 79q237 0 360 -140t123 -368v-668h-401v645q0 108 -56.5 168.5t-166.5 60.5q-191 0 -303 -202v-4v-457l2 -211h-404v645q0 108 -56.5 168.5t-166.5 60.5 q-189 0 -301 -198v-676h-404z" />
<glyph unicode="n" horiz-adv-x="1650" d="M143 0v1135h404v-181q72 106 193.5 164t273.5 58q242 0 375 -139.5t133 -368.5v-668h-404v641q0 111 -61 172t-176 61q-209 0 -334 -202v-672h-404z" />
<glyph unicode="o" horiz-adv-x="1636" d="M76 567q0 285 199.5 449t543.5 164q342 0 542 -164t200 -449q0 -284 -200 -449t-542 -165q-343 0 -543 165t-200 449zM463 567q0 -145 98 -224t258 -79t258.5 79t98.5 224q0 146 -98 224.5t-259 78.5t-258.5 -78.5t-97.5 -224.5z" />
<glyph unicode="p" horiz-adv-x="1693" d="M143 -410v1545h404v-166q77 98 196.5 153.5t270.5 55.5q270 0 436 -165.5t166 -445.5q0 -279 -166 -443.5t-436 -164.5q-152 0 -271 55t-196 154v-578h-404zM549 430q127 -162 352 -162q159 0 245.5 78.5t86.5 220.5q0 143 -86.5 222t-245.5 79q-226 0 -352 -161v-277z " />
<glyph unicode="q" horiz-adv-x="1693" d="M76 567q0 280 166 445.5t436 165.5q151 0 271 -55.5t196 -153.5v166h405v-1545h-405v578q-75 -99 -195 -154t-272 -55q-270 0 -436 164.5t-166 443.5zM459 567q0 -142 86.5 -220.5t245.5 -78.5q227 0 354 162v277q-126 161 -354 161q-159 0 -245.5 -79t-86.5 -222z" />
<glyph unicode="r" horiz-adv-x="1056" d="M143 0v1135h404v-211q69 117 193.5 177t281.5 60v-336q-185 0 -308 -70.5t-167 -207.5v-547h-404z" />
<glyph unicode="s" horiz-adv-x="1478" d="M49 164l176 219q98 -71 239.5 -113.5t313.5 -42.5q266 0 266 92q0 48 -71.5 71t-235.5 32q-104 7 -193 22.5t-174 44t-144.5 68.5t-95.5 100.5t-36 135.5q0 177 173.5 283t484.5 106q178 0 340 -42.5t280 -113.5l-172 -229q-184 112 -459 112q-51 0 -95.5 -4t-85.5 -13.5 t-65 -27.5t-24 -43q0 -47 73 -64t240 -26q140 -8 252.5 -32.5t200.5 -68.5t136 -113.5t48 -160.5q0 -176 -168.5 -289.5t-486.5 -113.5q-217 0 -403.5 58t-313.5 153z" />
<glyph unicode="t" horiz-adv-x="1130" d="M39 850v285h201v264h403v-264h436v-285h-436v-410q0 -75 50.5 -118t133.5 -43q84 0 197 53l68 -264q-75 -51 -185 -81t-215 -30q-201 0 -326.5 108.5t-125.5 307.5v477h-201z" />
<glyph unicode="u" horiz-adv-x="1650" d="M129 467v668h403v-641q0 -111 61.5 -172.5t176.5 -61.5q208 0 334 203v672h403v-1135h-403v180q-72 -106 -193.5 -163.5t-273.5 -57.5q-242 0 -375 139.5t-133 368.5z" />
<glyph unicode="v" horiz-adv-x="1536" d="M6 1135h424l342 -762l342 762h418l-555 -1135h-416z" />
<glyph unicode="w" horiz-adv-x="2144" d="M25 1135h389l235 -725l248 725h356l248 -725l236 725h383l-404 -1135h-385l-258 754l-260 -754h-387z" />
<glyph unicode="x" horiz-adv-x="1478" d="M6 0l504 575l-494 560h455l279 -332l278 332h432l-491 -553l506 -582h-457l-287 346l-293 -346h-432z" />
<glyph unicode="y" horiz-adv-x="1517" d="M6 1135h416l346 -705l334 705h409l-794 -1545h-408l258 473z" />
<glyph unicode="z" horiz-adv-x="1452" d="M74 -2v242l719 602h-691v293h1246v-240l-719 -602h743v-295h-1298z" />
<glyph unicode="{" horiz-adv-x="1058" d="M10 508v174q84 0 147 16t113.5 54t76.5 106t26 166q0 410 495 410h113v-277h-61q-91 0 -149 -58.5t-58 -178.5q0 -141 -79.5 -230.5t-219.5 -93.5q140 -7 219.5 -97.5t79.5 -230.5q0 -119 58.5 -178t148.5 -59h61v-277h-113q-110 0 -197.5 21.5t-155.5 68.5t-105 128.5 t-37 193.5q0 98 -26 166t-76.5 106t-113.5 54t-147 16z" />
<glyph unicode="|" horiz-adv-x="702" d="M164 -246v1680h377v-1680h-377z" />
<glyph unicode="}" horiz-adv-x="1058" d="M78 31h61q90 0 148.5 59t58.5 178q0 140 79.5 230.5t219.5 97.5q-140 4 -219.5 93.5t-79.5 230.5q0 120 -58 178.5t-149 58.5h-61v277h112q496 0 496 -410q0 -98 26 -166t76.5 -106t113.5 -54t147 -16v-174q-84 0 -147 -16t-113.5 -54t-76.5 -106t-26 -166 q0 -90 -24.5 -160.5t-68 -117.5t-107 -77.5t-136 -43.5t-160.5 -13h-112v277z" />
<glyph unicode="~" d="M137 686q55 63 144 104t194 41q95 0 263 -51t257 -51q131 0 213 92l164 -264q-56 -62 -146 -102.5t-192 -40.5q-96 0 -264 51t-256 51q-72 0 -119.5 -22.5t-97.5 -69.5z" />
<glyph unicode="&#xa1;" horiz-adv-x="735" d="M127 -410l66 922h350l65 -922h-481zM131 848q0 88 66 145.5t170 57.5q102 0 167.5 -57.5t65.5 -145.5q0 -87 -65.5 -146t-167.5 -59q-103 0 -169.5 59t-66.5 146z" />
<glyph unicode="&#xa2;" horiz-adv-x="1484" d="M90 717q0 256 162.5 404t449.5 169v144h172v-144q199 -14 336 -96.5t203 -208.5l-291 -121q-76 129 -248 152v-598q167 26 248 153l291 -118q-65 -128 -202.5 -211t-336.5 -97v-145h-172v145q-287 21 -449.5 168.5t-162.5 403.5zM442 717q0 -121 69.5 -197t190.5 -98v590 q-121 -22 -190.5 -98t-69.5 -197z" />
<glyph unicode="&#xa3;" horiz-adv-x="1581" d="M90 0v283h262v313h-262v244h262v82q0 109 41 208.5t118 178.5t199 126.5t271 47.5q156 0 287.5 -50.5t206.5 -125.5l-150 -248q-61 53 -125 78.5t-149 25.5q-144 0 -219.5 -73.5t-75.5 -210.5v-39h614v-244h-614v-313h733v-283h-1137h-262z" />
<glyph unicode="&#xa4;" horiz-adv-x="1632" d="M106 188l193 191q-115 146 -115 350q0 185 95 322l-173 170l181 163l180 -167q149 79 350 79q199 0 348 -79l183 167l178 -163l-170 -170q94 -140 94 -322q0 -205 -117 -350l193 -191l-178 -163l-215 200q-138 -63 -316 -63q-179 0 -317 63l-213 -200zM489 729 q0 -140 91 -219.5t237 -79.5q145 0 236.5 80t91.5 219t-91.5 219t-236.5 80q-146 0 -237 -79.5t-91 -219.5z" />
<glyph unicode="&#xa5;" horiz-adv-x="1812" d="M55 1434h461l393 -611l391 611h457l-502 -711h289v-164h-403l-25 -35v-96h428v-162h-428v-266h-418v266h-430v162h430v96l-24 35h-406v164h291z" />
<glyph unicode="&#xa6;" horiz-adv-x="702" d="M164 -246v686h377v-686h-377zM164 758v676h377v-676h-377z" />
<glyph unicode="&#xa7;" horiz-adv-x="1523" d="M76 -88l172 211q233 -160 532 -160q126 0 202.5 28t76.5 83t-72 78t-239 36q-103 7 -188 21.5t-168 42.5t-140 68t-92 101t-35 138q0 176 166 291q-162 88 -162 252q0 181 177 281t466 100q177 0 336.5 -44t275.5 -120l-172 -207q-177 113 -440 113q-75 1 -135 -7 t-104 -32.5t-44 -63.5q0 -52 77 -72.5t239 -31.5q111 -7 200.5 -21.5t170 -42t134.5 -66t85.5 -96t31.5 -130.5q0 -190 -151 -306q147 -81 147 -243q0 -85 -41 -158t-120.5 -129.5t-205.5 -88.5t-286 -32q-397 0 -694 207zM487 598q0 -119 312 -139l92 -6q80 18 125 59 t45 92q0 123 -291 144q-9 0 -28.5 1t-28.5 1q-98 -9 -162 -50t-64 -102z" />
<glyph unicode="&#xa8;" horiz-adv-x="1226" d="M133 1759q0 73 54 117.5t139 44.5q84 0 138 -44.5t54 -117.5t-54 -118.5t-138 -45.5q-85 0 -139 45.5t-54 118.5zM709 1759q0 73 53.5 117.5t138.5 44.5q84 0 138.5 -44.5t54.5 -117.5t-54.5 -118.5t-138.5 -45.5q-85 0 -138.5 45.5t-53.5 118.5z" />
<glyph unicode="&#xa9;" horiz-adv-x="2025" d="M86 717q0 228 114 401t325 268t489 95q277 0 487.5 -95t324 -268t113.5 -401t-113.5 -401t-324 -268t-487.5 -95q-278 0 -489 95t-325 268t-114 401zM190 717q0 -157 61 -283.5t170.5 -210t260.5 -128t332 -44.5q242 0 425.5 76.5t288.5 228.5t105 361t-105 361 t-288.5 229t-425.5 77t-427 -77t-291 -229t-106 -361zM385 719q0 248 171.5 389t451.5 141q205 0 350 -75t215 -191l-252 -119q-57 77 -126.5 110.5t-162.5 33.5q-151 0 -238 -77t-87 -212t87 -212t238 -77q94 0 163.5 35t127.5 113l264 -121q-80 -119 -227 -194t-352 -75 q-280 0 -451.5 141.5t-171.5 389.5z" />
<glyph unicode="&#xaa;" horiz-adv-x="1189" d="M78 885q0 72 35 127t92 85t120 44t130 14q103 0 184.5 -32t122.5 -89v62q0 89 -64 135.5t-186 46.5q-149 0 -293 -72l-61 189q80 37 191 58.5t216 21.5q228 0 355 -99.5t127 -283.5v-297q0 -87 43 -152h-295q-33 36 -33 86v4q-41 -57 -122.5 -88t-184.5 -31 q-67 0 -130 14.5t-120 44.5t-92 85t-35 127zM358 885q0 -41 32 -66.5t69.5 -33t81.5 -7.5q164 0 225 96v19q-61 98 -225 98q-32 0 -60.5 -4.5t-58 -15t-47 -33t-17.5 -53.5z" />
<glyph unicode="&#xab;" horiz-adv-x="1540" d="M59 623l433 -459h376l-432 459l432 458h-376zM647 623l432 -459h377l-432 459l432 458h-377z" />
<glyph unicode="&#xac;" d="M100 453v292h1280v-636h-333v344h-947z" />
<glyph unicode="&#xad;" horiz-adv-x="1245" d="M133 463v317h979v-317h-979z" />
<glyph unicode="&#xae;" horiz-adv-x="1181" d="M90 1014q0 133 70 235t182.5 153.5t247.5 51.5t248.5 -51.5t184.5 -153.5t71 -235q0 -101 -41.5 -185t-111 -139.5t-160.5 -86t-191 -30.5t-190.5 30.5t-159.5 86t-109.5 139.5t-40.5 185zM164 1014q0 -117 59 -203.5t155 -129t214 -42.5t213.5 42.5t155 129t59.5 203.5 q0 118 -59.5 204.5t-155 128.5t-213.5 42q-183 0 -305.5 -99.5t-122.5 -275.5zM344 801v450h311q93 0 151 -40t58 -115q0 -54 -32 -91.5t-87 -52.5l132 -151h-164l-119 139h-105v-139h-145zM489 1036h144q82 0 82 56q0 31 -20 44t-62 13h-144v-113z" />
<glyph unicode="&#xaf;" horiz-adv-x="1226" d="M137 1626v272h953v-272h-953z" />
<glyph unicode="&#xb0;" horiz-adv-x="870" d="M78 1167q0 136 100 218.5t256 82.5q159 0 260 -82.5t101 -218.5t-101 -218.5t-260 -82.5q-156 0 -256 82.5t-100 218.5zM276 1167q0 -63 43 -100t115 -37q74 0 117 37t43 100t-43.5 100.5t-116.5 37.5q-72 0 -115 -37.5t-43 -100.5z" />
<glyph unicode="&#xb1;" d="M133 18v275h1239v-275h-1239zM133 743v275h467v358h303v-358h469v-275h-469v-360h-303v360h-467z" />
<glyph unicode="&#xb2;" horiz-adv-x="991" d="M51 936v117q15 124 119 219.5t285 152.5q121 43 147 58q51 27 51 63q0 39 -46 59.5t-113 20.5q-157 0 -287 -133l-141 137q75 83 190.5 134t251.5 51q76 0 146 -16t129 -47t94.5 -82.5t35.5 -117.5q0 -103 -79.5 -172t-221.5 -118q-233 -80 -262 -132h578v-194h-877z" />
<glyph unicode="&#xb3;" horiz-adv-x="1001" d="M39 1114l160 105q116 -119 274 -119q50 0 92 9t72.5 33.5t30.5 61.5q0 88 -195 88h-131v168h131q170 0 170 82t-176 82q-148 0 -258 -113l-156 109q63 92 179 143.5t255 51.5q82 0 155 -14t133.5 -42t96 -75t35.5 -107q0 -76 -52.5 -132.5t-139.5 -66.5q99 -17 162 -66.5 t63 -135.5q0 -125 -127.5 -195t-325.5 -70q-143 0 -262 53.5t-186 149.5z" />
<glyph unicode="&#xb4;" horiz-adv-x="1226" d="M240 1597l280 345h502l-485 -345h-297z" />
<glyph unicode="&#xb6;" horiz-adv-x="1957" d="M51 940q0 160 81 273t219 167t321 54h1118v-1434h-332v1147h-217v-1147h-330v444h-239q-137 0 -249.5 30.5t-196 90.5t-129.5 155.5t-46 219.5zM399 934q0 -107 71 -159t196 -52h245v424h-245q-125 0 -196 -52t-71 -161z" />
<glyph unicode="&#xb7;" horiz-adv-x="653" d="M92 588q0 87 66.5 146t169.5 59q102 0 167.5 -59t65.5 -146q0 -88 -65.5 -145.5t-167.5 -57.5q-104 0 -170 57.5t-66 145.5z" />
<glyph unicode="&#xb8;" horiz-adv-x="1226" d="M215 -387l207 315l348 -51l-301 -332z" />
<glyph unicode="&#xb9;" horiz-adv-x="651" d="M39 1434v204q80 10 162 51t141 97h195v-852h-258v586q-95 -63 -240 -86z" />
<glyph unicode="&#xba;" horiz-adv-x="1191" d="M78 1044q0 199 140.5 316t379.5 117q238 0 378 -117t140 -316q0 -200 -139.5 -316t-378.5 -116q-240 0 -380 116t-140 316zM354 1044q0 -102 66.5 -157.5t177.5 -55.5q113 0 178.5 55.5t65.5 157.5q0 100 -66 155.5t-178 55.5q-111 0 -177.5 -55.5t-66.5 -155.5z" />
<glyph unicode="&#xbb;" horiz-adv-x="1540" d="M84 164h377l432 459l-432 458h-377l432 -458zM672 164h377l430 459l-430 458h-377l430 -458z" />
<glyph unicode="&#xbc;" horiz-adv-x="2134" d="M39 1085v201q80 12 162 53t141 95h195v-852h-258v585q-87 -58 -240 -82zM340 0l936 1434h283l-936 -1434h-283zM1098 168v141l608 543h231v-502h154v-182h-154v-168h-249v168h-590zM1403 350h285v254z" />
<glyph unicode="&#xbd;" horiz-adv-x="2193" d="M39 1085v201q80 12 162 53t141 95h195v-852h-258v585q-87 -58 -240 -82zM332 0l936 1434h282l-936 -1434h-282zM1255 0v117q15 124 119 219.5t283 152.5q121 43 147 58q50 28 51 63q0 39 -46 59.5t-113 20.5q-154 0 -287 -133l-141 137q75 83 190.5 134t251.5 51 q76 0 146.5 -16t129.5 -47t94.5 -82.5t35.5 -117.5q0 -104 -79 -172.5t-222 -117.5q-112 -38 -178.5 -69t-84.5 -62h578v-195h-875z" />
<glyph unicode="&#xbe;" horiz-adv-x="2453" d="M39 760l160 106q112 -118 274 -118q51 0 92.5 8.5t72 32.5t30.5 61q0 90 -195 90h-131v166h131q47 0 83 7t61.5 26t25.5 49q0 82 -176 82q-148 0 -258 -113l-156 111q63 90 179 141t255 51q111 0 203 -23.5t154.5 -78.5t62.5 -133q0 -77 -52.5 -133t-139.5 -66 q99 -17 162 -67t63 -138q0 -84 -61 -144.5t-162 -90t-230 -29.5q-143 0 -262 54t-186 149zM659 0l936 1434h283l-936 -1434h-283zM1417 168v141l608 543h232v-502h153v-182h-153v-168h-250v168h-590zM1722 350h285v254z" />
<glyph unicode="&#xbf;" horiz-adv-x="1564" d="M82 96q0 118 72.5 204.5t193 131.5t281.5 57v162h319v-350q-229 -27 -334.5 -69.5t-105.5 -125.5q0 -41 24.5 -70.5t67.5 -45t91 -22.5t106 -7q293 0 501 217l215 -223q-297 -297 -729 -297q-105 0 -204 15.5t-190 50.5t-159 85t-108.5 124t-40.5 163zM559 958 q0 88 66 145.5t168 57.5q104 0 169.5 -57.5t65.5 -145.5q0 -87 -66 -145.5t-169 -58.5q-102 0 -168 58.5t-66 145.5z" />
<glyph unicode="&#xc0;" horiz-adv-x="1921" d="M-8 0l741 1434h457l741 -1434h-444l-135 274h-787l-135 -274h-438zM416 1942h502l280 -345h-297zM709 571h497l-248 508z" />
<glyph unicode="&#xc1;" horiz-adv-x="1921" d="M-8 0l741 1434h457l741 -1434h-444l-135 274h-787l-135 -274h-438zM709 571h497l-248 508zM725 1597l281 345h501l-485 -345h-297z" />
<glyph unicode="&#xc2;" horiz-adv-x="1921" d="M-8 0l741 1434h457l741 -1434h-444l-135 274h-787l-135 -274h-438zM442 1597l310 345h422l307 -345h-357l-166 183l-163 -183h-353zM709 571h497l-248 508z" />
<glyph unicode="&#xc3;" horiz-adv-x="1921" d="M-8 0l741 1434h457l741 -1434h-444l-135 274h-787l-135 -274h-438zM385 1841q54 62 144 103t194 41q62 0 125 -16t107.5 -34.5t103 -34.5t110.5 -16q124 0 207 90l162 -248q-56 -62 -145 -102.5t-191 -40.5q-62 0 -126.5 16t-109.5 35.5t-103 35.5t-109 16 q-66 0 -112 -23t-97 -70zM709 571h497l-248 508z" />
<glyph unicode="&#xc4;" horiz-adv-x="1921" d="M-8 0l741 1434h457l741 -1434h-444l-135 274h-787l-135 -274h-438zM481 1759q0 73 54 117.5t139 44.5q84 0 138 -44.5t54 -117.5t-54 -118.5t-138 -45.5q-85 0 -139 45.5t-54 118.5zM709 571h497l-248 508zM1057 1759q0 73 53.5 117.5t138.5 44.5q84 0 138.5 -44.5 t54.5 -117.5t-54.5 -118.5t-138.5 -45.5q-85 0 -138.5 45.5t-53.5 118.5z" />
<glyph unicode="&#xc5;" horiz-adv-x="1921" d="M-8 0l741 1434h457l741 -1434h-444l-135 274h-787l-135 -274h-438zM629 1821q0 118 91 184t243 66q151 0 242 -66t91 -184q0 -117 -91 -181.5t-242 -64.5q-153 0 -243.5 64t-90.5 182zM709 571h497l-248 508zM850 1821q0 -47 31 -75t82 -28t81.5 28t30.5 75t-30.5 74.5 t-81.5 27.5t-82 -27.5t-31 -74.5z" />
<glyph unicode="&#xc6;" horiz-adv-x="2965" d="M-35 0l1225 1434h201h1468v-320h-1096v-235h903v-306h-903v-254h1119v-319h-1530v289h-678l-236 -289h-473zM907 571h445v539z" />
<glyph unicode="&#xc7;" horiz-adv-x="1839" d="M86 717q0 238 114.5 411.5t322 263t485.5 89.5q267 0 475.5 -105.5t310.5 -267.5l-360 -184q-139 217 -433 217q-225 0 -358 -111t-133 -313t133 -313t358 -111q299 0 441 219l358 -184q-105 -166 -317.5 -270.5t-491.5 -104.5q-271 0 -474.5 89.5t-317 263t-113.5 411.5 zM610 -387l207 315l348 -51l-301 -332z" />
<glyph unicode="&#xc8;" horiz-adv-x="1781" d="M168 0v1434h1507v-320h-1095v-235h903v-306h-903v-254h1118v-319h-1530zM369 1942h501l281 -345h-297z" />
<glyph unicode="&#xc9;" horiz-adv-x="1781" d="M168 0v1434h1507v-320h-1095v-235h903v-306h-903v-254h1118v-319h-1530zM678 1597l280 345h502l-485 -345h-297z" />
<glyph unicode="&#xca;" horiz-adv-x="1781" d="M168 0v1434h1507v-320h-1095v-235h903v-306h-903v-254h1118v-319h-1530zM395 1597h353l163 183l166 -183h357l-308 345h-421z" />
<glyph unicode="&#xcb;" horiz-adv-x="1781" d="M168 0v1434h1507v-320h-1095v-235h903v-306h-903v-254h1118v-319h-1530zM434 1759q0 73 54 117.5t139 44.5q84 0 138 -44.5t54 -117.5t-54 -118.5t-138 -45.5q-85 0 -139 45.5t-54 118.5zM1010 1759q0 73 53.5 117.5t138.5 44.5q84 0 138.5 -44.5t54.5 -117.5 t-54.5 -118.5t-138.5 -45.5q-85 0 -138.5 45.5t-53.5 118.5z" />
<glyph unicode="&#xcc;" horiz-adv-x="755" d="M-168 1942h502l280 -345h-297zM168 0v1434h418v-1434h-418z" />
<glyph unicode="&#xcd;" horiz-adv-x="755" d="M141 1597l281 345h502l-486 -345h-297zM168 0v1434h418v-1434h-418z" />
<glyph unicode="&#xce;" horiz-adv-x="755" d="M-141 1597h352l164 183l166 -183h356l-307 345h-422zM168 0v1434h418v-1434h-418z" />
<glyph unicode="&#xcf;" horiz-adv-x="755" d="M-102 1759q0 73 53.5 117.5t138.5 44.5q84 0 138.5 -44.5t54.5 -117.5t-54.5 -118.5t-138.5 -45.5q-85 0 -138.5 45.5t-53.5 118.5zM168 0v1434h418v-1434h-418zM473 1759q0 73 54 117.5t139 44.5q84 0 138 -44.5t54 -117.5t-54 -118.5t-138 -45.5q-85 0 -139 45.5 t-54 118.5z" />
<glyph unicode="&#xd0;" horiz-adv-x="2017" d="M33 610v240h196v584h809q417 0 655 -190t238 -527t-238 -527t-655 -190h-809v610h-196zM645 326h352q237 0 372.5 100.5t135.5 290.5t-135.5 290.5t-372.5 100.5h-352v-258h379v-240h-379v-284z" />
<glyph unicode="&#xd1;" horiz-adv-x="2031" d="M168 0v1434h442l850 -877v877h404v-1434h-367l-926 942v-942h-403zM440 1841q54 62 144 103t194 41q62 0 125.5 -16t108 -34.5t103 -34.5t110.5 -16q124 0 207 90l161 -248q-56 -62 -145 -102.5t-191 -40.5q-62 0 -126.5 16t-109.5 35.5t-103 35.5t-109 16 q-66 0 -112 -23t-97 -70z" />
<glyph unicode="&#xd2;" horiz-adv-x="2041" d="M86 717q0 239 115.5 412.5t325.5 262.5t493 89q284 0 494 -89t326 -262.5t116 -412.5t-116 -412.5t-326 -262.5t-494 -89q-283 0 -493 89t-325.5 262.5t-115.5 412.5zM477 1942h502l281 -345h-297zM510 717q0 -201 136 -312.5t374 -111.5t374 111.5t136 312.5t-136 312.5 t-374 111.5q-237 0 -373.5 -111.5t-136.5 -312.5z" />
<glyph unicode="&#xd3;" horiz-adv-x="2041" d="M86 717q0 239 115.5 412.5t325.5 262.5t493 89q284 0 494 -89t326 -262.5t116 -412.5t-116 -412.5t-326 -262.5t-494 -89q-283 0 -493 89t-325.5 262.5t-115.5 412.5zM510 717q0 -201 136 -312.5t374 -111.5t374 111.5t136 312.5t-136 312.5t-374 111.5 q-237 0 -373.5 -111.5t-136.5 -312.5zM786 1597l281 345h502l-486 -345h-297z" />
<glyph unicode="&#xd4;" horiz-adv-x="2041" d="M86 717q0 239 115.5 412.5t325.5 262.5t493 89q284 0 494 -89t326 -262.5t116 -412.5t-116 -412.5t-326 -262.5t-494 -89q-283 0 -493 89t-325.5 262.5t-115.5 412.5zM504 1597h352l164 183l166 -183h356l-307 345h-422zM510 717q0 -201 136 -312.5t374 -111.5t374 111.5 t136 312.5t-136 312.5t-374 111.5q-237 0 -373.5 -111.5t-136.5 -312.5z" />
<glyph unicode="&#xd5;" horiz-adv-x="2041" d="M86 717q0 239 115.5 412.5t325.5 262.5t493 89q284 0 494 -89t326 -262.5t116 -412.5t-116 -412.5t-326 -262.5t-494 -89q-283 0 -493 89t-325.5 262.5t-115.5 412.5zM446 1841q54 62 144 103t194 41q62 0 125.5 -16t108 -34.5t103 -34.5t110.5 -16q124 0 207 90 l161 -248q-56 -63 -144.5 -103t-190.5 -40q-62 0 -126.5 16t-110 35.5t-103.5 35.5t-109 16q-66 0 -112 -23t-97 -70zM510 717q0 -201 136 -312.5t374 -111.5t374 111.5t136 312.5t-136 312.5t-374 111.5q-237 0 -373.5 -111.5t-136.5 -312.5z" />
<glyph unicode="&#xd6;" horiz-adv-x="2041" d="M86 717q0 239 115.5 412.5t325.5 262.5t493 89q284 0 494 -89t326 -262.5t116 -412.5t-116 -412.5t-326 -262.5t-494 -89q-283 0 -493 89t-325.5 262.5t-115.5 412.5zM510 717q0 -201 136 -312.5t374 -111.5t374 111.5t136 312.5t-136 312.5t-374 111.5 q-237 0 -373.5 -111.5t-136.5 -312.5zM543 1759q0 73 53.5 117.5t138.5 44.5q84 0 138.5 -44.5t54.5 -117.5t-54.5 -118.5t-138.5 -45.5q-85 0 -138.5 45.5t-53.5 118.5zM1118 1759q0 73 54 117.5t139 44.5q84 0 138 -44.5t54 -117.5t-54 -118.5t-138 -45.5q-85 0 -139 45.5 t-54 118.5z" />
<glyph unicode="&#xd7;" d="M195 283l344 342l-344 344l215 215l344 -344l342 344l215 -215l-342 -344l342 -342l-215 -217l-342 344l-344 -344z" />
<glyph unicode="&#xd8;" horiz-adv-x="2041" d="M86 717q0 239 115.5 412.5t325.5 262.5t493 89q212 0 393 -54l154 205h278l-223 -297q161 -98 247.5 -255t86.5 -363q0 -239 -116 -412.5t-326 -262.5t-494 -89q-217 0 -391 53l-154 -205h-278l221 297q-160 98 -246 255t-86 364zM510 717q0 -199 137 -314l539 721 q-83 17 -166 17q-237 0 -373.5 -111.5t-136.5 -312.5zM854 309q82 -16 166 -16q238 0 374 111.5t136 312.5q0 199 -135 313z" />
<glyph unicode="&#xd9;" horiz-adv-x="1951" d="M143 676v758h418v-725q0 -192 106.5 -302t309.5 -110t308.5 110t105.5 302v725h417v-758q0 -332 -218 -527.5t-613 -195.5q-198 0 -355.5 51.5t-262.5 146.5t-160.5 228.5t-55.5 296.5zM432 1942h502l280 -345h-296z" />
<glyph unicode="&#xda;" horiz-adv-x="1951" d="M143 676v758h418v-725q0 -192 106.5 -302t309.5 -110t308.5 110t105.5 302v725h417v-758q0 -332 -218 -527.5t-613 -195.5q-198 0 -355.5 51.5t-262.5 146.5t-160.5 228.5t-55.5 296.5zM739 1597l281 345h502l-486 -345h-297z" />
<glyph unicode="&#xdb;" horiz-adv-x="1951" d="M143 676v758h418v-725q0 -192 106.5 -302t309.5 -110t308.5 110t105.5 302v725h417v-758q0 -332 -218 -527.5t-613 -195.5q-198 0 -355.5 51.5t-262.5 146.5t-160.5 228.5t-55.5 296.5zM459 1597h352l164 183l166 -183h356l-307 345h-422z" />
<glyph unicode="&#xdc;" horiz-adv-x="1951" d="M143 676v758h418v-725q0 -192 106.5 -302t309.5 -110t308.5 110t105.5 302v725h417v-758q0 -332 -218 -527.5t-613 -195.5q-198 0 -355.5 51.5t-262.5 146.5t-160.5 228.5t-55.5 296.5zM498 1759q0 73 53.5 117.5t138.5 44.5q84 0 138.5 -44.5t54.5 -117.5t-54.5 -118.5 t-138.5 -45.5q-85 0 -138.5 45.5t-53.5 118.5zM1073 1759q0 73 54 117.5t139 44.5q84 0 138 -44.5t54 -117.5t-54 -118.5t-138 -45.5q-85 0 -139 45.5t-54 118.5z" />
<glyph unicode="&#xdd;" horiz-adv-x="1748" d="M-8 1434h467l418 -619l415 619h465l-674 -951v-483h-417v483zM639 1597l281 345h501l-485 -345h-297z" />
<glyph unicode="&#xde;" horiz-adv-x="1865" d="M168 0v1434h418v-207h581q193 0 336.5 -53.5t227.5 -166.5t84 -274q0 -164 -84 -279t-228 -170t-336 -55h-581v-229h-418zM586 539h547q124 0 191 44t67 146q0 191 -258 191h-547v-381z" />
<glyph unicode="&#xdf;" horiz-adv-x="1691" d="M143 0v915q0 137 45.5 253t133 203t226.5 136t316 49q295 0 481.5 -122.5t186.5 -305.5q0 -126 -95 -220t-255 -107q118 -8 215.5 -55.5t158 -133.5t60.5 -196q0 -90 -41 -169.5t-115 -138.5t-186 -93.5t-246 -34.5q-161 0 -344 47l47 252q92 -29 187 -29q140 0 212 54 t72 153t-73 153t-218 54h-118v245h67q129 0 199.5 50.5t70.5 140.5q0 94 -72.5 140t-193.5 46q-149 0 -233 -83t-84 -232v-971h-404z" />
<glyph unicode="&#xe0;" horiz-adv-x="1581" d="M57 344q0 84 34 151.5t88.5 110t127.5 71.5t146 40.5t149 11.5q145 0 261 -44.5t184 -117.5v74q0 254 -375 254q-233 0 -408 -88l-92 256q113 54 273 85.5t311 31.5q326 0 508 -141t182 -402v-422q0 -123 49 -215h-410q-38 58 -38 117v2q-68 -71 -184.5 -115.5 t-260.5 -44.5q-76 0 -149 11.5t-146 40.5t-127.5 71.5t-88.5 110t-34 151.5zM250 1642h502l280 -344h-297zM449 344q0 -43 25 -74t67 -46.5t85 -22t91 -6.5q240 0 338 139v22q-99 138 -338 138q-48 0 -91 -7t-85 -22.5t-67 -46.5t-25 -74z" />
<glyph unicode="&#xe1;" horiz-adv-x="1581" d="M57 344q0 84 34 151.5t88.5 110t127.5 71.5t146 40.5t149 11.5q145 0 261 -44.5t184 -117.5v74q0 254 -375 254q-233 0 -408 -88l-92 256q113 54 273 85.5t311 31.5q326 0 508 -141t182 -402v-422q0 -123 49 -215h-410q-38 58 -38 117v2q-68 -71 -184.5 -115.5 t-260.5 -44.5q-76 0 -149 11.5t-146 40.5t-127.5 71.5t-88.5 110t-34 151.5zM449 344q0 -43 25 -74t67 -46.5t85 -22t91 -6.5q240 0 338 139v22q-99 138 -338 138q-48 0 -91 -7t-85 -22.5t-67 -46.5t-25 -74zM559 1298l281 344h501l-485 -344h-297z" />
<glyph unicode="&#xe2;" horiz-adv-x="1581" d="M57 344q0 84 34 151.5t88.5 110t127.5 71.5t146 40.5t149 11.5q145 0 261 -44.5t184 -117.5v74q0 254 -375 254q-233 0 -408 -88l-92 256q113 54 273 85.5t311 31.5q326 0 508 -141t182 -402v-422q0 -123 49 -215h-410q-38 58 -38 117v2q-68 -71 -184.5 -115.5 t-260.5 -44.5q-76 0 -149 11.5t-146 40.5t-127.5 71.5t-88.5 110t-34 151.5zM276 1298h353l164 183l165 -183h357l-307 344h-422zM449 344q0 -43 25 -74t67 -46.5t85 -22t91 -6.5q240 0 338 139v22q-99 138 -338 138q-48 0 -91 -7t-85 -22.5t-67 -46.5t-25 -74z" />
<glyph unicode="&#xe3;" horiz-adv-x="1581" d="M57 344q0 84 34 151.5t88.5 110t127.5 71.5t146 40.5t149 11.5q145 0 261 -44.5t184 -117.5v74q0 254 -375 254q-233 0 -408 -88l-92 256q113 54 273 85.5t311 31.5q326 0 508 -141t182 -402v-422q0 -123 49 -215h-410q-38 58 -38 117v2q-68 -71 -184.5 -115.5 t-260.5 -44.5q-76 0 -149 11.5t-146 40.5t-127.5 71.5t-88.5 110t-34 151.5zM219 1542q54 62 144 103t194 41q62 0 125.5 -16t108 -34.5t103 -34.5t110.5 -16q123 0 206 90l162 -248q-56 -62 -145 -102.5t-191 -40.5q-78 0 -158 25.5t-153.5 51t-136.5 25.5 q-67 0 -113 -22.5t-96 -69.5zM449 344q0 -43 25 -74t67 -46.5t85 -22t91 -6.5q240 0 338 139v22q-99 138 -338 138q-48 0 -91 -7t-85 -22.5t-67 -46.5t-25 -74z" />
<glyph unicode="&#xe4;" horiz-adv-x="1581" d="M57 344q0 84 34 151.5t88.5 110t127.5 71.5t146 40.5t149 11.5q145 0 261 -44.5t184 -117.5v74q0 254 -375 254q-233 0 -408 -88l-92 256q113 54 273 85.5t311 31.5q326 0 508 -141t182 -402v-422q0 -123 49 -215h-410q-38 58 -38 117v2q-68 -71 -184.5 -115.5 t-260.5 -44.5q-76 0 -149 11.5t-146 40.5t-127.5 71.5t-88.5 110t-34 151.5zM315 1460q0 73 54 117.5t139 44.5q84 0 138 -44.5t54 -117.5t-54 -118.5t-138 -45.5q-85 0 -139 45.5t-54 118.5zM449 344q0 -43 25 -74t67 -46.5t85 -22t91 -6.5q240 0 338 139v22 q-99 138 -338 138q-48 0 -91 -7t-85 -22.5t-67 -46.5t-25 -74zM891 1460q0 73 53.5 117.5t138.5 44.5q84 0 138.5 -44.5t54.5 -117.5t-54.5 -118.5t-138.5 -45.5q-85 0 -138.5 45.5t-53.5 118.5z" />
<glyph unicode="&#xe5;" horiz-adv-x="1581" d="M57 344q0 84 34 151.5t88.5 110t127.5 71.5t146 40.5t149 11.5q145 0 261 -44.5t184 -117.5v74q0 254 -375 254q-233 0 -408 -88l-92 256q113 54 273 85.5t311 31.5q326 0 508 -141t182 -402v-422q0 -123 49 -215h-410q-38 58 -38 117v2q-68 -71 -184.5 -115.5 t-260.5 -44.5q-76 0 -149 11.5t-146 40.5t-127.5 71.5t-88.5 110t-34 151.5zM449 344q0 -43 25 -74t67 -46.5t85 -22t91 -6.5q240 0 338 139v22q-99 138 -338 138q-48 0 -91 -7t-85 -22.5t-67 -46.5t-25 -74zM463 1522q0 118 91 184t243 66q151 0 242 -66t91 -184 q0 -117 -91 -181.5t-242 -64.5q-153 0 -243.5 64t-90.5 182zM684 1522q0 -47 31 -75t82 -28t81.5 28t30.5 75t-30.5 74.5t-81.5 27.5t-82 -27.5t-31 -74.5z" />
<glyph unicode="&#xe6;" horiz-adv-x="2543" d="M57 344q0 84 34 151.5t88.5 110t127.5 71.5t146 40.5t149 11.5q147 0 264 -46.5t183 -125.5v84q0 254 -377 254q-239 0 -418 -90l-82 258q113 55 272.5 86t311.5 31q324 0 501 -150q191 152 519 152q152 0 279.5 -39.5t221.5 -114t146.5 -190t52.5 -260.5q0 -49 -12 -95 h-1039q22 -131 121 -186t281 -55q137 0 225.5 27t175.5 93l205 -208q-231 -201 -629 -201q-423 0 -618 223q-91 -106 -253 -161.5t-325 -55.5q-78 0 -152 11.5t-147.5 40.5t-128.5 71.5t-89 110t-34 151.5zM449 344q0 -43 25 -74t67.5 -46.5t85.5 -22t90 -6.5q240 0 340 139 v22q-101 138 -340 138q-47 0 -90.5 -7t-85.5 -22.5t-67 -46.5t-25 -74zM1438 698l667 2q-64 197 -327 197q-279 0 -340 -199z" />
<glyph unicode="&#xe7;" horiz-adv-x="1499" d="M76 567q0 284 197.5 449.5t537.5 165.5q242 0 406 -91t239 -235l-346 -139q-80 155 -295 155q-160 0 -256 -79t-96 -226q0 -146 96.5 -225.5t255.5 -79.5q217 0 303 162l346 -141q-76 -146 -242.5 -238t-410.5 -92q-339 0 -537 165.5t-198 448.5zM430 -387l207 315 l348 -51l-301 -332z" />
<glyph unicode="&#xe8;" horiz-adv-x="1574" d="M76 567q0 286 195 450.5t536 164.5q208 0 363.5 -67t246 -205.5t90.5 -334.5q0 -65 -10 -94h-1036q24 -126 123.5 -183.5t275.5 -57.5q130 0 222 31t180 98l204 -215q-228 -201 -628 -201q-359 0 -560.5 163.5t-201.5 450.5zM262 1642h502l280 -344h-296zM471 698l664 4 q-64 197 -324 197q-274 0 -340 -201z" />
<glyph unicode="&#xe9;" horiz-adv-x="1574" d="M76 567q0 286 195 450.5t536 164.5q208 0 363.5 -67t246 -205.5t90.5 -334.5q0 -65 -10 -94h-1036q24 -126 123.5 -183.5t275.5 -57.5q130 0 222 31t180 98l204 -215q-228 -201 -628 -201q-359 0 -560.5 163.5t-201.5 450.5zM471 698l664 4q-64 197 -324 197 q-274 0 -340 -201zM571 1298l281 344h502l-486 -344h-297z" />
<glyph unicode="&#xea;" horiz-adv-x="1574" d="M76 567q0 286 195 450.5t536 164.5q208 0 363.5 -67t246 -205.5t90.5 -334.5q0 -65 -10 -94h-1036q24 -126 123.5 -183.5t275.5 -57.5q130 0 222 31t180 98l204 -215q-228 -201 -628 -201q-359 0 -560.5 163.5t-201.5 450.5zM289 1298l309 344h422l307 -344h-356 l-166 183l-164 -183h-352zM471 698l664 4q-64 197 -324 197q-274 0 -340 -201z" />
<glyph unicode="&#xeb;" horiz-adv-x="1574" d="M76 567q0 286 195 450.5t536 164.5q208 0 363.5 -67t246 -205.5t90.5 -334.5q0 -65 -10 -94h-1036q24 -126 123.5 -183.5t275.5 -57.5q130 0 222 31t180 98l204 -215q-228 -201 -628 -201q-359 0 -560.5 163.5t-201.5 450.5zM328 1460q0 73 53.5 117.5t138.5 44.5 q84 0 138.5 -44.5t54.5 -117.5t-54.5 -118.5t-138.5 -45.5q-85 0 -138.5 45.5t-53.5 118.5zM471 698l664 4q-64 197 -324 197q-274 0 -340 -201zM903 1460q0 73 54 117.5t139 44.5q84 0 138 -44.5t54 -117.5t-54 -118.5t-138 -45.5q-85 0 -139 45.5t-54 118.5z" />
<glyph unicode="&#xec;" horiz-adv-x="696" d="M-197 1642h502l281 -344h-297zM145 0v1135h406v-1135h-406z" />
<glyph unicode="&#xed;" horiz-adv-x="696" d="M113 1298l280 344h502l-485 -344h-297zM145 0v1135h406v-1135h-406z" />
<glyph unicode="&#xee;" horiz-adv-x="696" d="M-170 1298h352l164 183l166 -183h356l-307 344h-422zM145 0v1135h406v-1135h-406z" />
<glyph unicode="&#xef;" horiz-adv-x="696" d="M-131 1460q0 73 53.5 117.5t138.5 44.5q84 0 138.5 -44.5t54.5 -117.5t-54.5 -118.5t-138.5 -45.5q-85 0 -138.5 45.5t-53.5 118.5zM145 0v1135h406v-1135h-406zM444 1460q0 73 54 117.5t139 44.5q84 0 138 -44.5t54 -117.5t-54 -118.5t-138 -45.5q-85 0 -139 45.5 t-54 118.5z" />
<glyph unicode="&#xf0;" horiz-adv-x="1638" d="M76 518q0 106 34 194.5t91.5 149t133.5 102.5t159 61t170 19q73 0 143.5 -9.5t145.5 -32t136.5 -67t94.5 -106.5q-40 102 -143 190.5t-253 149.5l-305 -143l-71 135l159 74q-114 22 -192 27l53 299q310 -28 551 -134l291 136l69 -136l-192 -88q209 -135 310.5 -322.5 t101.5 -381.5q0 -175 -53 -307t-152 -214t-234 -122.5t-305 -40.5q-341 0 -542 148.5t-201 418.5zM457 518q0 -134 99.5 -202t260.5 -68q163 0 263 68t100 202q0 133 -100 201.5t-263 68.5q-160 0 -260 -69t-100 -201z" />
<glyph unicode="&#xf1;" horiz-adv-x="1650" d="M143 0v1135h404v-181q72 106 193.5 164t273.5 58q242 0 375 -139.5t133 -368.5v-668h-404v641q0 111 -61 172t-176 61q-209 0 -334 -202v-672h-404zM256 1542q54 62 144 103t194 41q62 0 125 -16t107.5 -34.5t103 -34.5t110.5 -16q124 0 207 90l162 -248 q-56 -62 -145 -102.5t-191 -40.5q-78 0 -158 25.5t-153.5 51t-136.5 25.5q-67 0 -113 -22.5t-96 -69.5z" />
<glyph unicode="&#xf2;" horiz-adv-x="1636" d="M76 567q0 285 199.5 449t543.5 164q342 0 542 -164t200 -449q0 -284 -200 -449t-542 -165q-343 0 -543 165t-200 449zM274 1642h502l281 -344h-297zM463 567q0 -145 98 -224t258 -79t258.5 79t98.5 224q0 146 -98 224.5t-259 78.5t-258.5 -78.5t-97.5 -224.5z" />
<glyph unicode="&#xf3;" horiz-adv-x="1636" d="M76 567q0 285 199.5 449t543.5 164q342 0 542 -164t200 -449q0 -284 -200 -449t-542 -165q-343 0 -543 165t-200 449zM463 567q0 -145 98 -224t258 -79t258.5 79t98.5 224q0 146 -98 224.5t-259 78.5t-258.5 -78.5t-97.5 -224.5zM582 1298l280 344h502l-485 -344h-297z " />
<glyph unicode="&#xf4;" horiz-adv-x="1636" d="M76 567q0 285 199.5 449t543.5 164q342 0 542 -164t200 -449q0 -284 -200 -449t-542 -165q-343 0 -543 165t-200 449zM299 1298h352l164 183l166 -183h356l-307 344h-422zM463 567q0 -145 98 -224t258 -79t258.5 79t98.5 224q0 146 -98 224.5t-259 78.5t-258.5 -78.5 t-97.5 -224.5z" />
<glyph unicode="&#xf5;" horiz-adv-x="1636" d="M76 567q0 285 199.5 449t543.5 164q342 0 542 -164t200 -449q0 -284 -200 -449t-542 -165q-343 0 -543 165t-200 449zM242 1542q54 62 144 103t194 41q62 0 125 -16t107.5 -34.5t103 -34.5t110.5 -16q124 0 207 90l162 -248q-56 -62 -145 -102.5t-191 -40.5 q-78 0 -158 25.5t-154 51t-137 25.5q-67 0 -113 -22.5t-96 -69.5zM463 567q0 -145 98 -224t258 -79t258.5 79t98.5 224q0 146 -98 224.5t-259 78.5t-258.5 -78.5t-97.5 -224.5z" />
<glyph unicode="&#xf6;" horiz-adv-x="1636" d="M76 567q0 285 199.5 449t543.5 164q342 0 542 -164t200 -449q0 -284 -200 -449t-542 -165q-343 0 -543 165t-200 449zM338 1460q0 73 53.5 117.5t138.5 44.5q84 0 138.5 -44.5t54.5 -117.5t-54.5 -118.5t-138.5 -45.5q-85 0 -138.5 45.5t-53.5 118.5zM463 567 q0 -145 98 -224t258 -79t258.5 79t98.5 224q0 146 -98 224.5t-259 78.5t-258.5 -78.5t-97.5 -224.5zM913 1460q0 73 54 117.5t139 44.5q84 0 138 -44.5t54 -117.5t-54 -118.5t-138 -45.5q-85 0 -139 45.5t-54 118.5z" />
<glyph unicode="&#xf7;" d="M133 467v309h1239v-309h-1239zM541 182q0 69 56.5 117.5t152.5 48.5q95 0 150.5 -48.5t55.5 -117.5q0 -67 -56 -115.5t-150 -48.5q-95 0 -152 48.5t-57 115.5zM541 1059q0 68 56.5 116t152.5 48q94 0 150 -48t56 -116q0 -69 -55.5 -117.5t-150.5 -48.5q-96 0 -152.5 48.5 t-56.5 117.5z" />
<glyph unicode="&#xf8;" horiz-adv-x="1636" d="M76 567q0 285 199.5 449t543.5 164q140 0 254 -27l119 180h217l-158 -246q149 -76 229.5 -209.5t80.5 -310.5q0 -284 -200 -449t-542 -165q-152 0 -280 35l-119 -187h-219l166 256q-139 77 -215 208.5t-76 301.5zM463 567q0 -139 92 -219l334 518q-46 4 -70 4 q-161 0 -258.5 -78.5t-97.5 -224.5zM723 272q41 -8 96 -8q160 0 258.5 79t98.5 224q0 153 -111 234z" />
<glyph unicode="&#xf9;" horiz-adv-x="1650" d="M129 467v668h403v-641q0 -111 61.5 -172.5t176.5 -61.5q208 0 334 203v672h403v-1135h-403v180q-72 -106 -193.5 -163.5t-273.5 -57.5q-242 0 -375 139.5t-133 368.5zM258 1642h502l280 -344h-297z" />
<glyph unicode="&#xfa;" horiz-adv-x="1650" d="M129 467v668h403v-641q0 -111 61.5 -172.5t176.5 -61.5q208 0 334 203v672h403v-1135h-403v180q-72 -106 -193.5 -163.5t-273.5 -57.5q-242 0 -375 139.5t-133 368.5zM567 1298l281 344h502l-486 -344h-297z" />
<glyph unicode="&#xfb;" horiz-adv-x="1650" d="M129 467v668h403v-641q0 -111 61.5 -172.5t176.5 -61.5q208 0 334 203v672h403v-1135h-403v180q-72 -106 -193.5 -163.5t-273.5 -57.5q-242 0 -375 139.5t-133 368.5zM285 1298h352l164 183l166 -183h356l-307 344h-422z" />
<glyph unicode="&#xfc;" horiz-adv-x="1650" d="M129 467v668h403v-641q0 -111 61.5 -172.5t176.5 -61.5q208 0 334 203v672h403v-1135h-403v180q-72 -106 -193.5 -163.5t-273.5 -57.5q-242 0 -375 139.5t-133 368.5zM324 1460q0 73 53.5 117.5t138.5 44.5q84 0 138.5 -44.5t54.5 -117.5t-54.5 -118.5t-138.5 -45.5 q-85 0 -138.5 45.5t-53.5 118.5zM899 1460q0 73 54 117.5t139 44.5q84 0 138 -44.5t54 -117.5t-54 -118.5t-138 -45.5q-85 0 -139 45.5t-54 118.5z" />
<glyph unicode="&#xfd;" horiz-adv-x="1517" d="M6 1135h416l346 -705l334 705h409l-794 -1545h-408l258 473zM526 1298l281 344h502l-486 -344h-297z" />
<glyph unicode="&#xfe;" horiz-adv-x="1693" d="M143 -410v1926h404v-547q77 98 196 152.5t271 54.5q270 0 436 -165t166 -444t-166 -444.5t-436 -165.5q-151 0 -270.5 55.5t-196.5 153.5v-576h-404zM549 430q125 -162 352 -162q159 0 245.5 78t86.5 221q0 142 -86.5 220.5t-245.5 78.5q-228 0 -352 -161v-275z" />
<glyph unicode="&#xff;" horiz-adv-x="1517" d="M6 1135h416l346 -705l334 705h409l-794 -1545h-408l258 473zM283 1460q0 73 53.5 117.5t138.5 44.5q84 0 138.5 -44.5t54.5 -117.5t-54.5 -118.5t-138.5 -45.5q-85 0 -138.5 45.5t-53.5 118.5zM858 1460q0 73 54 117.5t139 44.5q84 0 138 -44.5t54 -117.5t-54 -118.5 t-138 -45.5q-85 0 -139 45.5t-54 118.5z" />
<glyph unicode="&#x152;" horiz-adv-x="2983" d="M86 717q0 336 241 526.5t658 190.5h797h1097v-320h-1095v-235h903v-306h-903v-254h1116v-319h-1528h-387q-417 0 -658 190.5t-241 526.5zM512 717q0 -187 137 -289t373 -102h350v782h-350q-236 0 -373 -102t-137 -289z" />
<glyph unicode="&#x153;" horiz-adv-x="2674" d="M76 567q0 285 200 450t543 165q335 0 541 -183q202 183 547 183q154 0 281.5 -39t221 -113.5t145.5 -191t52 -263.5q0 -59 -12 -94h-1036q24 -126 123.5 -183.5t275.5 -57.5q132 0 223.5 29t179.5 93l203 -208q-228 -201 -629 -201q-367 0 -573 184q-204 -184 -543 -184 q-343 0 -543 165t-200 449zM463 567q0 -145 97.5 -223t258.5 -78t259 78t98 223t-98.5 224t-258.5 79t-258 -79t-98 -224zM1569 696l665 2q-64 201 -325 201q-273 0 -340 -203z" />
<glyph unicode="&#x178;" horiz-adv-x="1748" d="M-8 1434h467l418 -619l415 619h465l-674 -951v-483h-417v483zM395 1759q0 73 54 117.5t139 44.5q84 0 138 -44.5t54 -117.5t-54 -118.5t-138 -45.5q-85 0 -139 45.5t-54 118.5zM971 1759q0 73 53.5 117.5t138.5 44.5q84 0 138.5 -44.5t54.5 -117.5t-54.5 -118.5 t-138.5 -45.5q-85 0 -138.5 45.5t-53.5 118.5z" />
<glyph unicode="&#x2c6;" horiz-adv-x="1226" d="M94 1597h352l164 183l166 -183h357l-308 345h-422z" />
<glyph unicode="&#x2dc;" horiz-adv-x="1226" d="M37 1841q54 62 144 103t194 41q62 0 125 -16t107.5 -34.5t103 -34.5t110.5 -16q124 0 207 90l162 -248q-56 -62 -145 -102.5t-191 -40.5q-62 0 -126.5 16t-109.5 35.5t-103 35.5t-109 16q-66 0 -112 -23t-97 -70z" />
<glyph unicode="&#x2000;" horiz-adv-x="1035" />
<glyph unicode="&#x2001;" horiz-adv-x="2071" />
<glyph unicode="&#x2002;" horiz-adv-x="1035" />
<glyph unicode="&#x2003;" horiz-adv-x="2071" />
<glyph unicode="&#x2004;" horiz-adv-x="690" />
<glyph unicode="&#x2005;" horiz-adv-x="517" />
<glyph unicode="&#x2006;" horiz-adv-x="345" />
<glyph unicode="&#x2007;" horiz-adv-x="345" />
<glyph unicode="&#x2008;" horiz-adv-x="258" />
<glyph unicode="&#x2009;" horiz-adv-x="414" />
<glyph unicode="&#x200a;" horiz-adv-x="115" />
<glyph unicode="&#x2010;" horiz-adv-x="1245" d="M133 463v317h979v-317h-979z" />
<glyph unicode="&#x2011;" horiz-adv-x="1245" d="M133 463v317h979v-317h-979z" />
<glyph unicode="&#x2012;" horiz-adv-x="1245" d="M133 463v317h979v-317h-979z" />
<glyph unicode="&#x2013;" horiz-adv-x="1632" d="M133 463v317h1366v-317h-1366z" />
<glyph unicode="&#x2014;" horiz-adv-x="2062" d="M133 463v317h1796v-317h-1796z" />
<glyph unicode="&#x2018;" horiz-adv-x="661" d="M92 1001q0 80 33 167.5t108 178t179 150.5l82 -115q-82 -61 -131 -119t-68 -126q11 14 57 14q90 0 152.5 -58.5t62.5 -146.5q0 -86 -65 -144.5t-164 -58.5q-111 0 -178.5 75t-67.5 183z" />
<glyph unicode="&#x2019;" horiz-adv-x="661" d="M94 1266q0 85 65.5 143.5t164.5 58.5q111 0 178 -75t67 -183q0 -80 -33 -167.5t-107.5 -177.5t-178.5 -150l-82 114q82 61 131 119t68 127q-11 -14 -58 -14q-90 0 -152.5 58.5t-62.5 146.5z" />
<glyph unicode="&#x201a;" horiz-adv-x="661" d="M94 178q0 86 65.5 144.5t164.5 58.5q111 0 178 -75t67 -183q0 -80 -33 -167.5t-107.5 -178t-178.5 -150.5l-82 115q82 61 131 119t68 127q-12 -15 -58 -15q-90 0 -152.5 58.5t-62.5 146.5z" />
<glyph unicode="&#x201c;" horiz-adv-x="1200" d="M94 999q0 80 33 167.5t107.5 178t177.5 150.5l82 -115q-81 -60 -129.5 -118t-69.5 -127q14 14 57 14q92 0 154.5 -58.5t62.5 -146.5q0 -86 -65 -144.5t-164 -58.5q-112 0 -179 75t-67 183zM631 999q0 80 33 167.5t107.5 178t178.5 150.5l80 -115q-81 -60 -129.5 -118 t-69.5 -127q16 16 58 16q91 0 154 -59t63 -146t-65 -146t-164 -59q-112 0 -179 75t-67 183z" />
<glyph unicode="&#x201d;" horiz-adv-x="1200" d="M94 1266q0 85 65.5 143.5t164.5 58.5q110 0 177.5 -74.5t67.5 -181.5q0 -81 -33 -168.5t-107.5 -178t-178.5 -150.5l-82 114q83 63 131.5 120.5t67.5 125.5q-11 -14 -58 -14q-90 0 -152.5 58.5t-62.5 146.5zM631 1266q0 86 65 144t164 58q112 0 179 -75t67 -183 q0 -80 -33 -167.5t-107.5 -177.5t-177.5 -150l-81 114q160 119 198 246q-14 -14 -57 -14q-92 0 -154.5 58.5t-62.5 146.5z" />
<glyph unicode="&#x201e;" horiz-adv-x="1200" d="M94 178q0 86 65.5 144.5t164.5 58.5q111 0 178 -75t67 -183q0 -80 -33 -167.5t-107.5 -178t-178.5 -150.5l-82 115q82 61 131 119t68 127q-12 -15 -58 -15q-90 0 -152.5 58.5t-62.5 146.5zM631 178q0 86 65 144.5t164 58.5q112 0 179 -75t67 -183q0 -80 -33 -167.5 t-107.5 -178t-177.5 -150.5l-81 115q160 119 198 246q-15 -15 -57 -15q-92 0 -154.5 58.5t-62.5 146.5z" />
<glyph unicode="&#x2022;" horiz-adv-x="888" d="M127 582q0 127 89 209.5t228 82.5t228.5 -83t89.5 -209q0 -125 -90 -209t-228 -84t-227.5 83.5t-89.5 209.5z" />
<glyph unicode="&#x2026;" horiz-adv-x="1939" d="M92 176q0 87 66.5 146t169.5 59q102 0 167.5 -59t65.5 -146q0 -88 -65.5 -145.5t-167.5 -57.5q-104 0 -170 57.5t-66 145.5zM735 176q0 87 66.5 146t169.5 59q102 0 167.5 -59t65.5 -146q0 -88 -65.5 -145.5t-167.5 -57.5q-104 0 -170 57.5t-66 145.5zM1378 176 q0 87 66.5 146t169.5 59q102 0 167.5 -59t65.5 -146q0 -88 -65.5 -145.5t-167.5 -57.5q-104 0 -170 57.5t-66 145.5z" />
<glyph unicode="&#x202f;" horiz-adv-x="414" />
<glyph unicode="&#x2039;" horiz-adv-x="952" d="M59 623l433 -459h376l-432 459l432 458h-376z" />
<glyph unicode="&#x203a;" horiz-adv-x="952" d="M84 164h377l432 459l-432 458h-377l432 -458z" />
<glyph unicode="&#x205f;" horiz-adv-x="517" />
<glyph unicode="&#x20ac;" horiz-adv-x="1853" d="M70 512v137h186q-2 23 -2 68q0 44 2 67h-186v138h206q60 266 271 413.5t530 147.5q251 0 437 -107t266 -268l-316 -162q-125 228 -395 228q-146 0 -248.5 -66t-148.5 -186h579v-138h-612q-4 -46 -4 -67q0 -22 4 -68h612v-137h-579q46 -120 148.5 -186t248.5 -66 q271 0 395 227l316 -161q-80 -161 -266 -268t-437 -107q-319 0 -530 147.5t-271 413.5h-206z" />
<glyph unicode="&#x2122;" horiz-adv-x="1988" d="M74 1253v181h749v-181h-262v-520h-225v520h-262zM909 733v701h234l229 -318l234 318h229v-701h-217v422l-244 -326h-6l-240 326v-422h-219z" />
<glyph unicode="&#x25fc;" horiz-adv-x="1136" d="M0 0v1137h1137v-1137h-1137z" />
</font>
</defs>
</svg>
