<?xml version="1.0" standalone="no"?>
<!DOCTYPE svg PUBLIC "-//W3C//DTD SVG 1.1//EN" "http://www.w3.org/Graphics/SVG/1.1/DTD/svg11.dtd" >
<svg xmlns="http://www.w3.org/2000/svg" xmlns:xlink="http://www.w3.org/1999/xlink" version="1.1">
<metadata></metadata>
<defs>
<font id="terminaregular" horiz-adv-x="1515" >
<font-face units-per-em="2048" ascent="1638" descent="-410" />
<missing-glyph horiz-adv-x="655" />
<glyph unicode="&#xfb01;" horiz-adv-x="1566" d="M41 973v143h225v92q0 88 29.5 156t81.5 109t117.5 62t142.5 21q88 0 174 -26t150 -76l-80 -106q-107 79 -228 79q-100 0 -159.5 -46t-59.5 -146v-119h512v-143h-512v-973h-168v973h-225zM1155 1397q0 46 34 77t85 31t85 -31t34 -77q0 -45 -34.5 -77t-84.5 -32t-84.5 32 t-34.5 77zM1190 0v1116h168v-1116h-168z" />
<glyph unicode="&#xfb02;" horiz-adv-x="1566" d="M41 973v143h225v92q0 88 29.5 156t81.5 109t117.5 62t142.5 21q88 0 174 -26t150 -76l-80 -106q-107 79 -228 79q-100 0 -159.5 -46t-59.5 -146v-119h512v-143h-512v-973h-168v973h-225zM1190 0v1516h168v-1516h-168z" />
<glyph horiz-adv-x="0" />
<glyph horiz-adv-x="682" />
<glyph unicode=" "  horiz-adv-x="655" />
<glyph unicode="&#x09;" horiz-adv-x="655" />
<glyph unicode="&#xa0;" horiz-adv-x="655" />
<glyph unicode="!" horiz-adv-x="643" d="M184 92q0 50 34.5 82.5t88.5 32.5t88.5 -32.5t34.5 -82.5q0 -49 -34.5 -80.5t-88.5 -31.5t-88.5 31.5t-34.5 80.5zM201 1434h213l-35 -1039h-143z" />
<glyph unicode="&#x22;" horiz-adv-x="901" d="M178 936v580h148v-580h-148zM573 936v580h148v-580h-148z" />
<glyph unicode="#" horiz-adv-x="1941" d="M111 408v129h354l110 387h-393v129h430l109 381h151l-108 -381h600l109 381h151l-108 -381h315v-129h-352l-111 -387h391v-129h-428l-117 -408h-151l117 408h-600l-117 -408h-152l117 408h-317zM616 537h601l110 387h-600z" />
<glyph unicode="$" horiz-adv-x="1796" d="M113 293l123 123q267 -232 614 -258v504q-100 10 -177 21.5t-160.5 30.5t-142.5 46t-108.5 64.5t-74.5 90t-25 117.5q0 95 56 172t152.5 126t219 76t260.5 30v190h149v-196q371 -33 619 -246l-127 -113q-187 175 -492 203v-463q134 -12 229.5 -27t187 -43t147.5 -67 t89.5 -99t33.5 -139q0 -192 -183.5 -310.5t-503.5 -127.5v-211h-149v215q-211 14 -400.5 87.5t-336.5 203.5zM338 1038q0 -40 16.5 -70.5t52.5 -52t77 -36.5t105 -26t120.5 -17t140.5 -13v457q-96 -2 -182 -15t-163 -40t-122 -75t-45 -112zM999 154q241 6 375.5 74.5 t134.5 195.5q0 40 -14 70t-45.5 52.5t-70.5 38t-101.5 27.5t-125 19.5t-153.5 15.5v-493z" />
<glyph unicode="%" horiz-adv-x="1871" d="M90 1135q0 137 100 230t259 93t258.5 -93t99.5 -230q0 -136 -100 -230t-258 -94t-258.5 94t-100.5 230zM221 1135q0 -95 63.5 -150t164.5 -55q100 0 163.5 55t63.5 150t-63 149.5t-164 54.5t-164.5 -54.5t-63.5 -149.5zM301 0l1110 1434h160l-1110 -1434h-160zM1065 299 q0 138 100 231t258 93q159 0 259 -93t100 -231q0 -136 -100.5 -230t-258.5 -94t-258 94t-100 230zM1196 299q0 -95 63.5 -150t163.5 -55q101 0 164.5 55t63.5 150t-63.5 150t-164.5 55q-100 0 -163.5 -55t-63.5 -150z" />
<glyph unicode="&#x26;" horiz-adv-x="1830" d="M131 436q0 125 80.5 231.5t216.5 163.5q-60 57 -91.5 117.5t-31.5 138.5q0 174 146.5 281t379.5 107q123 0 225.5 -31t175 -85.5t123 -119.5t83.5 -143l-152 -62q-62 141 -173 213t-284 72q-163 0 -255.5 -60.5t-92.5 -162.5q0 -42 16.5 -79t56.5 -76t77 -68.5t107 -80.5 q29 -21 44 -32l598 -438q102 132 105 350h168q-3 -267 -142 -447l308 -225h-269l-153 113q-206 -154 -549 -154q-202 0 -366.5 62.5t-257.5 172t-93 242.5zM309 446q0 -83 45 -148t122.5 -104t175 -59t208.5 -20q247 0 402 96l-654 481q-33 23 -63 47q-120 -48 -178 -124.5 t-58 -168.5z" />
<glyph unicode="'" horiz-adv-x="505" d="M178 936v580h148v-580h-148z" />
<glyph unicode="(" horiz-adv-x="880" d="M125 594q0 320 166.5 557t445.5 319l56 -120q-239 -81 -378 -278.5t-139 -477.5t139 -477.5t378 -278.5l-56 -121q-279 82 -445.5 319.5t-166.5 557.5z" />
<glyph unicode=")" horiz-adv-x="880" d="M88 -162q238 81 377 278.5t139 477.5t-139 477.5t-377 278.5l55 120q279 -82 446 -319t167 -557t-167 -557.5t-446 -319.5z" />
<glyph unicode="*" horiz-adv-x="1171" d="M135 967v145l377 -29l-213 310l123 71l164 -344l164 344l122 -71l-213 -310l377 29v-145l-377 28l213 -311l-122 -72l-164 344l-164 -344l-123 72l213 311z" />
<glyph unicode="+" d="M182 543v139h504v451h148v-451h501v-139h-501v-451h-148v451h-504z" />
<glyph unicode="," horiz-adv-x="538" d="M152 94q0 48 34 80.5t86 32.5q56 0 91.5 -36t35.5 -95q0 -85 -45.5 -188t-122.5 -175l-55 47q61 70 88 121t35 107q-8 -8 -33 -8q-48 0 -81 32t-33 82z" />
<glyph unicode="-" horiz-adv-x="1224" d="M174 539v147h875v-147h-875z" />
<glyph unicode="." horiz-adv-x="524" d="M139 92q0 50 34.5 82.5t88.5 32.5t88.5 -32.5t34.5 -82.5q0 -49 -34.5 -80.5t-88.5 -31.5t-88.5 31.5t-34.5 80.5z" />
<glyph unicode="/" horiz-adv-x="1406" d="M66 -205l1085 1802h192l-1085 -1802h-192z" />
<glyph unicode="0" horiz-adv-x="1925" d="M131 717q0 351 221 555.5t611 204.5q391 0 611 -204t220 -556t-220 -556t-611 -204q-390 0 -611 204.5t-221 555.5zM307 717q0 -291 174 -445.5t482 -154.5q306 0 480.5 154.5t174.5 445.5t-174.5 445.5t-480.5 154.5q-308 0 -482 -154.5t-174 -445.5z" />
<glyph unicode="1" horiz-adv-x="921" d="M66 1030v156q248 38 487 248h131v-1434h-172v1219q-178 -146 -446 -189z" />
<glyph unicode="2" horiz-adv-x="1665" d="M100 0v84q35 183 226 338.5t512 273.5q75 27 119 43.5t104 41.5t94 44t73.5 45t59.5 50.5t33.5 55t13.5 64.5q0 70 -42 125.5t-112 89t-157 51t-182 17.5q-364 0 -570 -299l-131 86q91 161 280.5 263t426.5 102q126 0 243.5 -29t211.5 -82t151 -136.5t57 -185.5 q0 -60 -18.5 -112t-57 -95.5t-86 -79.5t-118 -70.5t-139 -61.5t-162.5 -60q-263 -92 -419.5 -191.5t-191.5 -219.5h1225v-152h-1444z" />
<glyph unicode="3" horiz-adv-x="1708" d="M90 311l152 82q83 -133 253 -207.5t388 -74.5q141 0 255 31.5t186.5 100t72.5 165.5q0 74 -41.5 126.5t-120.5 82t-179.5 42.5t-232.5 13h-186v151h186q143 0 259 26t191 84t75 140q0 80 -73 138.5t-178.5 85t-224.5 26.5q-218 0 -361 -65.5t-230 -190.5l-150 80 q228 328 717 328q185 0 337 -45.5t245.5 -136.5t93.5 -212q0 -91 -54 -164.5t-134 -114t-169 -48.5q56 -6 110 -21t110 -43.5t97.5 -67t68 -96.5t26.5 -127q0 -136 -94.5 -237t-252.5 -152t-355 -51q-270 0 -469.5 93t-317.5 259z" />
<glyph unicode="4" horiz-adv-x="1757" d="M59 354v117l1158 963h151v-932h313v-148h-313v-354h-172v354h-1137zM319 502h877v721z" />
<glyph unicode="5" horiz-adv-x="1703" d="M104 311l134 92q103 -138 274 -214t381 -76q157 0 276 34.5t190 108.5t71 180q0 159 -155 241.5t-423 82.5q-140 0 -267.5 -27.5t-273.5 -91.5l-143 64l123 729h1165v-154h-1022l-84 -494q137 68 264.5 92.5t292.5 24.5q145 0 269.5 -28.5t221.5 -85t152.5 -148 t55.5 -209.5q0 -204 -195 -339.5t-518 -135.5q-248 0 -453.5 96t-335.5 258z" />
<glyph unicode="6" horiz-adv-x="1804" d="M131 717q0 349 220 554.5t607 205.5q445 0 674 -256l-135 -101q-188 209 -530 209q-148 0 -267.5 -37t-208 -110.5t-136.5 -191.5t-48 -273q0 -53 6 -103q119 138 308 216.5t428 78.5q100 0 192 -17.5t174.5 -54.5t143 -91t96 -131.5t35.5 -170.5q0 -217 -199 -352 t-533 -135q-387 0 -607 205.5t-220 554.5zM344 473q62 -185 221.5 -277t392.5 -92q255 0 405 89t150 251q0 109 -69.5 183t-179 105.5t-252.5 31.5q-190 0 -373 -78t-295 -213z" />
<glyph unicode="7" horiz-adv-x="1531" d="M51 1278v156h1438v-127l-844 -1307h-207l834 1278h-1221z" />
<glyph unicode="8" horiz-adv-x="1808" d="M131 393q0 69 27 127.5t70 99t99.5 70.5t113 45.5t112.5 20.5q-70 6 -134 29t-117 61.5t-84.5 98.5t-31.5 132q0 124 95.5 215.5t257 138t366.5 46.5q203 0 365 -46t258 -138t96 -216q0 -72 -31.5 -132t-84.5 -98.5t-117 -61.5t-134 -29q56 -5 112.5 -20.5t113 -45.5 t99.5 -70.5t70 -99t27 -127.5q0 -134 -98 -233t-272.5 -151t-403.5 -52q-230 0 -404.5 52t-272 151t-97.5 233zM309 391q0 -135 163 -211t431 -76q180 0 311.5 30t208 95.5t76.5 161.5q0 135 -163 211t-433 76q-268 0 -431 -76t-163 -211zM360 1073q0 -66 43.5 -116.5 t120.5 -80t172.5 -44.5t208.5 -15t208.5 15t172.5 44.5t120.5 80t43.5 116.5t-43.5 116.5t-120.5 80t-172.5 44.5t-208.5 15t-208.5 -15t-172.5 -44.5t-120.5 -80t-43.5 -116.5z" />
<glyph unicode="9" horiz-adv-x="1804" d="M115 989q0 218 199 353t532 135q387 0 607 -205.5t220 -554.5t-220 -554.5t-607 -205.5q-445 0 -674 256l135 100q188 -209 531 -209q148 0 267.5 37t207.5 110.5t136 192t48 273.5q0 53 -6 102q-119 -138 -307.5 -216.5t-427.5 -78.5q-100 0 -192 17.5t-174.5 54.5 t-143 91t-96 131.5t-35.5 170.5zM291 989q0 -83 39.5 -145.5t109.5 -99.5t158.5 -55.5t194.5 -18.5q190 0 372.5 78t294.5 213q-61 184 -220.5 276t-393.5 92q-255 0 -405 -89t-150 -251z" />
<glyph unicode=":" horiz-adv-x="524" d="M139 92q0 50 34.5 82.5t88.5 32.5t88.5 -32.5t34.5 -82.5q0 -49 -34.5 -80.5t-88.5 -31.5t-88.5 31.5t-34.5 80.5zM139 1022q0 50 34.5 82.5t88.5 32.5t88.5 -32.5t34.5 -82.5t-34.5 -81.5t-88.5 -31.5t-88.5 31.5t-34.5 81.5z" />
<glyph unicode=";" horiz-adv-x="528" d="M139 1022q0 50 34.5 82.5t88.5 32.5t88.5 -32.5t34.5 -82.5t-34.5 -81.5t-88.5 -31.5t-88.5 31.5t-34.5 81.5zM141 94q0 48 34.5 80.5t86.5 32.5q56 0 91.5 -36t35.5 -95q0 -85 -45.5 -188t-122.5 -175l-55 47q61 70 88 121t35 107q-8 -8 -33 -8q-48 0 -81.5 32t-33.5 82 z" />
<glyph unicode="&#x3c;" d="M197 535l1065 -451v156l-897 368l897 369v156l-1065 -451v-147z" />
<glyph unicode="=" d="M182 301v156h1153v-156h-1153zM182 782v156h1153v-156h-1153z" />
<glyph unicode="&#x3e;" d="M254 84l1065 451v147l-1065 451v-156l897 -369l-897 -368v-156z" />
<glyph unicode="?" horiz-adv-x="1513" d="M78 1130q109 160 293 252.5t420 92.5q119 0 229 -26.5t198.5 -76.5t141.5 -129.5t53 -177.5q0 -118 -79 -205.5t-210 -134t-305 -59.5v-254h-151v379q130 8 228.5 25.5t178 49t121 81.5t41.5 118q0 87 -67 147t-166 85.5t-220 25.5q-383 0 -573 -276zM625 92 q0 50 34.5 82.5t88.5 32.5t88 -32.5t34 -82.5t-34 -81t-88 -31t-88.5 31.5t-34.5 80.5z" />
<glyph unicode="@" horiz-adv-x="2277" d="M127 557q0 185 75 342.5t207 268t319 173t405 62.5t404.5 -62.5t318.5 -173t207 -268t75 -342.5q0 -256 -82 -379t-219 -123q-108 0 -184 65.5t-94 166.5q-69 -114 -208.5 -184t-301.5 -70q-156 0 -282 63t-200.5 184t-74.5 279t74.5 278.5t200.5 183t282 62.5 q162 0 298.5 -69.5t204.5 -184.5l43 215h101v-653q0 -140 46.5 -198t115.5 -58q84 0 138 105t54 317q0 144 -47 268t-131.5 214t-199 154t-251.5 96t-288 32t-288 -32t-252 -96t-199.5 -154t-131.5 -214t-47 -268t47 -267.5t131.5 -213.5t199.5 -154t252 -95.5t288 -31.5 q362 0 587 162l45 -70q-230 -174 -632 -174q-291 0 -520 106t-357.5 298.5t-128.5 439.5zM641 557q0 -186 122.5 -290.5t321.5 -104.5q156 0 278 70.5t185 207.5v234q-63 136 -185.5 207t-277.5 71q-199 0 -321.5 -104t-122.5 -291z" />
<glyph unicode="A" horiz-adv-x="1835" d="M33 0l788 1434h193l788 -1434h-194l-209 385h-967l-209 -385h-190zM516 541h799l-400 735z" />
<glyph unicode="B" horiz-adv-x="1896" d="M238 0v1434h954q226 0 362 -94.5t136 -270.5q0 -63 -19 -119t-55.5 -102t-96.5 -75.5t-137 -35.5q390 -24 390 -344q0 -193 -142.5 -293t-396.5 -100h-995zM408 156h794q391 0 391 250q0 249 -391 249h-794v-499zM408 811h759q167 0 259 53t92 180t-92 180.5t-259 53.5 h-759v-467z" />
<glyph unicode="C" horiz-adv-x="1816" d="M131 717q0 350 232 555t636 205q251 0 438.5 -94t291.5 -259l-164 -82q-83 139 -229 207t-339 68q-319 0 -504.5 -155t-185.5 -445t185.5 -445t504.5 -155q410 0 568 274l164 -82q-104 -166 -292 -259t-444 -93q-400 0 -631 205t-231 555z" />
<glyph unicode="D" horiz-adv-x="1925" d="M238 0v1434h696q394 0 627 -194t233 -523t-233 -523t-627 -194h-696zM410 160h512q154 0 281 36t220 104.5t144 175t51 241.5t-51 241.5t-144 175t-220 104.5t-281 36h-512v-1114z" />
<glyph unicode="E" horiz-adv-x="1740" d="M238 0v1434h1366v-160h-1194v-465h1011v-160h-1011v-489h1214v-160h-1386z" />
<glyph unicode="F" horiz-adv-x="1675" d="M238 0v1434h1364v-160h-1192v-502h1011v-160h-1011v-612h-172z" />
<glyph unicode="G" horiz-adv-x="1941" d="M131 717q0 352 233.5 556t643.5 204q248 0 430.5 -81.5t298.5 -217.5l-150 -105q-194 244 -579 244q-328 0 -514.5 -154t-186.5 -446q0 -293 189 -446.5t524 -153.5q223 0 385.5 69t239.5 213v187h-652v159h824v-397q-93 -174 -304 -282.5t-499 -108.5q-414 0 -648.5 204 t-234.5 556z" />
<glyph unicode="H" horiz-adv-x="1998" d="M238 0v1434h172v-625h1179v625h172v-1434h-172v645h-1179v-645h-172z" />
<glyph unicode="I" horiz-adv-x="647" d="M238 0v1434h172v-1434h-172z" />
<glyph unicode="J" horiz-adv-x="1415" d="M35 199l145 96q62 -92 154 -135t241 -43q235 0 347 129t112 358v830h172v-840q0 -107 -22.5 -201t-72 -174.5t-122 -138t-178.5 -90.5t-236 -33q-375 0 -540 242z" />
<glyph unicode="K" horiz-adv-x="1804" d="M238 0v1434h172v-840l1085 840h246l-715 -564l760 -870h-219l-680 770l-477 -373v-397h-172z" />
<glyph unicode="L" horiz-adv-x="1554" d="M238 0v1434h172v-1274h1097v-160h-1269z" />
<glyph unicode="M" horiz-adv-x="2285" d="M238 0v1434h188l719 -877l719 877h184v-1434h-172v1192l-729 -883h-12l-729 883v-1192h-168z" />
<glyph unicode="N" horiz-adv-x="1998" d="M238 0v1434h186l1169 -1182v1182h168v-1434h-151l-1204 1214v-1214h-168z" />
<glyph unicode="O" horiz-adv-x="2007" d="M131 717q0 352 233 556t640 204t639.5 -204t232.5 -556t-232.5 -556t-639.5 -204t-640 204t-233 556zM307 717q0 -285 188 -442.5t509 -157.5t508.5 157.5t187.5 442.5t-187.5 442.5t-508.5 157.5t-509 -157.5t-188 -442.5z" />
<glyph unicode="P" horiz-adv-x="1832" d="M238 0v1434h958q250 0 399.5 -121t149.5 -334t-149.5 -334t-399.5 -121h-786v-524h-172zM410 684h774q180 0 282.5 74t102.5 221t-102.5 221t-282.5 74h-774v-590z" />
<glyph unicode="Q" horiz-adv-x="2007" d="M131 717q0 352 233 556t640 204t639.5 -204t232.5 -556q0 -203 -80.5 -360.5t-232.5 -256.5l215 -231l-111 -102l-244 262q-182 -72 -419 -72q-407 0 -640 204t-233 556zM307 717q0 -285 188 -442.5t509 -157.5q169 0 299 43l-232 250l111 102l264 -285q123 74 188.5 199 t65.5 291q0 285 -187.5 442.5t-508.5 157.5t-509 -157.5t-188 -442.5z" />
<glyph unicode="R" horiz-adv-x="1894" d="M238 0v1434h962q245 0 397 -117.5t152 -325.5q0 -184 -120.5 -298t-323.5 -138l489 -555h-225l-475 549h-682v-549h-174zM410 709h778q180 0 282.5 70t102.5 212t-102.5 212.5t-282.5 70.5h-778v-565z" />
<glyph unicode="S" horiz-adv-x="1769" d="M98 252l121 129q155 -137 332.5 -200.5t394.5 -63.5q259 0 404 76t145 210q0 43 -16.5 76.5t-53 58.5t-83.5 43t-119 31.5t-146.5 22.5t-179.5 18q-103 9 -189 21.5t-175 33.5t-155.5 51.5t-120.5 71t-82 97t-28 125.5q0 130 102 228.5t264 147t357 48.5q224 0 413.5 -70 t320.5 -186l-136 -115q-103 102 -255 155.5t-334 55.5h-13q-94 1 -182 -13q-94 -14 -177 -44t-133 -82t-50 -119q0 -43 20.5 -77.5t63.5 -58.5t92 -41.5t125 -29.5t143.5 -19.5t163.5 -15.5q140 -11 245.5 -28t202 -47t158 -72.5t97.5 -106.5t36 -147q0 -203 -196.5 -331 t-538.5 -128q-239 0 -456.5 75t-381.5 220z" />
<glyph unicode="T" horiz-adv-x="1615" d="M45 1278v156h1526v-156h-678v-1278h-172v1278h-676z" />
<glyph unicode="U" horiz-adv-x="1931" d="M209 676v758h172v-748q0 -266 153.5 -417.5t432.5 -151.5q278 0 430.5 151.5t152.5 417.5v748h172v-758q0 -158 -49 -289t-142.5 -227t-237.5 -149.5t-326 -53.5t-326.5 53.5t-238.5 149.5t-143.5 227.5t-49.5 288.5z" />
<glyph unicode="V" horiz-adv-x="1773" d="M33 1434h194l662 -1248l661 1248h191l-760 -1434h-188z" />
<glyph unicode="W" horiz-adv-x="2463" d="M61 1434h189l432 -1225l465 1225h174l463 -1225l434 1225h184l-526 -1434h-182l-461 1227l-463 -1227h-182z" />
<glyph unicode="X" horiz-adv-x="1648" d="M37 0l674 721l-670 713h225l561 -596l562 596h219l-670 -711l674 -723h-226l-565 602l-565 -602h-219z" />
<glyph unicode="Y" horiz-adv-x="1685" d="M37 1434h207l602 -777l598 777h205l-719 -932v-502h-172v502z" />
<glyph unicode="Z" horiz-adv-x="1736" d="M111 0v127l1220 1151h-1184v156h1446v-127l-1220 -1151h1253v-156h-1515z" />
<glyph unicode="[" horiz-adv-x="878" d="M238 -246v1680h553v-136h-410v-1409h410v-135h-553z" />
<glyph unicode="\" horiz-adv-x="1482" d="M63 1597h193l1085 -1802h-192z" />
<glyph unicode="]" horiz-adv-x="878" d="M88 -111h410v1409h-410v136h553v-1680h-553v135z" />
<glyph unicode="^" d="M215 532h172l371 732l370 -732h172l-469 902h-147z" />
<glyph unicode="_" horiz-adv-x="1298" d="M8 -129h1282v-135h-1282v135z" />
<glyph unicode="`" horiz-adv-x="1191" d="M281 1905h274l338 -308h-160z" />
<glyph unicode="a" horiz-adv-x="1527" d="M92 354q0 85 36 154t94 113t134.5 74t152.5 42.5t153 12.5q172 0 303 -62.5t202 -161.5v92q0 201 -114 297.5t-346 96.5q-237 0 -439 -129l-78 123q100 67 248 109t297 42q285 0 444.5 -138.5t159.5 -400.5v-401q0 -126 54 -217h-179q-47 78 -47 178v4 q-71 -98 -202 -160.5t-303 -62.5q-77 0 -153 12t-152.5 41.5t-134.5 73.5t-94 113t-36 155zM258 354q0 -60 28 -106.5t71.5 -74t101 -45t110.5 -24t107 -6.5q100 0 191 22t174.5 77t129.5 137v41q-35 63 -91 110t-123 73.5t-137 39t-144 12.5q-54 0 -107 -6.5t-110.5 -24 t-101 -45t-71.5 -74t-28 -106.5z" />
<glyph unicode="b" horiz-adv-x="1634" d="M203 0v1516h168v-615q78 120 217.5 188t320.5 68q278 0 442.5 -164t164.5 -436q0 -271 -164.5 -434.5t-442.5 -163.5q-181 0 -320.5 68t-217.5 188v-215h-168zM371 381q157 -272 495 -272q230 0 355 116.5t125 331.5q0 217 -125 334t-355 117q-337 0 -495 -273v-354z" />
<glyph unicode="c" horiz-adv-x="1466" d="M119 557q0 277 180 439.5t496 162.5q395 0 581 -268l-164 -82q-58 102 -171 151.5t-244 49.5q-230 0 -369 -116.5t-139 -336.5q0 -147 66 -250t179 -152t263 -49q134 0 249 51t171 156l165 -73q-176 -283 -587 -283q-316 0 -496 162t-180 438z" />
<glyph unicode="d" horiz-adv-x="1634" d="M119 557q0 272 164 436t442 164q181 0 321 -68t218 -188v615h168v-1516h-168v215q-78 -120 -218 -188t-321 -68q-278 0 -442 163.5t-164 434.5zM289 557q0 -215 124.5 -331.5t354.5 -116.5q339 0 496 272v354q-158 273 -496 273q-230 0 -354.5 -117t-124.5 -334z" />
<glyph unicode="e" horiz-adv-x="1546" d="M119 557q0 279 177.5 440.5t491.5 161.5q302 0 477 -157.5t175 -442.5q0 -21 -4 -37h-1147q12 -207 150.5 -314.5t367.5 -107.5q162 0 273 41.5t210 134.5l111 -116q-115 -104 -260.5 -153.5t-341.5 -49.5q-321 0 -500.5 161t-179.5 439zM297 662h973q-24 121 -93 201.5 t-166 116.5t-220 36q-199 0 -331 -90.5t-163 -263.5z" />
<glyph unicode="f" horiz-adv-x="980" d="M41 973v143h225v92q0 88 29.5 156t81.5 109t117.5 62t142.5 21q88 0 174 -26t150 -76l-80 -106q-107 79 -228 79q-100 0 -159.5 -46t-59.5 -146v-119h512v-143h-512v-973h-168v973h-225z" />
<glyph unicode="g" horiz-adv-x="1634" d="M119 557q0 272 164 436t442 164q181 0 321 -68t218 -188v215h168v-993q0 -117 -34.5 -213t-95 -162.5t-144.5 -111.5t-181 -66t-207 -21q-148 0 -297 42t-240 108l80 129q195 -129 441 -129q249 0 379.5 101t130.5 302v113q-76 -117 -223 -186.5t-316 -69.5 q-278 0 -442 163.5t-164 434.5zM289 557q0 -215 124.5 -331.5t354.5 -116.5q339 0 496 272v354q-158 273 -496 273q-230 0 -354.5 -117t-124.5 -334z" />
<glyph unicode="h" horiz-adv-x="1613" d="M203 0v1516h168v-631q79 128 217 200t315 72q168 0 285 -68.5t172 -185t55 -272.5v-631h-168v618q0 191 -95 290.5t-282 99.5q-166 0 -295 -77.5t-204 -230.5v-700h-168z" />
<glyph unicode="i" horiz-adv-x="585" d="M174 1397q0 46 34 77t85 31t85 -31t34 -77q0 -45 -34.5 -77t-84.5 -32t-84.5 32t-34.5 77zM209 0v1116h168v-1116h-168z" />
<glyph unicode="j" horiz-adv-x="585" d="M-137 -410l51 138q48 -25 111 -25q88 0 136 54.5t48 148.5v1210h168v-1241q0 -152 -87 -239t-231 -87q-112 0 -196 41zM174 1395q0 46 34 76t85 30t85 -30t34 -76q0 -45 -34 -76t-85 -31t-85 31t-34 76z" />
<glyph unicode="k" horiz-adv-x="1421" d="M203 0v1516h168v-1029l778 629h221l-532 -440l567 -676h-205l-493 580l-336 -263v-317h-168z" />
<glyph unicode="l" horiz-adv-x="585" d="M209 0v1516h168v-1516h-168z" />
<glyph unicode="m" horiz-adv-x="2525" d="M203 0v1116h168v-231q69 125 199.5 198.5t295.5 73.5q186 0 299.5 -85.5t155.5 -235.5q65 148 205.5 234.5t318.5 86.5q125 0 219 -40t150.5 -112t84.5 -165t28 -205v-635h-166v623q0 183 -88.5 284t-270.5 101q-314 0 -456 -310q2 -20 2 -63v-498l2 -137h-168v623 q0 183 -88.5 284t-270.5 101q-312 0 -452 -303v-705h-168z" />
<glyph unicode="n" horiz-adv-x="1613" d="M203 0v1116h168v-231q79 128 217 200t315 72q168 0 285 -68.5t172 -185t55 -272.5v-631h-168v618q0 191 -95 290.5t-282 99.5q-166 0 -295 -77.5t-204 -230.5v-700h-168z" />
<glyph unicode="o" horiz-adv-x="1593" d="M119 557q0 278 180 440t498 162t498 -162t180 -440t-180 -439t-498 -161t-498 161t-180 439zM289 557q0 -218 140.5 -334.5t367.5 -116.5t367.5 116.5t140.5 334.5q0 147 -67 251t-180 153t-261 49t-261 -49t-180 -153t-67 -251z" />
<glyph unicode="p" horiz-adv-x="1634" d="M203 -410v1526h168v-215q78 120 217.5 188t320.5 68q278 0 442.5 -163.5t164.5 -434.5q0 -272 -164.5 -436t-442.5 -164q-181 0 -320.5 68t-217.5 188v-625h-168zM371 381q157 -272 495 -272q230 0 355 116.5t125 333.5q0 215 -125 332t-355 117q-337 0 -495 -273v-354z " />
<glyph unicode="q" horiz-adv-x="1634" d="M119 559q0 271 164 434.5t442 163.5q181 0 321 -68t218 -188v215h168v-1526h-168v625q-78 -120 -218 -188t-321 -68q-278 0 -442 164t-164 436zM289 559q0 -217 124.5 -333.5t354.5 -116.5q339 0 496 272v354q-158 273 -496 273q-230 0 -354.5 -117t-124.5 -332z" />
<glyph unicode="r" horiz-adv-x="962" d="M203 0v1116h168v-274q66 139 218 218t337 79v-152q-196 0 -345 -86.5t-210 -249.5v-651h-168z" />
<glyph unicode="s" horiz-adv-x="1415" d="M90 197l107 100q237 -201 548 -201q180 0 297 54.5t117 152.5q0 34 -13 61t-41 47.5t-63.5 35t-89.5 25.5t-110 18t-133 14q-80 7 -145.5 16.5t-134 25.5t-119.5 40t-92.5 56.5t-63 77.5t-21.5 101q0 107 75.5 184.5t204.5 115.5t296 38q160 0 309.5 -54.5t249.5 -135.5 l-107 -113q-186 161 -461 164h-14q-62 0 -121 -8q-66 -9 -128 -29t-100 -59.5t-38 -92.5q0 -29 12.5 -53t32.5 -41t53.5 -31t68 -23t83.5 -16t92 -11.5t102 -8.5q132 -11 233.5 -33t182.5 -59.5t123.5 -97t42.5 -138.5q0 -157 -154 -259.5t-430 -102.5q-379 0 -651 240z" />
<glyph unicode="t" horiz-adv-x="989" d="M41 969v147h225v260h168v-260h514v-147h-514v-662q0 -98 64.5 -148t163.5 -50q106 0 235 75l59 -121q-150 -104 -323 -104q-159 0 -263 84t-104 240v686h-225z" />
<glyph unicode="u" horiz-adv-x="1613" d="M199 485v631h168v-618q0 -191 94.5 -290t281.5 -99q166 0 295.5 77.5t204.5 229.5v700h168v-1116h-168v231q-79 -128 -217 -200t-315 -72q-168 0 -285 68.5t-172 185t-55 272.5z" />
<glyph unicode="v" horiz-adv-x="1445" d="M45 1116h191l489 -948l489 948h187l-586 -1116h-184z" />
<glyph unicode="w" horiz-adv-x="2023" d="M66 1116h174l340 -926l352 926h164l352 -926l340 926h170l-418 -1116h-172l-354 934l-359 -934h-172z" />
<glyph unicode="x" horiz-adv-x="1343" d="M49 0l516 561l-512 555h211l410 -454l409 454h207l-510 -553l514 -563h-211l-413 459l-414 -459h-207z" />
<glyph unicode="y" horiz-adv-x="1447" d="M45 1116h188l496 -868l490 868h184l-871 -1526h-182l289 488z" />
<glyph unicode="z" horiz-adv-x="1366" d="M90 -2v123l914 848h-885v147h1128v-123l-913 -848h938v-147h-1182z" />
<glyph unicode="{" horiz-adv-x="929" d="M37 545v100q58 0 105 8.5t94.5 33t80 64t52.5 106.5t20 157q0 202 97.5 311t275.5 109h80v-136h-62q-120 0 -182.5 -87.5t-62.5 -231.5q0 -179 -86.5 -278.5t-229.5 -104.5q143 -8 229.5 -107t86.5 -278q0 -144 62.5 -233t182.5 -89h62v-135h-80q-177 0 -275 110t-98 312 q0 90 -20 157t-52.5 106.5t-80 64t-94.5 33t-105 8.5z" />
<glyph unicode="|" horiz-adv-x="602" d="M221 -246v1680h160v-1680h-160z" />
<glyph unicode="}" horiz-adv-x="929" d="M88 -111h62q120 0 182.5 89t62.5 233q0 179 86.5 278t229.5 107q-143 5 -229.5 104.5t-86.5 278.5q0 144 -62.5 231.5t-182.5 87.5h-62v136h80q178 0 275.5 -109t97.5 -311q0 -90 20 -157t52.5 -106.5t80 -64t94.5 -33t105 -8.5v-100q-58 0 -105 -8.5t-94.5 -33t-80 -64 t-52.5 -106.5t-20 -157q0 -202 -98 -312t-275 -110h-80v135z" />
<glyph unicode="~" d="M172 575q44 70 126.5 120t199.5 50q66 0 139 -18t128 -40t126 -40t133 -18q156 0 225 110l101 -90q-44 -70 -127.5 -120t-202.5 -50q-65 0 -138 18.5t-127.5 40t-125 40t-131.5 18.5q-160 0 -226 -111z" />
<glyph unicode="&#xa1;" horiz-adv-x="643" d="M184 932q0 49 34.5 80.5t88.5 31.5t88.5 -31.5t34.5 -80.5q0 -50 -34.5 -82.5t-88.5 -32.5t-88.5 32.5t-34.5 82.5zM201 -410l35 1039h143l35 -1039h-213z" />
<glyph unicode="&#xa2;" horiz-adv-x="1486" d="M129 717q0 246 155.5 393t432.5 166v158h139v-158q178 -12 309 -84t203 -186l-137 -64q-114 176 -375 191v-832q131 8 221.5 54.5t153.5 140.5l139 -62q-70 -117 -202 -190.5t-312 -85.5v-158h-139v158q-277 19 -432.5 166t-155.5 393zM281 717q0 -192 114 -295.5 t322 -118.5v827q-208 -15 -322 -118t-114 -295z" />
<glyph unicode="&#xa3;" d="M115 0v147h241v508h-241v140h241v127q0 87 20.5 167t64 151t106.5 123.5t153.5 83t198.5 30.5q144 0 268.5 -57t198.5 -150l-100 -103q-149 162 -359 162q-191 0 -287 -114t-96 -308v-112h738v-140h-738v-508h856v-147h-1024h-241z" />
<glyph unicode="&#xa4;" horiz-adv-x="1650" d="M160 135l202 203q-151 148 -151 391q0 221 127 367l-178 178l92 86l184 -178q156 104 389 104q238 0 389 -106l185 180l92 -86l-178 -178q127 -146 127 -367q0 -239 -152 -391l203 -203l-92 -86l-213 211q-151 -88 -361 -88q-207 0 -360 86l-213 -209zM358 729 q0 -206 124.5 -312t342.5 -106t342.5 106t124.5 312t-124.5 312t-342.5 106t-342.5 -106t-124.5 -312z" />
<glyph unicode="&#xa5;" horiz-adv-x="1728" d="M76 1434h207l585 -752l582 752h205l-608 -768h391v-101h-471l-15 -18v-144h486v-100h-486v-303h-172v303h-485v100h485v144l-14 18h-471v101h391z" />
<glyph unicode="&#xa6;" horiz-adv-x="602" d="M221 -246v680h160v-680h-160zM221 764v670h160v-670h-160z" />
<glyph unicode="&#xa7;" horiz-adv-x="1488" d="M117 -49l110 98q229 -199 543 -199q182 0 299 54.5t117 152.5q0 41 -20.5 72t-55.5 51.5t-94 36t-123.5 24.5t-157.5 17q-80 7 -145.5 16.5t-134 25.5t-119.5 40t-92 56.5t-62.5 77.5t-21.5 101q0 104 66.5 184t183.5 122q-236 76 -236 258q0 107 75.5 184.5t204.5 115.5 t296 38q159 0 308 -55t249 -136l-101 -112q-198 160 -456 163q-80 1 -149 -8t-130 -29.5t-96 -59t-35 -91.5q0 -29 12.5 -53t32.5 -41t53.5 -31t68 -23t83.5 -16t92 -11.5t102 -8.5q132 -11 233.5 -33t182.5 -59.5t123.5 -97t42.5 -138.5q0 -99 -58 -180t-169 -127 q213 -83 213 -256q0 -157 -154.5 -260t-431.5 -103q-380 0 -649 240zM326 598q0 -50 33.5 -86.5t98.5 -58t138 -33.5t174 -19q86 -6 162 -18q120 26 194 88.5t74 138.5q0 41 -20 73t-56 54t-93 38.5t-124 27t-157 18.5l-74 6q-149 -13 -249.5 -73t-100.5 -156z" />
<glyph unicode="&#xa8;" horiz-adv-x="1179" d="M215 1722q0 41 31.5 71t77.5 30q45 0 75.5 -30t30.5 -71q0 -39 -30.5 -68.5t-75.5 -29.5q-46 0 -77.5 29.5t-31.5 68.5zM748 1722q0 41 31 71t77 30q45 0 76 -30t31 -71q0 -39 -31 -68.5t-76 -29.5q-46 0 -77 29.5t-31 68.5z" />
<glyph unicode="&#xa9;" horiz-adv-x="2002" d="M131 717q0 347 233 553.5t637 206.5t637.5 -206.5t233.5 -553.5t-233.5 -553.5t-637.5 -206.5t-637 206.5t-233 553.5zM207 717q0 -217 98.5 -373t276.5 -235.5t419 -79.5t419 79.5t276 235.5t98 373t-98 373t-276 235.5t-419 79.5t-419 -79.5t-276.5 -235.5t-98.5 -373z M410 719q0 243 160.5 383.5t428.5 140.5q181 0 317 -71t214 -189l-127 -61q-67 102 -161.5 148t-233.5 46q-209 0 -333 -102t-124 -295t124 -295t333 -102q140 0 236 48t165 152l129 -63q-82 -120 -219 -192t-320 -72q-268 0 -428.5 140.5t-160.5 383.5z" />
<glyph unicode="&#xaa;" horiz-adv-x="1169" d="M121 918q0 71 36.5 125t96.5 83.5t125.5 43.5t134.5 14q120 0 213 -40.5t129 -111.5v74q0 136 -77 201t-236 65q-171 0 -299 -82l-51 88q71 44 169.5 70.5t200.5 26.5q197 0 306.5 -94.5t109.5 -274.5v-279q0 -85 43 -147h-129q-37 47 -37 119v4q-36 -71 -129 -111.5 t-213 -40.5q-69 0 -134.5 14.5t-125.5 44t-96.5 83.5t-36.5 125zM244 918q0 -43 20 -76.5t49.5 -52t70 -30t74.5 -15t70 -3.5q110 0 201 40t127 120v35q-36 81 -126.5 120.5t-201.5 39.5q-46 0 -89.5 -7t-90.5 -24.5t-75.5 -55t-28.5 -91.5z" />
<glyph unicode="&#xab;" horiz-adv-x="1300" d="M96 612l432 -438h189l-434 438l434 439h-189zM553 612l432 -438h189l-435 438l435 439h-189z" />
<glyph unicode="&#xac;" d="M176 535v145h1167v-553h-157v408h-1010z" />
<glyph unicode="&#xad;" horiz-adv-x="1224" d="M174 539v147h875v-147h-875z" />
<glyph unicode="&#xae;" horiz-adv-x="1185" d="M131 1032q0 190 129.5 306t331.5 116t332.5 -116t130.5 -306t-130.5 -306t-332.5 -116t-331.5 116t-129.5 306zM182 1032q0 -172 112.5 -273.5t297.5 -101.5q183 0 296 101.5t113 273.5t-113 273.5t-296 101.5q-185 0 -297.5 -101.5t-112.5 -273.5zM377 819v436h287 q80 0 128 -36.5t48 -100.5q0 -55 -36 -91.5t-99 -45.5l145 -162h-90l-142 160h-165v-160h-76zM451 1036h192q117 0 117 80t-117 80h-192v-160z" />
<glyph unicode="&#xaf;" horiz-adv-x="1163" d="M186 1649v141h791v-141h-791z" />
<glyph unicode="&#xb0;" horiz-adv-x="882" d="M125 1174q0 124 88.5 204t228.5 80t228 -80t88 -204q0 -125 -88 -205t-228 -80t-228.5 80t-88.5 205zM248 1174q0 -79 50.5 -127t141.5 -48q92 0 143.5 47.5t51.5 127.5q0 79 -51.5 126.5t-143.5 47.5q-91 0 -141.5 -47.5t-50.5 -126.5z" />
<glyph unicode="&#xb1;" d="M182 43v135h1153v-135h-1153zM182 715v135h502v436h147v-436h504v-135h-504v-436h-147v436h-502z" />
<glyph unicode="&#xb2;" horiz-adv-x="960" d="M70 958v70q38 207 407 346q144 57 185 81q82 50 83 118q0 69 -76.5 109t-179.5 40t-176.5 -37.5t-134.5 -117.5l-88 53q66 93 171 148t235 55q94 0 176 -28t136 -85.5t54 -134.5q0 -99 -79.5 -164.5t-235.5 -124.5q-154 -61 -236.5 -111.5t-101.5 -113.5h672v-103h-811z " />
<glyph unicode="&#xb3;" horiz-adv-x="991" d="M68 1143l100 45q99 -154 326 -154q122 0 205 45t83 125q0 40 -23 70t-65 47.5t-95.5 26t-119.5 8.5h-106v94h106q120 0 197.5 31t77.5 100q0 48 -40.5 80.5t-99.5 46.5t-129 14q-200 0 -295 -135l-92 55q47 82 157 131.5t243 49.5q98 0 181.5 -25t138 -78t54.5 -123 q0 -80 -62 -133t-146 -59q43 -6 83 -20.5t77 -39t59 -64t22 -89.5q0 -118 -115 -188t-292 -70q-144 0 -259 57t-171 152z" />
<glyph unicode="&#xb4;" horiz-adv-x="1191" d="M299 1597l338 308h274l-452 -308h-160z" />
<glyph unicode="&#xb6;" horiz-adv-x="1865" d="M88 983q0 211 150 331t403 120h987v-1434h-151v1292h-308v-1292h-151v532h-377q-254 0 -403.5 118.5t-149.5 332.5zM238 983q0 -150 106.5 -229.5t298.5 -79.5h375v618h-375q-192 0 -298.5 -79.5t-106.5 -229.5z" />
<glyph unicode="&#xb7;" horiz-adv-x="524" d="M139 584q0 50 34.5 82t88.5 32t88.5 -32t34.5 -82t-34.5 -81.5t-88.5 -31.5t-88.5 31.5t-34.5 81.5z" />
<glyph unicode="&#xb8;" horiz-adv-x="1187" d="M283 -393l211 319l174 -32l-244 -324z" />
<glyph unicode="&#xb9;" horiz-adv-x="559" d="M51 1548v103q72 10 144.5 49t130.5 94h88v-838h-117v693q-92 -78 -246 -101z" />
<glyph unicode="&#xba;" horiz-adv-x="1183" d="M125 1063q0 190 125 301t342 111q218 0 342.5 -111t124.5 -301t-124.5 -301t-342.5 -111q-217 0 -342 111t-125 301zM246 1063q0 -147 92 -225t254 -78q164 0 255 78t91 225t-91 225t-255 78q-162 0 -254 -78t-92 -225z" />
<glyph unicode="&#xbb;" horiz-adv-x="1300" d="M127 174h188l433 438l-433 439h-188l434 -439zM584 174h188l432 438l-432 439h-188l434 -439z" />
<glyph unicode="&#xbc;" horiz-adv-x="1984" d="M51 1188v102q72 10 144 49t131 95h88v-838h-117v692q-91 -76 -246 -100zM342 0l895 1434h133l-895 -1434h-133zM1016 207v74l641 557h102v-533h170v-98h-170v-207h-112v207h-631zM1178 305h469v393z" />
<glyph unicode="&#xbd;" horiz-adv-x="2021" d="M51 1188v102q72 10 144 49t131 95h88v-838h-117v692q-91 -76 -246 -100zM326 0l895 1434h133l-895 -1434h-133zM1130 0v70q38 206 408 346q144 57 183 79q84 51 85 119q0 47 -38 82t-95 51.5t-123 16.5q-103 0 -176.5 -37.5t-134.5 -118.5l-88 54q66 93 170.5 147.5 t234.5 54.5q94 0 176 -28t136.5 -85.5t54.5 -134.5q0 -99 -79.5 -164t-235.5 -124q-101 -40 -163.5 -70t-112 -71t-62.5 -85h672v-102h-812z" />
<glyph unicode="&#xbe;" horiz-adv-x="2367" d="M68 780l100 45q98 -153 326 -153q122 0 205 45t83 125q0 53 -41.5 88t-107 49t-154.5 14h-106v94h106q56 0 103 7t87 21.5t62.5 41t22.5 62.5q0 48 -40.5 80.5t-99.5 46.5t-129 14q-200 0 -295 -135l-92 55q47 82 156.5 131t243.5 49q98 0 181.5 -25t138 -77.5 t54.5 -122.5q0 -80 -62 -133.5t-146 -59.5q43 -6 83 -20.5t77 -39t59 -64t22 -89.5q0 -118 -115 -188t-292 -70q-144 0 -259 57t-171 152zM725 0l895 1434h133l-895 -1434h-133zM1399 207v74l641 557h102v-533h170v-98h-170v-207h-112v207h-631zM1561 305h469v393z" />
<glyph unicode="&#xbf;" horiz-adv-x="1513" d="M100 51q0 89 44.5 161.5t125 121t187.5 78t237 39.5v254h152v-379q-129 -8 -228.5 -25.5t-178.5 -49t-121 -82t-42 -118.5q0 -87 67 -147t166 -85.5t220 -25.5q383 0 574 277l133 -84q-109 -160 -292.5 -252t-420.5 -92q-94 0 -184 16.5t-169.5 50t-139.5 81.5t-95 115 t-35 146zM643 1024q0 50 34.5 81.5t88.5 31.5t88.5 -31.5t34.5 -81.5t-34.5 -82.5t-88.5 -32.5t-88.5 32.5t-34.5 82.5z" />
<glyph unicode="&#xc0;" horiz-adv-x="1835" d="M33 0l788 1434h193l788 -1434h-194l-209 385h-967l-209 -385h-190zM485 1905h275l338 -308h-160zM516 541h799l-400 735z" />
<glyph unicode="&#xc1;" horiz-adv-x="1835" d="M33 0l788 1434h193l788 -1434h-194l-209 385h-967l-209 -385h-190zM516 541h799l-400 735zM739 1597l338 308h275l-453 -308h-160z" />
<glyph unicode="&#xc2;" horiz-adv-x="1835" d="M33 0l788 1434h193l788 -1434h-194l-209 385h-967l-209 -385h-190zM504 1597l319 308h187l319 -308h-194l-220 211l-217 -211h-194zM516 541h799l-400 735z" />
<glyph unicode="&#xc3;" horiz-adv-x="1835" d="M33 0l788 1434h193l788 -1434h-194l-209 385h-967l-209 -385h-190zM412 1716q37 71 112 122.5t189 51.5q60 0 118.5 -18t98 -40t94 -40t106.5 -18q51 0 91 17.5t59.5 37t42.5 51.5l100 -65q-37 -71 -112.5 -123t-188.5 -52q-61 0 -120 18.5t-98.5 40t-93 40t-105.5 18.5 q-73 0 -116.5 -28.5t-76.5 -77.5zM516 541h799l-400 735z" />
<glyph unicode="&#xc4;" horiz-adv-x="1835" d="M33 0l788 1434h193l788 -1434h-194l-209 385h-967l-209 -385h-190zM516 541h799l-400 735zM543 1722q0 41 31 71t77 30q45 0 76 -30t31 -71q0 -39 -31 -68.5t-76 -29.5q-46 0 -77 29.5t-31 68.5zM1075 1722q0 41 31.5 71t77.5 30q45 0 75.5 -30t30.5 -71 q0 -39 -30.5 -68.5t-75.5 -29.5q-46 0 -77.5 29.5t-31.5 68.5z" />
<glyph unicode="&#xc5;" horiz-adv-x="1835" d="M33 0l788 1434h193l788 -1434h-194l-209 385h-967l-209 -385h-190zM516 541h799l-400 735zM653 1802q0 104 76 161.5t189 57.5t188.5 -57.5t75.5 -161.5q0 -105 -75 -162t-189 -57t-189.5 57t-75.5 162zM776 1802q0 -60 39 -92.5t105 -32.5q65 0 104 32.5t39 92.5 t-39 92.5t-104 32.5q-66 0 -105 -32.5t-39 -92.5z" />
<glyph unicode="&#xc6;" horiz-adv-x="2838" d="M-12 0l1261 1434h117h1335v-160h-1194v-465h1012v-160h-1012v-489h1215v-160h-1387v365h-819l-319 -365h-209zM653 520h682v778z" />
<glyph unicode="&#xc7;" horiz-adv-x="1816" d="M131 717q0 350 232 555t636 205q251 0 438.5 -94t291.5 -259l-164 -82q-83 139 -229 207t-339 68q-319 0 -504.5 -155t-185.5 -445t185.5 -445t504.5 -155q410 0 568 274l164 -82q-104 -166 -292 -259t-444 -93q-400 0 -631 205t-231 555zM666 -393l211 319l174 -32 l-244 -324z" />
<glyph unicode="&#xc8;" horiz-adv-x="1740" d="M238 0v1434h1366v-160h-1194v-465h1011v-160h-1011v-489h1214v-160h-1386zM479 1905h275l338 -308h-160z" />
<glyph unicode="&#xc9;" horiz-adv-x="1740" d="M238 0v1434h1366v-160h-1194v-465h1011v-160h-1011v-489h1214v-160h-1386zM733 1597l338 308h275l-453 -308h-160z" />
<glyph unicode="&#xca;" horiz-adv-x="1740" d="M238 0v1434h1366v-160h-1194v-465h1011v-160h-1011v-489h1214v-160h-1386zM498 1597h194l217 211l219 -211h195l-319 308h-187z" />
<glyph unicode="&#xcb;" horiz-adv-x="1740" d="M238 0v1434h1366v-160h-1194v-465h1011v-160h-1011v-489h1214v-160h-1386zM537 1722q0 41 31 71t77 30q45 0 76 -30t31 -71q0 -39 -31 -68.5t-76 -29.5q-46 0 -77 29.5t-31 68.5zM1069 1722q0 41 31.5 71t77.5 30q45 0 75.5 -30t30.5 -71q0 -39 -30.5 -68.5t-75.5 -29.5 q-46 0 -77.5 29.5t-31.5 68.5z" />
<glyph unicode="&#xcc;" horiz-adv-x="647" d="M-109 1905h275l338 -308h-160zM238 0v1434h172v-1434h-172z" />
<glyph unicode="&#xcd;" horiz-adv-x="647" d="M145 1597l338 308h275l-453 -308h-160zM238 0v1434h172v-1434h-172z" />
<glyph unicode="&#xce;" horiz-adv-x="647" d="M-90 1597h194l218 211l219 -211h194l-319 308h-187zM238 0v1434h172v-1434h-172z" />
<glyph unicode="&#xcf;" horiz-adv-x="647" d="M-51 1722q0 41 31 71t77 30q45 0 76 -30t31 -71q0 -39 -31 -68.5t-76 -29.5q-46 0 -77 29.5t-31 68.5zM238 0v1434h172v-1434h-172zM481 1722q0 41 31.5 71t77.5 30q45 0 75.5 -30t30.5 -71q0 -39 -30.5 -68.5t-75.5 -29.5q-46 0 -77.5 29.5t-31.5 68.5z" />
<glyph unicode="&#xd0;" horiz-adv-x="1949" d="M47 659v144h215v631h696q394 0 627.5 -194t233.5 -523t-233.5 -523t-627.5 -194h-696v659h-215zM434 160h512q208 0 362 60t244 187t90 310t-90 310t-244 187t-362 60h-512v-471h467v-144h-467v-499z" />
<glyph unicode="&#xd1;" horiz-adv-x="1998" d="M238 0v1434h186l1169 -1182v1182h168v-1434h-151l-1204 1214v-1214h-168zM496 1716q37 71 112 122.5t189 51.5q60 0 118.5 -18t98 -40t94 -40t106.5 -18q51 0 91 17.5t59.5 37t42.5 51.5l100 -65q-37 -71 -112.5 -123t-188.5 -52q-61 0 -120 18.5t-98.5 40t-93.5 40 t-106 18.5q-73 0 -116 -28.5t-76 -77.5z" />
<glyph unicode="&#xd2;" horiz-adv-x="2007" d="M131 717q0 352 233 556t640 204t639.5 -204t232.5 -556t-232.5 -556t-639.5 -204t-640 204t-233 556zM307 717q0 -285 188 -442.5t509 -157.5t508.5 157.5t187.5 442.5t-187.5 442.5t-508.5 157.5t-509 -157.5t-188 -442.5zM571 1905h275l338 -308h-160z" />
<glyph unicode="&#xd3;" horiz-adv-x="2007" d="M131 717q0 352 233 556t640 204t639.5 -204t232.5 -556t-232.5 -556t-639.5 -204t-640 204t-233 556zM307 717q0 -285 188 -442.5t509 -157.5t508.5 157.5t187.5 442.5t-187.5 442.5t-508.5 157.5t-509 -157.5t-188 -442.5zM825 1597l338 308h275l-453 -308h-160z" />
<glyph unicode="&#xd4;" horiz-adv-x="2007" d="M131 717q0 352 233 556t640 204t639.5 -204t232.5 -556t-232.5 -556t-639.5 -204t-640 204t-233 556zM307 717q0 -285 188 -442.5t509 -157.5t508.5 157.5t187.5 442.5t-187.5 442.5t-508.5 157.5t-509 -157.5t-188 -442.5zM590 1597h194l217 211l220 -211h194l-319 308 h-187z" />
<glyph unicode="&#xd5;" horiz-adv-x="2007" d="M131 717q0 352 233 556t640 204t639.5 -204t232.5 -556t-232.5 -556t-639.5 -204t-640 204t-233 556zM307 717q0 -285 188 -442.5t509 -157.5t508.5 157.5t187.5 442.5t-187.5 442.5t-508.5 157.5t-509 -157.5t-188 -442.5zM498 1716q37 71 112 122.5t189 51.5 q60 0 119 -18t98.5 -40t94 -40t106.5 -18q73 0 114.5 28t77.5 78l100 -65q-37 -71 -112.5 -123t-188.5 -52q-61 0 -120 18.5t-98.5 40t-93 40t-105.5 18.5q-73 0 -116.5 -28.5t-76.5 -77.5z" />
<glyph unicode="&#xd6;" horiz-adv-x="2007" d="M131 717q0 352 233 556t640 204t639.5 -204t232.5 -556t-232.5 -556t-639.5 -204t-640 204t-233 556zM307 717q0 -285 188 -442.5t509 -157.5t508.5 157.5t187.5 442.5t-187.5 442.5t-508.5 157.5t-509 -157.5t-188 -442.5zM629 1722q0 41 31 71t77 30q45 0 76 -30 t31 -71q0 -39 -31 -68.5t-76 -29.5q-46 0 -77 29.5t-31 68.5zM1161 1722q0 41 31.5 71t77.5 30q45 0 75.5 -30t30.5 -71q0 -39 -30.5 -68.5t-75.5 -29.5q-46 0 -77.5 29.5t-31.5 68.5z" />
<glyph unicode="&#xd7;" horiz-adv-x="1521" d="M266 229l387 385l-387 387l109 109l387 -387l387 387l108 -109l-389 -385l389 -387l-108 -110l-389 389l-389 -385z" />
<glyph unicode="&#xd8;" horiz-adv-x="2007" d="M131 717q0 352 233 556t640 204q238 0 426 -76l167 221h187l-219 -289q151 -99 231 -256t80 -360q0 -352 -232.5 -556t-639.5 -204q-241 0 -429 76l-167 -221h-187l221 290q-151 97 -231 254.5t-80 360.5zM307 717q0 -322 238 -479l782 1028q-145 51 -323 51 q-321 0 -509 -157.5t-188 -442.5zM680 170q142 -53 324 -53q321 0 508.5 157.5t187.5 442.5q0 320 -240 481z" />
<glyph unicode="&#xd9;" horiz-adv-x="1931" d="M209 676v758h172v-748q0 -266 153.5 -417.5t432.5 -151.5q278 0 430.5 151.5t152.5 417.5v748h172v-758q0 -158 -49 -289t-142.5 -227t-237.5 -149.5t-326 -53.5t-326.5 53.5t-238.5 149.5t-143.5 227.5t-49.5 288.5zM535 1905h274l338 -308h-160z" />
<glyph unicode="&#xda;" horiz-adv-x="1931" d="M209 676v758h172v-748q0 -266 153.5 -417.5t432.5 -151.5q278 0 430.5 151.5t152.5 417.5v748h172v-758q0 -158 -49 -289t-142.5 -227t-237.5 -149.5t-326 -53.5t-326.5 53.5t-238.5 149.5t-143.5 227.5t-49.5 288.5zM788 1597l338 308h275l-453 -308h-160z" />
<glyph unicode="&#xdb;" horiz-adv-x="1931" d="M209 676v758h172v-748q0 -266 153.5 -417.5t432.5 -151.5q278 0 430.5 151.5t152.5 417.5v748h172v-758q0 -158 -49 -289t-142.5 -227t-237.5 -149.5t-326 -53.5t-326.5 53.5t-238.5 149.5t-143.5 227.5t-49.5 288.5zM553 1597h195l217 211l219 -211h194l-319 308h-187z " />
<glyph unicode="&#xdc;" horiz-adv-x="1931" d="M209 676v758h172v-748q0 -266 153.5 -417.5t432.5 -151.5q278 0 430.5 151.5t152.5 417.5v748h172v-758q0 -158 -49 -289t-142.5 -227t-237.5 -149.5t-326 -53.5t-326.5 53.5t-238.5 149.5t-143.5 227.5t-49.5 288.5zM592 1722q0 41 31 71t77 30q45 0 76 -30t31 -71 q0 -39 -31 -68.5t-76 -29.5q-46 0 -77 29.5t-31 68.5zM1124 1722q0 41 31.5 71t77.5 30q45 0 75.5 -30t30.5 -71q0 -39 -30.5 -68.5t-75.5 -29.5q-46 0 -77.5 29.5t-31.5 68.5z" />
<glyph unicode="&#xdd;" horiz-adv-x="1685" d="M37 1434h207l602 -777l598 777h205l-719 -932v-502h-172v502zM668 1597l338 308h274l-453 -308h-159z" />
<glyph unicode="&#xde;" horiz-adv-x="1832" d="M238 0v1434h172v-248h788q248 0 397.5 -122t149.5 -333q0 -214 -149.5 -334.5t-397.5 -120.5h-788v-276h-172zM410 428h776q180 0 281.5 76t101.5 227t-101.5 227t-281.5 76h-776v-606z" />
<glyph unicode="&#xdf;" horiz-adv-x="1589" d="M203 0v963q0 128 40 235.5t116.5 187.5t196 125t271.5 45q159 0 287 -47t203.5 -138.5t75.5 -213.5q0 -135 -90 -230t-246 -118q85 -7 159.5 -35.5t133 -77.5t92 -123t33.5 -165q0 -192 -145 -310t-390 -118q-193 0 -352 57l49 129q121 -41 264 -41q193 0 297.5 77.5 t104.5 225.5q0 149 -105 225t-303 76h-156v139h86q191 0 295.5 69.5t104.5 201.5q0 72 -31 125.5t-87 84.5t-125.5 45.5t-154.5 14.5q-224 0 -340 -111.5t-116 -314.5v-983h-168z" />
<glyph unicode="&#xe0;" horiz-adv-x="1527" d="M92 354q0 85 36 154t94 113t134.5 74t152.5 42.5t153 12.5q172 0 303 -62.5t202 -161.5v92q0 201 -114 297.5t-346 96.5q-237 0 -439 -129l-78 123q100 67 248 109t297 42q285 0 444.5 -138.5t159.5 -400.5v-401q0 -126 54 -217h-179q-47 78 -47 178v4 q-71 -98 -202 -160.5t-303 -62.5q-77 0 -153 12t-152.5 41.5t-134.5 73.5t-94 113t-36 155zM258 354q0 -60 28 -106.5t71.5 -74t101 -45t110.5 -24t107 -6.5q100 0 191 22t174.5 77t129.5 137v41q-35 63 -91 110t-123 73.5t-137 39t-144 12.5q-54 0 -107 -6.5t-110.5 -24 t-101 -45t-71.5 -74t-28 -106.5zM328 1587h274l338 -307h-160z" />
<glyph unicode="&#xe1;" horiz-adv-x="1527" d="M92 354q0 85 36 154t94 113t134.5 74t152.5 42.5t153 12.5q172 0 303 -62.5t202 -161.5v92q0 201 -114 297.5t-346 96.5q-237 0 -439 -129l-78 123q100 67 248 109t297 42q285 0 444.5 -138.5t159.5 -400.5v-401q0 -126 54 -217h-179q-47 78 -47 178v4 q-71 -98 -202 -160.5t-303 -62.5q-77 0 -153 12t-152.5 41.5t-134.5 73.5t-94 113t-36 155zM258 354q0 -60 28 -106.5t71.5 -74t101 -45t110.5 -24t107 -6.5q100 0 191 22t174.5 77t129.5 137v41q-35 63 -91 110t-123 73.5t-137 39t-144 12.5q-54 0 -107 -6.5t-110.5 -24 t-101 -45t-71.5 -74t-28 -106.5zM582 1280l338 307h274l-453 -307h-159z" />
<glyph unicode="&#xe2;" horiz-adv-x="1527" d="M92 354q0 85 36 154t94 113t134.5 74t152.5 42.5t153 12.5q172 0 303 -62.5t202 -161.5v92q0 201 -114 297.5t-346 96.5q-237 0 -439 -129l-78 123q100 67 248 109t297 42q285 0 444.5 -138.5t159.5 -400.5v-401q0 -126 54 -217h-179q-47 78 -47 178v4 q-71 -98 -202 -160.5t-303 -62.5q-77 0 -153 12t-152.5 41.5t-134.5 73.5t-94 113t-36 155zM258 354q0 -60 28 -106.5t71.5 -74t101 -45t110.5 -24t107 -6.5q100 0 191 22t174.5 77t129.5 137v41q-35 63 -91 110t-123 73.5t-137 39t-144 12.5q-54 0 -107 -6.5t-110.5 -24 t-101 -45t-71.5 -74t-28 -106.5zM346 1280h195l217 211l219 -211h194l-319 307h-186z" />
<glyph unicode="&#xe3;" horiz-adv-x="1527" d="M92 354q0 85 36 154t94 113t134.5 74t152.5 42.5t153 12.5q172 0 303 -62.5t202 -161.5v92q0 201 -114 297.5t-346 96.5q-237 0 -439 -129l-78 123q100 67 248 109t297 42q285 0 444.5 -138.5t159.5 -400.5v-401q0 -126 54 -217h-179q-47 78 -47 178v4 q-71 -98 -202 -160.5t-303 -62.5q-77 0 -153 12t-152.5 41.5t-134.5 73.5t-94 113t-36 155zM254 1399q37 71 112 122.5t189 51.5q60 0 119 -18.5t98.5 -40t94 -40t106.5 -18.5q39 0 70 8.5t54 26.5t37 33t31 39l101 -66q-37 -71 -112.5 -122.5t-188.5 -51.5q-61 0 -120 18.5 t-98.5 40t-93.5 40t-106 18.5q-73 0 -116 -29t-77 -78zM258 354q0 -60 28 -106.5t71.5 -74t101 -45t110.5 -24t107 -6.5q100 0 191 22t174.5 77t129.5 137v41q-35 63 -91 110t-123 73.5t-137 39t-144 12.5q-54 0 -107 -6.5t-110.5 -24t-101 -45t-71.5 -74t-28 -106.5z" />
<glyph unicode="&#xe4;" horiz-adv-x="1527" d="M92 354q0 85 36 154t94 113t134.5 74t152.5 42.5t153 12.5q172 0 303 -62.5t202 -161.5v92q0 201 -114 297.5t-346 96.5q-237 0 -439 -129l-78 123q100 67 248 109t297 42q285 0 444.5 -138.5t159.5 -400.5v-401q0 -126 54 -217h-179q-47 78 -47 178v4 q-71 -98 -202 -160.5t-303 -62.5q-77 0 -153 12t-152.5 41.5t-134.5 73.5t-94 113t-36 155zM258 354q0 -60 28 -106.5t71.5 -74t101 -45t110.5 -24t107 -6.5q100 0 191 22t174.5 77t129.5 137v41q-35 63 -91 110t-123 73.5t-137 39t-144 12.5q-54 0 -107 -6.5t-110.5 -24 t-101 -45t-71.5 -74t-28 -106.5zM385 1405q0 41 31.5 70.5t77.5 29.5q45 0 75.5 -29.5t30.5 -70.5q0 -39 -30.5 -68.5t-75.5 -29.5q-46 0 -77.5 29.5t-31.5 68.5zM918 1405q0 41 31 70.5t77 29.5q45 0 76 -30t31 -70q0 -39 -31 -68.5t-76 -29.5q-46 0 -77 29.5t-31 68.5z " />
<glyph unicode="&#xe5;" horiz-adv-x="1527" d="M92 354q0 85 36 154t94 113t134.5 74t152.5 42.5t153 12.5q172 0 303 -62.5t202 -161.5v92q0 201 -114 297.5t-346 96.5q-237 0 -439 -129l-78 123q100 67 248 109t297 42q285 0 444.5 -138.5t159.5 -400.5v-401q0 -126 54 -217h-179q-47 78 -47 178v4 q-71 -98 -202 -160.5t-303 -62.5q-77 0 -153 12t-152.5 41.5t-134.5 73.5t-94 113t-36 155zM258 354q0 -60 28 -106.5t71.5 -74t101 -45t110.5 -24t107 -6.5q100 0 191 22t174.5 77t129.5 137v41q-35 63 -91 110t-123 73.5t-137 39t-144 12.5q-54 0 -107 -6.5t-110.5 -24 t-101 -45t-71.5 -74t-28 -106.5zM496 1485q0 104 75.5 161.5t188.5 57.5t188.5 -57.5t75.5 -161.5q0 -105 -75 -162t-189 -57t-189 57t-75 162zM618 1485q0 -60 39 -92.5t105 -32.5q65 0 104 32.5t39 92.5t-39 92.5t-104 32.5q-66 0 -105 -32.5t-39 -92.5z" />
<glyph unicode="&#xe6;" horiz-adv-x="2580" d="M92 354q0 85 36 154t94 113t134.5 74t152.5 42.5t153 12.5q174 0 304.5 -64.5t200.5 -169.5v102q0 202 -114.5 300t-345.5 98q-238 0 -443 -131l-67 131q102 64 245.5 102.5t292.5 38.5q186 0 321 -59.5t206 -175.5q84 115 227 176t334 61q302 0 476.5 -157.5 t174.5 -442.5q0 -21 -4 -37h-1131v-112q74 -310 502 -310q162 0 273.5 41t212.5 133l108 -114q-115 -104 -260.5 -153.5t-341.5 -49.5q-212 0 -364 71.5t-232 204.5q-50 -89 -145 -152.5t-204.5 -92.5t-225.5 -29q-77 0 -153 12t-152.5 41.5t-134.5 73.5t-94 113t-36 155z M258 354q0 -74 41 -127.5t108 -80.5t133.5 -38.5t135.5 -11.5q99 0 190.5 22.5t175 78t129.5 137.5v41q-46 83 -129.5 138t-174.5 77t-191 22q-69 0 -135.5 -11.5t-133.5 -38.5t-108 -80.5t-41 -127.5zM1335 692q2 -10 2 -26h965q-32 181 -150.5 266.5t-326.5 85.5 q-421 0 -490 -326z" />
<glyph unicode="&#xe7;" horiz-adv-x="1466" d="M119 557q0 277 180 439.5t496 162.5q395 0 581 -268l-164 -82q-58 102 -171 151.5t-244 49.5q-230 0 -369 -116.5t-139 -336.5q0 -147 66 -250t179 -152t263 -49q134 0 249 51t171 156l165 -73q-176 -283 -587 -283q-316 0 -496 162t-180 438zM463 -393l211 319l174 -32 l-244 -324z" />
<glyph unicode="&#xe8;" horiz-adv-x="1546" d="M119 557q0 279 177.5 440.5t491.5 161.5q302 0 477 -157.5t175 -442.5q0 -21 -4 -37h-1147q12 -207 150.5 -314.5t367.5 -107.5q162 0 273 41.5t210 134.5l111 -116q-115 -104 -260.5 -153.5t-341.5 -49.5q-321 0 -500.5 161t-179.5 439zM297 662h973q-24 121 -93 201.5 t-166 116.5t-220 36q-199 0 -331 -90.5t-163 -263.5zM356 1587h275l338 -307h-160z" />
<glyph unicode="&#xe9;" horiz-adv-x="1546" d="M119 557q0 279 177.5 440.5t491.5 161.5q302 0 477 -157.5t175 -442.5q0 -21 -4 -37h-1147q12 -207 150.5 -314.5t367.5 -107.5q162 0 273 41.5t210 134.5l111 -116q-115 -104 -260.5 -153.5t-341.5 -49.5q-321 0 -500.5 161t-179.5 439zM297 662h973q-24 121 -93 201.5 t-166 116.5t-220 36q-199 0 -331 -90.5t-163 -263.5zM610 1280l338 307h275l-453 -307h-160z" />
<glyph unicode="&#xea;" horiz-adv-x="1546" d="M119 557q0 279 177.5 440.5t491.5 161.5q302 0 477 -157.5t175 -442.5q0 -21 -4 -37h-1147q12 -207 150.5 -314.5t367.5 -107.5q162 0 273 41.5t210 134.5l111 -116q-115 -104 -260.5 -153.5t-341.5 -49.5q-321 0 -500.5 161t-179.5 439zM297 662h973q-24 121 -93 201.5 t-166 116.5t-220 36q-199 0 -331 -90.5t-163 -263.5zM375 1280l319 307h187l319 -307h-194l-220 211l-217 -211h-194z" />
<glyph unicode="&#xeb;" horiz-adv-x="1546" d="M119 557q0 279 177.5 440.5t491.5 161.5q302 0 477 -157.5t175 -442.5q0 -21 -4 -37h-1147q12 -207 150.5 -314.5t367.5 -107.5q162 0 273 41.5t210 134.5l111 -116q-115 -104 -260.5 -153.5t-341.5 -49.5q-321 0 -500.5 161t-179.5 439zM297 662h973q-24 121 -93 201.5 t-166 116.5t-220 36q-199 0 -331 -90.5t-163 -263.5zM414 1405q0 41 31 70.5t77 29.5q45 0 76 -30t31 -70q0 -39 -31 -68.5t-76 -29.5q-46 0 -77 29.5t-31 68.5zM946 1405q0 41 31.5 70.5t77.5 29.5q45 0 75.5 -29.5t30.5 -70.5q0 -39 -30.5 -68.5t-75.5 -29.5 q-46 0 -77.5 29.5t-31.5 68.5z" />
<glyph unicode="&#xec;" horiz-adv-x="585" d="M-139 1587h274l338 -307h-160zM209 0v1116h168v-1116h-168z" />
<glyph unicode="&#xed;" horiz-adv-x="585" d="M115 1280l338 307h274l-453 -307h-159zM209 0v1116h168v-1116h-168z" />
<glyph unicode="&#xee;" horiz-adv-x="585" d="M-121 1280h195l217 211l219 -211h195l-320 307h-186zM209 0v1116h168v-1116h-168z" />
<glyph unicode="&#xef;" horiz-adv-x="585" d="M-82 1405q0 41 31.5 70.5t77.5 29.5q45 0 75.5 -29.5t30.5 -70.5q0 -39 -30.5 -68.5t-75.5 -29.5q-46 0 -77.5 29.5t-31.5 68.5zM209 0v1116h168v-1116h-168zM451 1405q0 41 31 70.5t77 29.5q45 0 76 -30t31 -70q0 -39 -31 -68.5t-76 -29.5q-46 0 -77 29.5t-31 68.5z" />
<glyph unicode="&#xf0;" horiz-adv-x="1595" d="M119 549q0 177 83 310.5t223 202t316 68.5q86 0 165 -14t156.5 -44.5t139.5 -88.5t98 -137q-75 280 -417 426l-340 -127l-51 112l208 78q-124 36 -266 56l27 145q274 -45 457 -121l296 111l52 -113l-197 -72q408 -239 408 -735q0 -649 -678 -649q-317 0 -498.5 159.5 t-181.5 432.5zM287 549q0 -216 140.5 -329.5t369.5 -113.5q112 0 204.5 27.5t161.5 81.5t107.5 139t38.5 195q0 109 -38.5 193.5t-107.5 138t-161.5 81t-204.5 27.5q-229 0 -369.5 -112.5t-140.5 -327.5z" />
<glyph unicode="&#xf1;" horiz-adv-x="1613" d="M203 0v1116h168v-231q79 128 217 200t315 72q168 0 285 -68.5t172 -185t55 -272.5v-631h-168v618q0 191 -95 290.5t-282 99.5q-166 0 -295 -77.5t-204 -230.5v-700h-168zM301 1399q37 71 112 122.5t189 51.5q60 0 119 -18.5t98.5 -40t94 -40t106.5 -18.5q39 0 70 8.5 t54 26.5t37 33t31 39l101 -66q-37 -71 -112.5 -122.5t-188.5 -51.5q-61 0 -120 18.5t-98.5 40t-93.5 40t-106 18.5q-73 0 -116 -29t-77 -78z" />
<glyph unicode="&#xf2;" horiz-adv-x="1593" d="M119 557q0 278 180 440t498 162t498 -162t180 -440t-180 -439t-498 -161t-498 161t-180 439zM289 557q0 -218 140.5 -334.5t367.5 -116.5t367.5 116.5t140.5 334.5q0 147 -67 251t-180 153t-261 49t-261 -49t-180 -153t-67 -251zM365 1587h274l338 -307h-160z" />
<glyph unicode="&#xf3;" horiz-adv-x="1593" d="M119 557q0 278 180 440t498 162t498 -162t180 -440t-180 -439t-498 -161t-498 161t-180 439zM289 557q0 -218 140.5 -334.5t367.5 -116.5t367.5 116.5t140.5 334.5q0 147 -67 251t-180 153t-261 49t-261 -49t-180 -153t-67 -251zM618 1280l338 307h275l-453 -307h-160z " />
<glyph unicode="&#xf4;" horiz-adv-x="1593" d="M119 557q0 278 180 440t498 162t498 -162t180 -440t-180 -439t-498 -161t-498 161t-180 439zM289 557q0 -218 140.5 -334.5t367.5 -116.5t367.5 116.5t140.5 334.5q0 147 -67 251t-180 153t-261 49t-261 -49t-180 -153t-67 -251zM383 1280h195l217 211l219 -211h194 l-319 307h-187z" />
<glyph unicode="&#xf5;" horiz-adv-x="1593" d="M119 557q0 278 180 440t498 162t498 -162t180 -440t-180 -439t-498 -161t-498 161t-180 439zM289 557q0 -218 140.5 -334.5t367.5 -116.5t367.5 116.5t140.5 334.5q0 147 -67 251t-180 153t-261 49t-261 -49t-180 -153t-67 -251zM291 1399q37 71 112 122.5t189 51.5 q60 0 119 -18.5t98.5 -40t94 -40t106.5 -18.5q39 0 70 8.5t54 26.5t37 33t31 39l101 -66q-37 -71 -113 -122.5t-189 -51.5q-61 0 -120 18.5t-98.5 40t-93 40t-105.5 18.5q-73 0 -116 -29t-77 -78z" />
<glyph unicode="&#xf6;" horiz-adv-x="1593" d="M119 557q0 278 180 440t498 162t498 -162t180 -440t-180 -439t-498 -161t-498 161t-180 439zM289 557q0 -218 140.5 -334.5t367.5 -116.5t367.5 116.5t140.5 334.5q0 147 -67 251t-180 153t-261 49t-261 -49t-180 -153t-67 -251zM422 1405q0 41 31 70.5t77 29.5 q45 0 76 -30t31 -70q0 -39 -31 -68.5t-76 -29.5q-46 0 -77 29.5t-31 68.5zM954 1405q0 41 31.5 70.5t77.5 29.5q45 0 75.5 -29.5t30.5 -70.5q0 -39 -30.5 -68.5t-75.5 -29.5q-46 0 -77.5 29.5t-31.5 68.5z" />
<glyph unicode="&#xf7;" d="M182 530v164h1153v-164h-1153zM643 240q0 41 32.5 73.5t82.5 32.5t82 -32.5t32 -73.5q0 -40 -32 -73.5t-82 -33.5t-82.5 33.5t-32.5 73.5zM643 985q0 40 32.5 73.5t82.5 33.5t82 -33.5t32 -73.5q0 -41 -32 -73.5t-82 -32.5t-82.5 32.5t-32.5 73.5z" />
<glyph unicode="&#xf8;" horiz-adv-x="1593" d="M119 557q0 278 180 440t498 162q154 0 282 -41l119 187h158l-154 -242q132 -75 202.5 -205t70.5 -301q0 -278 -180 -439t-498 -161q-152 0 -277 39l-119 -184h-157l151 237q-134 75 -205 205t-71 303zM289 557q0 -254 192 -373l512 799q-88 27 -196 27q-148 0 -261 -49 t-180 -153t-67 -251zM606 131q89 -25 191 -25q227 0 367.5 116.5t140.5 334.5q0 253 -189 373z" />
<glyph unicode="&#xf9;" horiz-adv-x="1613" d="M199 485v631h168v-618q0 -191 94.5 -290t281.5 -99q166 0 295.5 77.5t204.5 229.5v700h168v-1116h-168v231q-79 -128 -217 -200t-315 -72q-168 0 -285 68.5t-172 185t-55 272.5zM354 1587h275l338 -307h-160z" />
<glyph unicode="&#xfa;" horiz-adv-x="1613" d="M199 485v631h168v-618q0 -191 94.5 -290t281.5 -99q166 0 295.5 77.5t204.5 229.5v700h168v-1116h-168v231q-79 -128 -217 -200t-315 -72q-168 0 -285 68.5t-172 185t-55 272.5zM608 1280l338 307h275l-453 -307h-160z" />
<glyph unicode="&#xfb;" horiz-adv-x="1613" d="M199 485v631h168v-618q0 -191 94.5 -290t281.5 -99q166 0 295.5 77.5t204.5 229.5v700h168v-1116h-168v231q-79 -128 -217 -200t-315 -72q-168 0 -285 68.5t-172 185t-55 272.5zM373 1280h194l217 211l220 -211h194l-319 307h-187z" />
<glyph unicode="&#xfc;" horiz-adv-x="1613" d="M199 485v631h168v-618q0 -191 94.5 -290t281.5 -99q166 0 295.5 77.5t204.5 229.5v700h168v-1116h-168v231q-79 -128 -217 -200t-315 -72q-168 0 -285 68.5t-172 185t-55 272.5zM412 1405q0 41 31 70.5t77 29.5q45 0 76 -30t31 -70q0 -39 -31 -68.5t-76 -29.5 q-46 0 -77 29.5t-31 68.5zM944 1405q0 41 31.5 70.5t77.5 29.5q45 0 75.5 -29.5t30.5 -70.5q0 -39 -30.5 -68.5t-75.5 -29.5q-46 0 -77.5 29.5t-31.5 68.5z" />
<glyph unicode="&#xfd;" horiz-adv-x="1447" d="M45 1116h188l496 -868l490 868h184l-871 -1526h-182l289 488zM547 1280l338 307h274l-452 -307h-160z" />
<glyph unicode="&#xfe;" horiz-adv-x="1634" d="M203 -410v1926h168v-615q78 120 217.5 188t320.5 68q278 0 442.5 -164t164.5 -436q0 -271 -164.5 -434.5t-442.5 -163.5q-181 0 -320.5 68t-217.5 188v-625h-168zM371 381q157 -272 495 -272q230 0 355 116.5t125 331.5q0 217 -125 334t-355 117q-337 0 -495 -273v-354z " />
<glyph unicode="&#xff;" horiz-adv-x="1447" d="M45 1116h188l496 -868l490 868h184l-871 -1526h-182l289 488zM350 1405q0 41 31.5 70.5t77.5 29.5q45 0 75.5 -29.5t30.5 -70.5q0 -39 -30.5 -68.5t-75.5 -29.5q-46 0 -77.5 29.5t-31.5 68.5zM883 1405q0 41 31 70.5t77 29.5q45 0 76 -30t31 -70q0 -39 -31 -68.5 t-76 -29.5q-46 0 -77 29.5t-31 68.5z" />
<glyph unicode="&#x152;" horiz-adv-x="3018" d="M131 717q0 329 233 523t627 194h697h1194v-160h-1194v-465h1011v-160h-1011v-489h1214v-160h-1386h-525q-394 0 -627 194t-233 523zM307 717q0 -183 90 -310t244.5 -187t362.5 -60h512v1114h-512q-208 0 -362.5 -60t-244.5 -187t-90 -310z" />
<glyph unicode="&#x153;" horiz-adv-x="2732" d="M119 557q0 278 180 440t498 162q209 0 360.5 -71t231.5 -203q80 132 230 203t355 71q302 0 477 -157.5t175 -442.5q0 -17 -5 -37h-1146q12 -207 150.5 -314.5t367.5 -107.5q162 0 273 41t212 133l109 -114q-115 -104 -260.5 -153.5t-341.5 -49.5q-211 0 -362 71t-234 203 q-80 -132 -231.5 -203t-360.5 -71q-318 0 -498 161t-180 439zM289 557q0 -218 140.5 -334.5t367.5 -116.5t367.5 116.5t140.5 334.5q0 147 -67 251t-180 153t-261 49t-261 -49t-180 -153t-67 -251zM1483 662h973q-18 91 -61.5 159.5t-107 110.5t-141.5 63t-170 21 q-199 0 -330 -90.5t-163 -263.5z" />
<glyph unicode="&#x178;" horiz-adv-x="1685" d="M37 1434h207l602 -777l598 777h205l-719 -932v-502h-172v502zM471 1722q0 41 31.5 71t77.5 30q45 0 75.5 -30t30.5 -71q0 -39 -30.5 -68.5t-75.5 -29.5q-46 0 -77.5 29.5t-31.5 68.5zM1004 1722q0 41 31 71t77 30q45 0 76 -30t31 -71q0 -39 -31 -68.5t-76 -29.5 q-46 0 -77 29.5t-31 68.5z" />
<glyph unicode="&#x2c6;" horiz-adv-x="1163" d="M168 1597h194l218 211l219 -211h194l-319 308h-187z" />
<glyph unicode="&#x2dc;" horiz-adv-x="1200" d="M94 1716q37 71 112 122.5t189 51.5q60 0 119 -18t98.5 -40t94 -40t106.5 -18q51 0 91 17.5t59.5 37t42.5 51.5l100 -65q-37 -71 -112.5 -123t-188.5 -52q-61 0 -120 18.5t-98.5 40t-93.5 40t-106 18.5q-73 0 -116 -28.5t-76 -77.5z" />
<glyph unicode="&#x2000;" horiz-adv-x="1010" />
<glyph unicode="&#x2001;" horiz-adv-x="2021" />
<glyph unicode="&#x2002;" horiz-adv-x="1010" />
<glyph unicode="&#x2003;" horiz-adv-x="2021" />
<glyph unicode="&#x2004;" horiz-adv-x="673" />
<glyph unicode="&#x2005;" horiz-adv-x="505" />
<glyph unicode="&#x2006;" horiz-adv-x="336" />
<glyph unicode="&#x2007;" horiz-adv-x="336" />
<glyph unicode="&#x2008;" horiz-adv-x="252" />
<glyph unicode="&#x2009;" horiz-adv-x="404" />
<glyph unicode="&#x200a;" horiz-adv-x="112" />
<glyph unicode="&#x2010;" horiz-adv-x="1224" d="M174 539v147h875v-147h-875z" />
<glyph unicode="&#x2011;" horiz-adv-x="1224" d="M174 539v147h875v-147h-875z" />
<glyph unicode="&#x2012;" horiz-adv-x="1224" d="M174 539v147h875v-147h-875z" />
<glyph unicode="&#x2013;" horiz-adv-x="1626" d="M174 539v147h1276v-147h-1276z" />
<glyph unicode="&#x2014;" horiz-adv-x="2070" d="M174 539v147h1720v-147h-1720z" />
<glyph unicode="&#x2018;" horiz-adv-x="538" d="M152 1167q0 86 45 188.5t122 174.5l56 -47q-61 -70 -88 -121t-35 -107q9 9 33 9q48 0 81 -32.5t33 -82.5q0 -48 -34 -80.5t-86 -32.5q-56 0 -91.5 36t-35.5 95z" />
<glyph unicode="&#x2019;" horiz-adv-x="538" d="M152 1362q0 48 34 80.5t86 32.5q56 0 91.5 -36.5t35.5 -95.5q0 -85 -45.5 -187.5t-122.5 -174.5l-55 47q61 70 88 120.5t35 106.5q-8 -8 -33 -8q-48 0 -81 32.5t-33 82.5z" />
<glyph unicode="&#x201a;" horiz-adv-x="538" d="M152 94q0 48 34 80.5t86 32.5q56 0 91.5 -36t35.5 -95q0 -85 -45.5 -188t-122.5 -175l-55 47q61 70 88 121t35 107q-8 -8 -33 -8q-48 0 -81 32t-33 82z" />
<glyph unicode="&#x201c;" horiz-adv-x="843" d="M152 1159q0 86 45 188.5t122 174.5l56 -47q-61 -70 -88 -121t-35 -107q8 8 33 8q48 0 81 -32t33 -82q0 -48 -34 -80.5t-86 -32.5q-56 0 -91.5 36t-35.5 95zM457 1159q0 85 45.5 188t122.5 175l55 -47q-61 -70 -88 -121t-35 -107q8 8 33 8q48 0 81.5 -32t33.5 -82 q0 -48 -34.5 -80.5t-86.5 -32.5q-56 0 -91.5 36t-35.5 95z" />
<glyph unicode="&#x201d;" horiz-adv-x="843" d="M152 1362q0 48 34 80.5t86 32.5q56 0 91.5 -36.5t35.5 -95.5q0 -85 -45.5 -187.5t-122.5 -174.5l-55 47q61 70 88 120.5t35 106.5q-8 -8 -33 -8q-48 0 -81 32.5t-33 82.5zM457 1362q0 48 34.5 80.5t86.5 32.5q56 0 91.5 -36.5t35.5 -95.5q0 -85 -45.5 -187.5 t-122.5 -174.5l-56 47q61 70 88 120.5t35 106.5q-8 -8 -33 -8q-48 0 -81 32.5t-33 82.5z" />
<glyph unicode="&#x201e;" horiz-adv-x="843" d="M152 94q0 48 34 80.5t86 32.5q56 0 91.5 -36t35.5 -95q0 -85 -45.5 -188t-122.5 -175l-55 47q61 70 88 121t35 107q-8 -8 -33 -8q-48 0 -81 32t-33 82zM457 94q0 48 34.5 80.5t86.5 32.5q56 0 91.5 -36t35.5 -95q0 -85 -45.5 -188t-122.5 -175l-56 47q61 70 88 121 t35 107q-8 -8 -33 -8q-48 0 -81 32t-33 82z" />
<glyph unicode="&#x2022;" horiz-adv-x="759" d="M182 571q0 79 58 134t141 55t140 -54.5t57 -134.5q0 -78 -57 -132t-140 -54t-141 54t-58 132z" />
<glyph unicode="&#x2026;" horiz-adv-x="1527" d="M139 92q0 50 34.5 82.5t88.5 32.5t88.5 -32.5t34.5 -82.5q0 -49 -34.5 -80.5t-88.5 -31.5t-88.5 31.5t-34.5 80.5zM641 92q0 50 34.5 82.5t88.5 32.5t88.5 -32.5t34.5 -82.5q0 -49 -34.5 -80.5t-88.5 -31.5t-88.5 31.5t-34.5 80.5zM1143 92q0 50 34.5 82.5t88.5 32.5 t88.5 -32.5t34.5 -82.5q0 -49 -34.5 -80.5t-88.5 -31.5t-88.5 31.5t-34.5 80.5z" />
<glyph unicode="&#x202f;" horiz-adv-x="404" />
<glyph unicode="&#x2039;" horiz-adv-x="843" d="M96 612l432 -438h189l-434 438l434 439h-189z" />
<glyph unicode="&#x203a;" horiz-adv-x="843" d="M127 174h188l433 438l-433 439h-188l434 -439z" />
<glyph unicode="&#x205f;" horiz-adv-x="505" />
<glyph unicode="&#x20ac;" horiz-adv-x="1861" d="M98 520v115h207q-4 54 -4 82t4 82h-207v114h221q55 266 252.5 415t509.5 149q156 0 288.5 -49.5t220 -124.5t153.5 -175l-146 -84q-85 136 -209.5 204.5t-308.5 68.5q-235 0 -383.5 -103t-195.5 -301h872v-114h-891q-4 -54 -4 -82t4 -82h891v-115h-872 q47 -197 195.5 -300t383.5 -103q185 0 309 68.5t209 203.5l146 -84q-66 -100 -153.5 -174.5t-220 -124t-288.5 -49.5q-312 0 -509.5 149t-252.5 414h-221z" />
<glyph unicode="&#x2122;" horiz-adv-x="1992" d="M86 1331v103h733v-103h-311v-598h-111v598h-311zM926 733v701h110l324 -422l330 422h106v-701h-106v543l-328 -414h-6l-326 414v-543h-104z" />
<glyph unicode="&#x25fc;" horiz-adv-x="1116" d="M0 0v1116h1116v-1116h-1116z" />
</font>
</defs>
</svg>
